<?xml version="1.0" encoding="utf-8"?>
<!-- Generator: Adobe Illustrator 21.1.0, SVG Export Plug-In . SVG Version: 6.00 Build 0)  -->
<svg version="1.1" id="Calque_1" xmlns="http://www.w3.org/2000/svg" xmlns:xlink="http://www.w3.org/1999/xlink" x="0px" y="0px"
	 viewBox="0 0 85 161" style="enable-background:new 0 0 85 161;" xml:space="preserve">
<style type="text/css">
	.st0{fill:none;stroke:#FFFFFF;stroke-width:0.7248;stroke-linecap:round;stroke-linejoin:round;stroke-miterlimit:10;}
	.st1{fill:none;stroke:#FFFFFF;stroke-width:0.814;stroke-linecap:round;stroke-linejoin:round;stroke-miterlimit:10;}
	.st2{fill:none;stroke:#FFFFFF;stroke-width:0.407;stroke-linecap:round;stroke-linejoin:round;stroke-miterlimit:10;}
</style>
<g>
	<path class="st0" d="M62.3,66.5c0,0-6.7-1.6-18.9,1.6c0.2,3.4,0.4,10.3,3.5,9.5c3.9-0.1,8.5-0.6,10.4,1.2
		C58.7,75.4,62.3,66.5,62.3,66.5z"/>
	<path class="st0" d="M29.4,41.5c0,0-8.8-4.3-12.7,4.8c-4,9.1,4.8,35.4,11,37.5c4.6-1.1,6.2-4,6.2-4c-6.5-24.4-4.8-73.3-3.4-74.9
		c1.3-1.6,10.3-2.8,10,0c-0.6,10,2,50.8,6.1,51c4.1,0.1,17.9-36.1,20.8-43.4c5.1-2.2,11.1,1.2,11.1,1.2L63.5,66.8"/>
	<path class="st0" d="M31.5,67.3c0,0-9.4,3.5-11,6.1c1.4,3.1,4.8,11,8.2,10c3.2-1.6,4.3-2.5,5.2-3.7C33.2,77.2,31.5,67.3,31.5,67.3z
		"/>
	<path class="st0" d="M30.4,58.1c-5.5,2.2-14,1.8-14,1.8"/>
	<path class="st0" d="M16.4,46.8c0,0,4.7,3.3,13.3,2.1"/>
	<path class="st0" d="M40.6,17.8L40.4,4.3c0,0-3.8-2.9-10,0.6C30,7,29.3,19.6,29.3,19.6S37.8,16.2,40.6,17.8z"/>
	<path class="st0" d="M75.3,24.9l3.2-11.3c0,0-5.8-3.4-11.1-1.2C65.7,16.8,63,23.6,63,23.6s11.4,1.4,11.8,3.2
		C75.3,24.9,75.3,24.9,75.3,24.9z"/>
	<path class="st0" d="M15.7,50.7c0,0-10.9-3.9-11.7,7.4c-0.4,6.1,3.3,19.5,14.4,29.7c3.3-1,7.2-3.1,7.8-4.7"/>
	<path class="st0" d="M8.4,74.8c0,0,5.3-5.3,10.7-5.1c1,2.8,3.6,9.9,7,13c-0.4,1-1.9,3-7.8,5C15.1,84.4,9.8,78.5,8.4,74.8z"/>
	<path class="st0" d="M29.2,32.2c0,0,4.7,2.1,12.4-0.4"/>
	<path class="st0" d="M29.6,46.8c0,0,7.2,1.6,13.6-0.6"/>
	<path class="st0" d="M58.8,33.8c0,0,4.1,3.5,12.9,4.2"/>
	<path class="st0" d="M54.2,44.1c0,0,4.4,3.8,14.3,5.1"/>
	<path class="st0" d="M9.6,77.1c0,0-6.8,36.8,30.8,33.5"/>
	<path class="st0" d="M21.2,107.6c0,0,5.8,9,3.6,27.4c0,0,11.3,12.4,41.4,0.7c0,0-5.3-24.2-3-27c2.2-2.8,17.7-14,13.6-27.2
		C72.6,68.4,65,62.7,43.3,68.1c0,3.1,0.8,8.1,1.9,9.2c1.1,1.1,11.9-2.1,14.6,4.4c0.6,2.5-24.1-1.7-22.6,18.3"/>
	<path class="st0" d="M65.2,131.1c0,0,6.9,1.6,6.1,8.1c-0.8,6.6-13.5,11.3-27.5,10.9c-14-0.4-26.1-6.8-26.7-14.4
		c-0.1-2.9,4.4-4.1,8-3.8"/>
	<path class="st1" d="M3.9,59.9c0,0,5,1.7,11.8-1.8"/>
	<line class="st0" x1="21.2" y1="142.9" x2="16.4" y2="150.2"/>
	<line class="st0" x1="31.7" y1="148.3" x2="28.3" y2="155.3"/>
	<line class="st0" x1="43.8" y1="150.2" x2="43.8" y2="158.7"/>
	<line class="st0" x1="55.6" y1="149.3" x2="57.8" y2="157.7"/>
	<line class="st0" x1="68.5" y1="144" x2="71.6" y2="150.2"/>
	<line class="st2" x1="24.5" y1="81.6" x2="22.9" y2="82"/>
	<line class="st2" x1="23.7" y1="80.4" x2="21.8" y2="80.7"/>
	<line class="st2" x1="23.3" y1="79.1" x2="20.5" y2="79.6"/>
	<line class="st2" x1="22.6" y1="77.9" x2="20.8" y2="78.2"/>
	<line class="st2" x1="21.8" y1="76.5" x2="19.9" y2="76.8"/>
	<line class="st2" x1="21.3" y1="75.2" x2="19.3" y2="75.4"/>
	<line class="st2" x1="20.7" y1="73.9" x2="18.6" y2="74.1"/>
	<line class="st2" x1="19.9" y1="72.5" x2="18.6" y2="72.7"/>
	<line class="st2" x1="19.6" y1="71.3" x2="18.1" y2="71.5"/>
	<line class="st2" x1="18.6" y1="68.2" x2="16.8" y2="68.6"/>
	<line class="st2" x1="18.1" y1="66.9" x2="15.9" y2="67.3"/>
	<line class="st2" x1="17.7" y1="65.5" x2="15.9" y2="65.8"/>
	<line class="st2" x1="17.3" y1="64" x2="15.4" y2="64.2"/>
	<line class="st2" x1="17" y1="62.6" x2="15.2" y2="62.8"/>
	<line class="st2" x1="16.7" y1="61.1" x2="14.5" y2="61.4"/>
	<line class="st2" x1="16.7" y1="59.9" x2="14.5" y2="60.1"/>
	<path class="st0" d="M16.3,59.2"/>
	<line class="st2" x1="16" y1="56.9" x2="14.3" y2="56.9"/>
	<line class="st2" x1="15.8" y1="55.5" x2="13.4" y2="55.5"/>
	<line class="st2" x1="15.7" y1="54.2" x2="13.9" y2="54.2"/>
	<line class="st2" x1="15.6" y1="52.9" x2="13.6" y2="52.9"/>
	<line class="st2" x1="15.7" y1="51.8" x2="13.9" y2="51.8"/>
	<line class="st2" x1="33.6" y1="78.5" x2="32.2" y2="78.7"/>
	<line class="st2" x1="33.3" y1="77.1" x2="31.3" y2="77.4"/>
	<line class="st2" x1="33" y1="76" x2="31" y2="76.2"/>
	<line class="st2" x1="32.7" y1="74.7" x2="30.6" y2="74.9"/>
	<line class="st2" x1="32.4" y1="73.3" x2="31" y2="73.4"/>
	<line class="st2" x1="32.2" y1="72" x2="29.7" y2="72.2"/>
	<line class="st2" x1="32" y1="70.7" x2="30.1" y2="70.9"/>
	<line class="st2" x1="31.8" y1="69.5" x2="29.7" y2="69.6"/>
	<line class="st2" x1="31.3" y1="66.1" x2="29.9" y2="66.3"/>
	<line class="st2" x1="31.1" y1="64.9" x2="28.6" y2="65.1"/>
	<line class="st2" x1="31" y1="63.7" x2="29.2" y2="63.8"/>
	<line class="st2" x1="30.8" y1="62.4" x2="28.6" y2="62.5"/>
	<line class="st2" x1="30.7" y1="61.1" x2="28.8" y2="61.3"/>
	<line class="st2" x1="30.6" y1="59.9" x2="28.8" y2="59.9"/>
	<line class="st2" x1="30.3" y1="56.8" x2="28.4" y2="56.9"/>
	<line class="st2" x1="30.2" y1="55.5" x2="27.3" y2="55.6"/>
	<line class="st2" x1="30.1" y1="54.3" x2="28.3" y2="54.3"/>
	<line class="st2" x1="30" y1="52.9" x2="27.6" y2="52.9"/>
	<line class="st2" x1="29.9" y1="51.8" x2="28.3" y2="51.8"/>
	<line class="st2" x1="29.9" y1="50.4" x2="27.6" y2="50.4"/>
	<line class="st2" x1="29.6" y1="47.6" x2="27.9" y2="47.6"/>
	<line class="st2" x1="29.6" y1="46.4" x2="27.2" y2="46.4"/>
	<line class="st2" x1="29.4" y1="45" x2="27.6" y2="45"/>
	<line class="st2" x1="29.5" y1="43.5" x2="27.6" y2="43.5"/>
	<line class="st2" x1="29.6" y1="42.3" x2="27" y2="42.3"/>
	<line class="st2" x1="44.6" y1="52.6" x2="42.6" y2="52.6"/>
	<line class="st2" x1="44.2" y1="51.2" x2="41.6" y2="51.2"/>
	<line class="st2" x1="44" y1="49.9" x2="41.9" y2="49.9"/>
	<line class="st2" x1="43.7" y1="48.6" x2="41.2" y2="48.6"/>
	<line class="st2" x1="43.5" y1="47.4" x2="42.1" y2="47.4"/>
	<line class="st2" x1="43" y1="44.9" x2="41.2" y2="44.9"/>
	<line class="st2" x1="42.9" y1="43.5" x2="40.3" y2="43.5"/>
	<line class="st2" x1="42.7" y1="42.2" x2="40.9" y2="42.2"/>
	<line class="st2" x1="42.5" y1="40.8" x2="40" y2="40.8"/>
	<line class="st2" x1="42.3" y1="39.6" x2="40.7" y2="39.6"/>
	<line class="st2" x1="42.2" y1="38.3" x2="39.9" y2="38.3"/>
	<line class="st2" x1="42.1" y1="37.1" x2="40.3" y2="37.1"/>
	<line class="st2" x1="41.9" y1="35.6" x2="39.5" y2="35.6"/>
	<line class="st2" x1="41.8" y1="34.5" x2="40.1" y2="34.5"/>
	<line class="st2" x1="41.8" y1="33.2" x2="40.4" y2="33.2"/>
	<line class="st2" x1="41.5" y1="30.8" x2="40" y2="30.8"/>
	<line class="st2" x1="41.4" y1="29.7" x2="39.3" y2="29.7"/>
	<line class="st2" x1="41.3" y1="28.5" x2="39.8" y2="28.5"/>
	<line class="st2" x1="41.1" y1="27.5" x2="39.3" y2="27.5"/>
	<line class="st2" x1="41.1" y1="26.3" x2="39.3" y2="26.3"/>
	<line class="st2" x1="41" y1="24.9" x2="38.8" y2="24.9"/>
	<line class="st2" x1="40.9" y1="23.6" x2="39.3" y2="23.6"/>
	<line class="st2" x1="40.9" y1="22.2" x2="38.6" y2="22.2"/>
	<line class="st2" x1="40.8" y1="20.9" x2="39.2" y2="20.9"/>
	<line class="st2" x1="40.7" y1="19.4" x2="38.6" y2="19.4"/>
	<line class="st2" x1="40.6" y1="16.4" x2="39.2" y2="16.4"/>
	<line class="st2" x1="40.6" y1="15.2" x2="38.4" y2="15.2"/>
	<line class="st2" x1="40.5" y1="14" x2="38.9" y2="14"/>
	<line class="st2" x1="40.4" y1="12.8" x2="39.2" y2="12.8"/>
	<line class="st2" x1="40.4" y1="11.5" x2="38.6" y2="11.5"/>
	<line class="st2" x1="66.1" y1="57.6" x2="64" y2="56.9"/>
	<line class="st2" x1="66.5" y1="56.1" x2="65.1" y2="55.5"/>
	<line class="st2" x1="66.9" y1="54.8" x2="65.1" y2="54.1"/>
	<line class="st2" x1="67.2" y1="53.6" x2="66" y2="53.1"/>
	<line class="st2" x1="67.5" y1="52.4" x2="65.5" y2="51.6"/>
	<line class="st2" x1="67.9" y1="51" x2="66.6" y2="50.5"/>
	<line class="st2" x1="68.8" y1="48" x2="67.5" y2="47.6"/>
	<line class="st2" x1="69.1" y1="46.8" x2="67.1" y2="46.2"/>
	<line class="st2" x1="69.5" y1="45.4" x2="68.2" y2="45"/>
	<line class="st2" x1="69.8" y1="44.1" x2="67.9" y2="43.5"/>
	<line class="st2" x1="70.3" y1="42.8" x2="68.8" y2="42.3"/>
	<line class="st2" x1="70.6" y1="41.6" x2="68.6" y2="40.9"/>
	<line class="st2" x1="70.9" y1="40.5" x2="69.5" y2="40"/>
	<line class="st2" x1="71.2" y1="39.3" x2="69.1" y2="38.7"/>
	<line class="st2" x1="71.9" y1="36.9" x2="70.3" y2="36.5"/>
	<line class="st2" x1="72.2" y1="35.7" x2="70.2" y2="35.1"/>
	<line class="st2" x1="72.6" y1="34.6" x2="71.1" y2="34"/>
	<line class="st2" x1="72.9" y1="33.3" x2="71.1" y2="32.6"/>
	<line class="st2" x1="73.3" y1="31.9" x2="71.9" y2="31.5"/>
	<line class="st2" x1="73.6" y1="30.5" x2="72" y2="29.9"/>
	<line class="st2" x1="73.9" y1="29.2" x2="72.6" y2="28.6"/>
	<line class="st2" x1="74.3" y1="28" x2="72.5" y2="27.2"/>
	<line class="st2" x1="75.2" y1="25.2" x2="73.6" y2="24.6"/>
	<line class="st2" x1="75.5" y1="24" x2="73.4" y2="23"/>
	<line class="st2" x1="75.8" y1="22.8" x2="74.4" y2="22.2"/>
	<line class="st2" x1="76.2" y1="21.6" x2="74.4" y2="20.7"/>
	<line class="st2" x1="76.5" y1="20.3" x2="75.1" y2="19.8"/>
	<line class="st2" x1="76.9" y1="19" x2="74.9" y2="18.4"/>
	<line class="st2" x1="77.2" y1="17.9" x2="75.8" y2="17.5"/>
	<line class="st2" x1="77.6" y1="16.8" x2="75.7" y2="16.1"/>
	<line class="st2" x1="37.1" y1="98.9" x2="35.4" y2="98.6"/>
	<line class="st2" x1="37.1" y1="97.4" x2="34.9" y2="96.9"/>
	<line class="st2" x1="37.3" y1="96" x2="35.6" y2="95.6"/>
	<line class="st2" x1="37.5" y1="94.6" x2="35.4" y2="94.1"/>
	<line class="st2" x1="37.8" y1="93.5" x2="36.5" y2="92.9"/>
	<line class="st2" x1="38.1" y1="92.5" x2="36.4" y2="91.6"/>
	<line class="st2" x1="38.6" y1="91.5" x2="37.5" y2="90.7"/>
	<line class="st2" x1="39.2" y1="90.4" x2="37.6" y2="89.2"/>
	<line class="st2" x1="40.1" y1="89.1" x2="39" y2="88.3"/>
	<line class="st2" x1="41" y1="88.2" x2="39.6" y2="86.9"/>
	<line class="st2" x1="41.8" y1="87.4" x2="40.8" y2="86.2"/>
	<line class="st2" x1="43" y1="86.6" x2="41.6" y2="85.1"/>
	<line class="st2" x1="43.9" y1="86" x2="43.2" y2="84.7"/>
	<line class="st2" x1="44.8" y1="85.6" x2="43.9" y2="84"/>
	<line class="st2" x1="45.9" y1="84.9" x2="45" y2="83.1"/>
	<line class="st2" x1="47.1" y1="84.5" x2="46.6" y2="83.2"/>
	<line class="st2" x1="48.3" y1="84.2" x2="47.4" y2="82.1"/>
	<line class="st2" x1="65.4" y1="136.1" x2="64.7" y2="134"/>
	<line class="st2" x1="64.2" y1="136.6" x2="63.1" y2="133.5"/>
	<line class="st2" x1="62.9" y1="137" x2="62.4" y2="135.1"/>
	<line class="st2" x1="61.8" y1="137.4" x2="61" y2="134.8"/>
	<line class="st2" x1="60.8" y1="137.7" x2="60.1" y2="135.7"/>
	<line class="st2" x1="59.8" y1="138" x2="58.9" y2="135.2"/>
	<line class="st2" x1="58.6" y1="138.4" x2="57.8" y2="136.3"/>
	<line class="st2" x1="57.3" y1="138.7" x2="56.6" y2="136.3"/>
	<line class="st2" x1="56.1" y1="139.1" x2="55.7" y2="137.4"/>
	<line class="st2" x1="54.7" y1="139.4" x2="54.1" y2="137"/>
	<line class="st2" x1="53.3" y1="139.7" x2="52.9" y2="138"/>
	<line class="st2" x1="52.2" y1="139.9" x2="51.6" y2="137.4"/>
	<line class="st2" x1="50.9" y1="140.1" x2="50.5" y2="138.2"/>
	<line class="st2" x1="49.5" y1="140.3" x2="49.1" y2="137.7"/>
	<line class="st2" x1="48.4" y1="140.3" x2="48.2" y2="138.6"/>
	<line class="st2" x1="48.8" y1="81.7" x2="49.3" y2="83.5"/>
	<line class="st2" x1="50.9" y1="83.6" x2="50.5" y2="82.1"/>
	<line class="st2" x1="52.1" y1="83.2" x2="51.6" y2="80.9"/>
	<line class="st2" x1="53.4" y1="83.2" x2="53.1" y2="81.3"/>
	<line class="st2" x1="54.8" y1="82.8" x2="54.2" y2="80.1"/>
	<line class="st2" x1="56.2" y1="82.6" x2="55.9" y2="80.9"/>
	<line class="st2" x1="57.3" y1="82.6" x2="57" y2="80.1"/>
	<line class="st2" x1="58.3" y1="82.2" x2="58.3" y2="81.3"/>
	<line class="st2" x1="47.1" y1="140.3" x2="46.9" y2="138"/>
	<line class="st2" x1="45.6" y1="140.7" x2="45.6" y2="139"/>
	<line class="st2" x1="44.2" y1="140.8" x2="44.2" y2="138.2"/>
	<line class="st2" x1="43" y1="140.8" x2="42.9" y2="139"/>
	<line class="st2" x1="41.8" y1="140.7" x2="41.8" y2="138.4"/>
	<line class="st2" x1="40.4" y1="140.5" x2="40.4" y2="138.9"/>
	<line class="st2" x1="39.2" y1="140.6" x2="39.2" y2="138.7"/>
	<line class="st2" x1="37.8" y1="140.5" x2="38" y2="138.6"/>
	<line class="st2" x1="36.5" y1="139.9" x2="36.6" y2="138.5"/>
	<line class="st2" x1="71.4" y1="137.3" x2="69.4" y2="136.6"/>
	<line class="st2" x1="71.4" y1="138.7" x2="68.9" y2="137.7"/>
	<line class="st2" x1="71.2" y1="140.1" x2="68.9" y2="139.1"/>
	<line class="st2" x1="70.4" y1="141.3" x2="68.9" y2="140.5"/>
	<line class="st2" x1="69.6" y1="142.5" x2="67.9" y2="141.3"/>
	<line class="st2" x1="68.8" y1="143.5" x2="67.2" y2="142.5"/>
	<line class="st2" x1="67.7" y1="144.6" x2="66.1" y2="143.3"/>
	<line class="st2" x1="66.3" y1="145.5" x2="65.4" y2="144.3"/>
	<line class="st2" x1="64.9" y1="146.3" x2="63.9" y2="144.6"/>
	<line class="st2" x1="63.7" y1="147.1" x2="62.9" y2="145.7"/>
	<line class="st2" x1="62.3" y1="147.4" x2="61.4" y2="145.7"/>
	<line class="st2" x1="61" y1="147.7" x2="60.6" y2="146.5"/>
	<line class="st2" x1="59.8" y1="148.3" x2="58.9" y2="146"/>
	<line class="st2" x1="58.6" y1="148.4" x2="58" y2="146.9"/>
	<line class="st2" x1="57.2" y1="148.9" x2="56.7" y2="147.4"/>
	<line class="st2" x1="56.1" y1="148.9" x2="55.6" y2="147.1"/>
	<line class="st2" x1="54.7" y1="149.3" x2="54.4" y2="147.7"/>
	<line class="st2" x1="71" y1="135.7" x2="69.6" y2="135.2"/>
	<line class="st2" x1="70" y1="134" x2="68.9" y2="133.8"/>
	<line class="st2" x1="68.5" y1="132.8" x2="67.2" y2="132.6"/>
	<line class="st2" x1="53.3" y1="149.3" x2="53.1" y2="147.4"/>
	<line class="st2" x1="52.2" y1="149.4" x2="51.9" y2="148.2"/>
	<line class="st2" x1="51.2" y1="149.7" x2="50.9" y2="147.4"/>
</g>
</svg>
