<?xml version="1.0" encoding="utf-8"?>
<!-- Generator: Adobe Illustrator 21.1.0, SVG Export Plug-In . SVG Version: 6.00 Build 0)  -->
<svg version="1.1" id="Calque_1" xmlns="http://www.w3.org/2000/svg" xmlns:xlink="http://www.w3.org/1999/xlink" x="0px" y="0px"
	 viewBox="0 0 82 144" style="enable-background:new 0 0 82 144;" xml:space="preserve">
<style type="text/css">
	.st0{fill:none;stroke:#FFFFFF;stroke-width:0.7965;stroke-linecap:round;stroke-linejoin:round;stroke-miterlimit:10;}
	.st1{fill:none;stroke:#FFFFFF;stroke-width:0.3983;stroke-linecap:round;stroke-linejoin:round;stroke-miterlimit:10;}
	.st2{fill:none;stroke:#FFFFFF;stroke-width:0.7092;stroke-linecap:round;stroke-linejoin:round;stroke-miterlimit:10;}
	.st3{fill:none;stroke:#FFFFFF;stroke-width:0.3928;stroke-linecap:round;stroke-linejoin:round;stroke-miterlimit:10;}
</style>
<g>
	<path class="st0" d="M62.7,66.8c-2.1-16.5,2.6-29.6,7.7-42.5c6.3-1.3,7.5-10.4,0.9-12.3C65,10,61.2,19.3,65.8,22.6
		c-2.3,8.6-13.2,26.4-15,29.5c-3.1,5.4-6.4,4.5-8.2,0.7c-2.2-4.5-5-22.5-4.5-38.3c4.8-3,2.2-11.4-3.7-11.1c-6.7,0.3-7.2,10.5-2.5,12
		c0.8,7.4-1.6,25.5-3.8,30.2"/>
	<path class="st0" d="M29.1,68c-2.3-5.9-1.2-17.6-1.2-19.2c0-1.6-0.1-6.2-2.8-7.5c-3.7-1.8-5.4-2.6-7,1.5c-0.9,2.5-2.6,7.8-1.4,9.9
		c1.2,2.1,7.4,16.1,7.8,17.4c-4.5,5.6,1.2,12.3,6.3,10.5C36.7,78.4,35.6,67.7,29.1,68z"/>
	<path class="st0" d="M18.7,73.1c-2.2-4.6-1.9-13.3-2.1-15.1C16.3,54.9,16,52,13,51.1c-3-0.9-5.5-1.3-6.3,1.6c-1,3.4-1.8,7.7,0,10.1
		c3.6,5,5,11.9,5.5,12.9C8.7,82.2,14.6,87,19,85.6C24.6,83.9,24.5,73.4,18.7,73.1z"/>
	<path class="st0" d="M12.1,83.2c0.6,3.8,13,22.1,14.5,24.3c6.5,9.1,3.7,23.9,2.5,27c10,7.3,25.7,4.3,30.8,0.6
		c-2-4.4-3.7-14.4-3.2-19.4c0.3-3.1,0.2-7.5,3.1-10.3c7.8-7.4,11.5-13.9,12.8-16.1c0.9-1.4,3.2-5,1.4-7.2c-1.7-2.1-5.8-7.8-6.9-11.1
		c-1.3-3.8-4.9-5.8-11.4-2.9c-5-7.7-14.8-4.1-14.8,2.2c0,8.2,11.5,9.9,13.5,3.1c2.8-1.6,5.3,0.1,7.2,2.3c2,2.3,3.1,6.9-0.7,7.6
		c-3.8,0.7-9.7,0.3-11.8,0.5c-3.5,0.3-9.8,2.2-9.7,11"/>
	<line class="st1" x1="57.9" y1="128.6" x2="56.4" y2="127.9"/>
	<line class="st1" x1="58" y1="130.3" x2="56.7" y2="129.5"/>
	<line class="st1" x1="58.9" y1="132.5" x2="57.7" y2="131.7"/>
	<line class="st1" x1="58.8" y1="135.4" x2="57.9" y2="134.1"/>
	<line class="st1" x1="57.9" y1="136.2" x2="56.8" y2="134.5"/>
	<line class="st1" x1="56.4" y1="136.6" x2="55.5" y2="134.8"/>
	<line class="st1" x1="55" y1="136.9" x2="54.4" y2="135.6"/>
	<line class="st1" x1="57.7" y1="127.2" x2="56.2" y2="126.5"/>
	<line class="st1" x1="53.7" y1="137.3" x2="53" y2="135.6"/>
	<line class="st1" x1="52.6" y1="137.7" x2="51.9" y2="136.2"/>
	<line class="st1" x1="51.4" y1="138" x2="50.7" y2="136.1"/>
	<line class="st1" x1="50.1" y1="138.3" x2="49.7" y2="137"/>
	<line class="st1" x1="49" y1="138.6" x2="48.4" y2="136.7"/>
	<line class="st1" x1="47.7" y1="138.7" x2="47.4" y2="137.4"/>
	<line class="st1" x1="46.3" y1="138.6" x2="46" y2="136.7"/>
	<line class="st1" x1="45.1" y1="138.6" x2="44.9" y2="136.9"/>
	<line class="st1" x1="43.9" y1="138.8" x2="43.7" y2="136.7"/>
	<line class="st1" x1="42.6" y1="138.7" x2="42.5" y2="137.4"/>
	<line class="st1" x1="17.2" y1="70.2" x2="15.3" y2="70.2"/>
	<line class="st1" x1="17.2" y1="68.7" x2="15.6" y2="68.7"/>
	<line class="st1" x1="17.2" y1="67.4" x2="15.1" y2="67.3"/>
	<line class="st1" x1="16.7" y1="65.9" x2="15.3" y2="65.9"/>
	<line class="st1" x1="16.6" y1="64.7" x2="15.1" y2="64.7"/>
	<line class="st1" x1="16.5" y1="63.4" x2="15" y2="63.3"/>
	<line class="st1" x1="16.7" y1="61.6" x2="14.2" y2="61.7"/>
	<line class="st1" x1="16.5" y1="60.2" x2="13.5" y2="60.3"/>
	<line class="st1" x1="16.3" y1="59.2" x2="14.2" y2="59.1"/>
	<line class="st1" x1="16.5" y1="57.9" x2="14.4" y2="57.8"/>
	<line class="st1" x1="16.5" y1="56.5" x2="14.4" y2="56.4"/>
	<path class="st2" d="M15.7,57.3"/>
	<line class="st1" x1="28.1" y1="64" x2="26.8" y2="64.1"/>
	<line class="st1" x1="27.6" y1="62.6" x2="25.2" y2="62.8"/>
	<line class="st1" x1="27.5" y1="61.4" x2="25.7" y2="61.5"/>
	<line class="st1" x1="27.6" y1="60" x2="25.6" y2="60.1"/>
	<line class="st1" x1="27.6" y1="58" x2="25.6" y2="58.1"/>
	<line class="st1" x1="27.4" y1="56.8" x2="26" y2="56.9"/>
	<line class="st1" x1="27.8" y1="58.9" x2="26.4" y2="59"/>
	<line class="st1" x1="27.2" y1="55.7" x2="24.7" y2="55.8"/>
	<line class="st1" x1="27.1" y1="54.5" x2="25.4" y2="54.6"/>
	<line class="st1" x1="27.3" y1="53.3" x2="25.1" y2="53.3"/>
	<line class="st1" x1="27.6" y1="52" x2="25.8" y2="52.1"/>
	<line class="st1" x1="62.3" y1="50.3" x2="61" y2="49.8"/>
	<line class="st1" x1="62.9" y1="49.1" x2="61" y2="48.4"/>
	<line class="st1" x1="63" y1="47.8" x2="61.7" y2="47.3"/>
	<line class="st1" x1="63" y1="46.7" x2="61" y2="46.1"/>
	<line class="st1" x1="63.7" y1="44.4" x2="62.2" y2="43.9"/>
	<line class="st1" x1="63.4" y1="45.5" x2="61.9" y2="45"/>
	<line class="st1" x1="64.1" y1="43.2" x2="62.2" y2="42.5"/>
	<line class="st1" x1="64.5" y1="42.1" x2="63.1" y2="41.5"/>
	<line class="st1" x1="64.9" y1="40.9" x2="63.1" y2="40.2"/>
	<line class="st1" x1="65.3" y1="39.5" x2="63.9" y2="39.1"/>
	<line class="st1" x1="65.4" y1="38.2" x2="63.8" y2="37.6"/>
	<line class="st1" x1="66.2" y1="36" x2="64.3" y2="34.9"/>
	<line class="st1" x1="65.9" y1="37" x2="63.9" y2="36"/>
	<line class="st1" x1="66.6" y1="34.8" x2="65.3" y2="34.1"/>
	<line class="st1" x1="67" y1="33.6" x2="65.3" y2="32.7"/>
	<line class="st1" x1="67.4" y1="32.4" x2="66.1" y2="31.8"/>
	<line class="st1" x1="67.8" y1="31.2" x2="65.9" y2="30.5"/>
	<line class="st1" x1="68.1" y1="30.1" x2="66.8" y2="29.6"/>
	<line class="st1" x1="68.5" y1="29" x2="66.7" y2="28.2"/>
	<line class="st3" x1="40.4" y1="44.7" x2="38.5" y2="44.8"/>
	<line class="st3" x1="39.9" y1="43.4" x2="38" y2="43.5"/>
	<line class="st3" x1="39.5" y1="42.2" x2="38.1" y2="42.2"/>
	<line class="st3" x1="38.2" y1="21.4" x2="36.3" y2="21.3"/>
	<line class="st3" x1="37.9" y1="20.1" x2="36" y2="19.9"/>
	<line class="st3" x1="37.7" y1="18.8" x2="36.3" y2="18.7"/>
	<line class="st1" x1="39.6" y1="41.1" x2="37" y2="41.3"/>
	<line class="st1" x1="38.9" y1="38.7" x2="37.3" y2="38.9"/>
	<line class="st1" x1="39.4" y1="39.8" x2="37.4" y2="40"/>
	<line class="st1" x1="38.8" y1="37.5" x2="36.7" y2="37.6"/>
	<line class="st1" x1="38.7" y1="36.3" x2="37.2" y2="36.3"/>
	<line class="st1" x1="38.6" y1="35.1" x2="36.7" y2="35"/>
	<line class="st1" x1="38.5" y1="33.6" x2="37" y2="33.7"/>
	<line class="st1" x1="38.6" y1="32.4" x2="36.3" y2="32.4"/>
	<line class="st1" x1="38" y1="30" x2="35.8" y2="29.8"/>
	<line class="st1" x1="38.1" y1="31.1" x2="35.9" y2="30.9"/>
	<line class="st1" x1="37.9" y1="28.8" x2="36.4" y2="28.6"/>
	<line class="st1" x1="37.8" y1="27.5" x2="35.9" y2="27.3"/>
	<line class="st1" x1="38.1" y1="26.2" x2="36.3" y2="26.2"/>
	<line class="st1" x1="38.2" y1="24.9" x2="35.6" y2="25.1"/>
	<line class="st1" x1="38.1" y1="23.7" x2="36.1" y2="23.8"/>
	<line class="st1" x1="37.9" y1="22.7" x2="35.5" y2="22.6"/>
	<line class="st1" x1="39.2" y1="92.8" x2="37.2" y2="92.3"/>
	<line class="st1" x1="39.6" y1="91.9" x2="38.3" y2="91.3"/>
	<line class="st1" x1="39.3" y1="90.6" x2="37.7" y2="89.8"/>
	<line class="st1" x1="39.9" y1="89.5" x2="38.2" y2="88.5"/>
	<line class="st1" x1="40.6" y1="88.5" x2="39.5" y2="87.7"/>
	<line class="st1" x1="41.2" y1="87.5" x2="39.2" y2="86.3"/>
	<line class="st1" x1="40.5" y1="85.3" x2="41.9" y2="86.5"/>
	<line class="st1" x1="43" y1="85.6" x2="41.9" y2="84.6"/>
	<line class="st1" x1="44" y1="84.7" x2="42.3" y2="83.1"/>
	<line class="st1" x1="45.1" y1="84.4" x2="43.8" y2="83"/>
	<line class="st1" x1="46.8" y1="84.1" x2="44.9" y2="82.2"/>
	<line class="st1" x1="47.9" y1="83.7" x2="46.7" y2="82.5"/>
	<line class="st1" x1="49.4" y1="83.3" x2="47.8" y2="81.5"/>
	<line class="st1" x1="50.3" y1="83.2" x2="49.8" y2="82.4"/>
</g>
</svg>
