<?xml version="1.0" encoding="utf-8"?>
<!-- Generator: Adobe Illustrator 21.1.0, SVG Export Plug-In . SVG Version: 6.00 Build 0)  -->
<svg version="1.1" id="Calque_1" xmlns="http://www.w3.org/2000/svg" xmlns:xlink="http://www.w3.org/1999/xlink" x="0px" y="0px"
	 viewBox="0 0 79 157" style="enable-background:new 0 0 79 157;" xml:space="preserve">
<style type="text/css">
	.st0{fill:none;stroke:#FFFFFF;stroke-width:0.8774;stroke-linecap:round;stroke-linejoin:round;stroke-miterlimit:10;}
	.st1{fill:none;stroke:#FFFFFF;stroke-width:0.4387;stroke-linecap:round;stroke-linejoin:round;stroke-miterlimit:10;}
	.st2{fill:none;stroke:#FFFFFF;stroke-width:0.7812;stroke-linecap:round;stroke-linejoin:round;stroke-miterlimit:10;}
</style>
<g>
	<path class="st0" d="M65.1,22c2.6-7.3,5.1-12.2,9.6-10.4c4.6,1.8,1.6,10,0.1,13.6c-0.5,1.2-1.3,3.1-1.9,2.3c-1-1.4-5.8-2.9-7.4-2.3
		C64.1,25.7,64.5,23.5,65.1,22z"/>
	<path class="st0" d="M64.8,27.8c1.5-0.3,5.4,0.9,6.4,2c1.5,1.6,1.3,3,0.9,4.2c-0.7,2.1-3.1,9.5-3.7,11c-0.7,1.7-1.2,2.4-2,1.9
		c-1-0.7-6.1-2.2-7.6-2.2c-1,0-1.1-0.9-0.7-2.6c0.4-1.8,3.1-9.3,3.7-11.1C62,30,63.2,28.1,64.8,27.8z"/>
	<path class="st0" d="M57.1,47.8c1.1-0.2,6.1,1.2,7.2,2.3c0.6,0.6,1.3,1.7,1,2.9c-0.2,0.6-2.2,8.3-2.5,9.3c-1,3.7-5.7,4.3-7.2,3.7
		c-3.3-1.3-5.6-3.9-3.8-8.5c0.7-1.7,2.7-6.6,3.2-7.9C55.5,48.4,56,48.1,57.1,47.8z"/>
	<path class="st0" d="M28.6,19.3c0.4-8.1,1.4-15.9,6.5-15.4c5.1,0.4,5.1,11.9,4.8,16c-0.1,1.4-0.4,3.5-1.2,2.8
		c-1.4-1.1-6.7-1.2-8.1-0.1C29.3,23.5,28.6,21,28.6,19.3z"/>
	<path class="st0" d="M31.1,44.5c-0.3,0-0.6,0.1-0.7,0.2c-1,0.4-1.4-0.6-1.5-2.4C28.7,40.4,29.2,32,29.3,30c0-1,0.7-3.2,2.1-4
		c1.4-0.8,5.6-0.7,7,0.1c1.9,1.2,2.2,2.6,2.2,3.9C40.4,32.3,40.2,40.4,40,42c-0.2,1.9-0.5,2.8-1.5,2.5
		C37.5,44.2,33.1,44.1,31.1,44.5"/>
	<path class="st0" d="M30.7,47.9c1-0.6,6.5-0.8,7.9-0.1c0.8,0.4,1.9,1.3,1.9,2.6c0,0.7,0.5,8.9,0.5,10.1c0.2,4-4.2,6.1-5.9,6
		c-3.6-0.2-6.8-2.1-6.5-7.2c0.1-1.9,0.5-7.4,0.6-8.8C29.3,49,29.6,48.5,30.7,47.9z"/>
	<path class="st0" d="M65.2,27.6c-0.2-0.7-0.1-1.5,0.1-2.2"/>
	<path class="st0" d="M72.3,27.2c0,0.9-0.8,1.9-1.3,2.3"/>
	<path class="st0" d="M58.1,47.7c-0.3-0.8,0-2.3,0.6-3"/>
	<path class="st0" d="M65.1,46.5c0.2,1-0.7,2.6-1.2,3"/>
	<path class="st0" d="M30.9,26.1c-0.5-0.7-0.9-2.4-0.3-3.5"/>
	<path class="st0" d="M37.3,22.2c0.5,0.7,0.7,2.3,0.3,3.3"/>
	<path class="st0" d="M31.2,47.6c-0.3-0.6-0.4-1.2-0.3-1.9c0-0.3,0.1-0.6,0.2-0.9"/>
	<path class="st0" d="M38.1,44.7c0.2,0.5,0.3,1.1,0.2,1.7c0,0.4-0.1,0.8-0.3,1.1"/>
	<path class="st0" d="M75.9,96.9c-0.9,2-6.6,14.5-13.1,18.2c-9.1,5.2-18.3-1.3-21.8-8.1c-3.6-6.9-2.8-16,4.2-17.5
		c7-1.5,14.4-1,15.4-0.9c1,0.1,2.6,0.3,3.1,1.7c1.6,4.7,8,5.2,9.9,5C75.6,95.2,76.4,95.6,75.9,96.9z"/>
	<path class="st0" d="M75.8,93c-3.1,0.7-8.1-0.8-9.2-2c-0.5-0.5-1-1.3-1.2-2.4c-0.3-1.3-0.6-3.8-0.5-4.6c0-0.6-0.1-2.2,0.5-2.7
		c1.8-1.4,5-7.8,5.1-9.5c0.1-1,1.3,0.1,1.7,0.7c3.4,5.1,5.6,13.3,5.6,18.2C77.8,91.6,76.7,92.8,75.8,93z"/>
	<path class="st0" d="M62.3,68.2c-1.6,0-15.1,0-16.6,0c-1.5,0-2.6,0.5-2.6,1.2c0,9.4,5.2,10.1,7.6,10.7c2.4,0.5,8.5,1.1,9.3,1.1
		c1.3,0,1.8-0.6,2.2-1.1c0.4-0.4,3.9-6.2,2.7-10.3C64.6,69,63.1,68.2,62.3,68.2z"/>
	<path class="st0" d="M28.5,65.6c0.4,1.2,2.2,9.5,2.2,10.8c0.1,1.3,0.7,6.6-3.1,7.7c-3,0.8-5.8-1.9-6.9-4c-1.1-2-3.3-9.8-3.4-10.6
		s-0.3-2,0.5-3c1.3-1.6,7.7-2.8,9.2-2.3C27.7,64.3,28.2,64.5,28.5,65.6z"/>
	<path class="st0" d="M16.9,74c0.8,1,3.5,5.9,4.1,7.1c0.6,1.2,3.1,5.9,0,8.3c-2.5,1.9-6.1,0.4-7.9-1.1c-1.7-1.5-4.6-5.7-5.1-6.4
		c-0.5-0.7-1-1.8-0.6-3c0.6-2,6.1-5.5,7.7-5.6C15.7,73.1,16.2,73.1,16.9,74z"/>
	<path class="st0" d="M27.2,61.7c-2.3-1-7.5,0.3-8.7,1.6c-0.9,0.9-1.7,0.8-2,0c-0.4-0.8-2.1-8.8-2.1-11.2c0-4.5,2.3-6.1,5.3-6.7
		c2.1-0.5,6.5,1.6,6.9,4.9c0.3,2.2,1,7.8,1.1,9.2C27.8,60.9,28.2,62.2,27.2,61.7z"/>
	<path class="st0" d="M15.5,71c-2.5-0.3-7.1,2.2-8,3.7c-0.6,1.1-1.4,1.2-2,0.5c-0.5-0.7-3.6-6.7-4.3-9.1c-1.2-4.4,0.7-6.4,3.4-7.9
		c1.9-1,6.7-0.1,7.9,2.9c0.8,2.1,2.4,6,2.8,7.4C15.8,70,16.6,71.2,15.5,71z"/>
	<path class="st0" d="M15.8,47.2c-0.2-0.5-0.3-1-0.3-1.5c0-2.1,1.7-3.8,3.8-3.8c2.1,0,4.2,2,3.8,4"/>
	<path class="st0" d="M19,65.7c-0.5-0.6-0.7-1.5-0.5-2.3"/>
	<path class="st0" d="M25.4,61.6c0.5,0.6,0.8,1.6,0.6,2.4"/>
	<path class="st0" d="M2,60.1c-0.3-0.5-0.5-1.1-0.5-1.7c0-1.8,1.4-3.2,3.2-3.2c1.6,0,2.9,1.2,3.1,2.7"/>
	<path class="st0" d="M8.7,76.7c-0.6-0.2-1-0.8-1.3-1.6"/>
	<path class="st0" d="M12.6,71.7c0.7,0.6,0.9,0.8,0.9,1.8"/>
	<path class="st0" d="M51.2,68.1c0-0.2-0.1-0.5-0.1-0.7c0-1.2,0.6-2.3,1.4-3"/>
	<path class="st0" d="M58.9,66c0.2,0.4,0.3,0.9,0.3,1.4c0,0.2,0,0.5-0.1,0.7"/>
	<path class="st0" d="M31.5,69.7c-0.6-0.7-1.1-3.2-0.3-4.2"/>
	<path class="st0" d="M38.3,65.5c0.3,0.6,0.7,2,0.4,2.9"/>
	<path class="st0" d="M65.3,71.9c0.4-0.1,0.7-0.2,1.1-0.2c1.5,0,2.7,0.6,3.4,1.8"/>
	<path class="st0" d="M66.4,80c-1,0-2.4-0.7-3.1-1.6"/>
	<path class="st0" d="M65.9,93.1c0.1-0.8,0.2-1.3,0.7-1.9"/>
	<path class="st0" d="M73.9,93.4c0,0.1,0,0.3,0,0.4c0,0.6-0.1,1.1-0.3,1.6"/>
	<path class="st0" d="M8.3,82.8c-7,14.9,12.1,34.5,16.2,36.4c7.9,3.8,21.3,1.2,23.7,0c0.7-0.3,1.4-1-0.4-1.5
		c-4.4-1.2-13.9-10.6-11.9-21.6c1.4-8.1,8.3-11.9,23.6-10.4c1.4,0.1,2.1-0.2,2.2-0.8c0.1-0.5,0.4-5,0.4-5"/>
	<path class="st0" d="M44.4,68.3c-0.6-0.7-2.2-1.1-3.2-0.6c-0.9,0.4-9.5,2.9-11.7,1.8"/>
	<path class="st0" d="M59,120.8c-1.6,0.9-4.8,3.1-8,3.7c-5.6,1.1-14.3,1-22.7-1.8c-1.4-0.5-3.5-0.5-3.8,1.3
		c-0.3,1.8-0.7,17.4-0.7,19.1c0,1.7,0.1,2.4,1.6,3.2c9.7,5.3,18.7,6.7,26.3,4.5c4.1-1.2,7.5-3.1,8.6-3.8c1.2-0.7,2.1-2,2.1-3
		c0-1.1,0-20.9,0-21.7C62.5,121.5,61.5,119.4,59,120.8z"/>
	<path class="st0" d="M54.9,123.2c-2.2-0.3-3.3-2.1-3.3-3.9c0-1,0.4-1.9,1-2.6"/>
	<path class="st0" d="M59,116.9c0.5,0.7,0.8,1.5,0.8,2.4c0,0.4-0.1,0.7-0.1,1.1"/>
	<line class="st0" x1="31.1" y1="123.6" x2="29.8" y2="120.8"/>
	<line class="st0" x1="36.3" y1="124.7" x2="35.5" y2="121.2"/>
	<line class="st0" x1="44.9" y1="125.2" x2="45.2" y2="120.3"/>
	<line class="st0" x1="49.7" y1="124.8" x2="50.7" y2="116"/>
	<line class="st0" x1="57.6" y1="127.9" x2="57.4" y2="141.5"/>
	<line class="st1" x1="37.1" y1="125.1" x2="36.9" y2="127.4"/>
	<line class="st1" x1="38.8" y1="125.3" x2="38.4" y2="127.8"/>
	<line class="st1" x1="40.4" y1="125.5" x2="39.9" y2="127.5"/>
	<line class="st1" x1="41.9" y1="125.6" x2="41.5" y2="128.3"/>
	<line class="st1" x1="43.5" y1="125.6" x2="43.3" y2="127.5"/>
	<line class="st1" x1="45.2" y1="125.6" x2="45.2" y2="128.3"/>
	<line class="st1" x1="46.8" y1="125.5" x2="46.7" y2="127.6"/>
	<line class="st1" x1="48" y1="125.4" x2="48.1" y2="127.8"/>
	<line class="st1" x1="49.2" y1="125" x2="49.4" y2="127.8"/>
	<line class="st1" x1="50.4" y1="124.8" x2="50.8" y2="127.7"/>
	<line class="st1" x1="51.7" y1="124.4" x2="52.1" y2="126.3"/>
	<line class="st1" x1="53.1" y1="124" x2="53.4" y2="126.6"/>
	<line class="st1" x1="54.5" y1="125.5" x2="54.4" y2="123.9"/>
	<line class="st1" x1="55.7" y1="123" x2="55.8" y2="125.3"/>
	<line class="st1" x1="57" y1="122.3" x2="57.1" y2="124.9"/>
	<line class="st1" x1="58.2" y1="121.8" x2="58.2" y2="123.8"/>
	<line class="st1" x1="59.7" y1="120.9" x2="59.9" y2="123.3"/>
	<line class="st1" x1="61" y1="120.7" x2="61" y2="122.6"/>
	<line class="st1" x1="62.4" y1="141.2" x2="60.8" y2="140.4"/>
	<line class="st1" x1="62.5" y1="143.1" x2="61.1" y2="142.3"/>
	<line class="st1" x1="62.1" y1="144.8" x2="60.7" y2="144"/>
	<line class="st1" x1="61" y1="146.2" x2="60" y2="144.8"/>
	<line class="st1" x1="59.6" y1="147.4" x2="58.4" y2="145.5"/>
	<line class="st1" x1="57.7" y1="147.9" x2="56.7" y2="145.9"/>
	<line class="st1" x1="56.2" y1="148.8" x2="55.6" y2="147.4"/>
	<line class="st1" x1="62.4" y1="139.7" x2="60.5" y2="138.9"/>
	<line class="st1" x1="54.9" y1="149.6" x2="54" y2="147.8"/>
	<line class="st1" x1="53.5" y1="149.8" x2="52.8" y2="148.1"/>
	<line class="st1" x1="52" y1="150.4" x2="51.3" y2="148.3"/>
	<line class="st1" x1="50.9" y1="150.8" x2="50.4" y2="149.4"/>
	<line class="st1" x1="49.5" y1="151.1" x2="48.8" y2="149"/>
	<line class="st1" x1="48" y1="151.2" x2="47.7" y2="149.8"/>
	<line class="st1" x1="47" y1="151.5" x2="46.6" y2="149.3"/>
	<line class="st1" x1="45.5" y1="151.6" x2="45.3" y2="149.8"/>
	<line class="st1" x1="44" y1="151.5" x2="43.8" y2="149.2"/>
	<line class="st1" x1="41.4" y1="151.5" x2="41.3" y2="149.8"/>
	<line class="st1" x1="40.2" y1="151.2" x2="40.1" y2="148.9"/>
	<line class="st1" x1="38.9" y1="151.4" x2="38.9" y2="149.8"/>
	<line class="st1" x1="37.3" y1="151" x2="37.5" y2="149.1"/>
	<line class="st1" x1="36" y1="150.5" x2="36.4" y2="148.3"/>
	<line class="st1" x1="34.7" y1="150.1" x2="35.1" y2="148.4"/>
	<line class="st1" x1="21.9" y1="84" x2="19.9" y2="84.8"/>
	<line class="st1" x1="21.8" y1="82.4" x2="19.7" y2="83"/>
	<line class="st1" x1="20.9" y1="81.1" x2="18.7" y2="81.8"/>
	<line class="st1" x1="19.8" y1="79.8" x2="18.4" y2="80.2"/>
	<line class="st1" x1="19.3" y1="78.6" x2="17.7" y2="79"/>
	<line class="st1" x1="18.7" y1="77.2" x2="17.2" y2="77.6"/>
	<line class="st1" x1="17.6" y1="75.5" x2="15.8" y2="76.2"/>
	<line class="st1" x1="16.9" y1="74.2" x2="14.6" y2="75.1"/>
	<line class="st1" x1="14.8" y1="68.3" x2="12.5" y2="68.9"/>
	<line class="st1" x1="14.6" y1="66.8" x2="12.3" y2="67.5"/>
	<line class="st1" x1="14.1" y1="65.3" x2="11.9" y2="66"/>
	<path class="st2" d="M13.5,66.3"/>
	<line class="st1" x1="13.7" y1="63.8" x2="11.9" y2="64.1"/>
	<line class="st1" x1="13" y1="62.3" x2="10.4" y2="62.8"/>
	<line class="st1" x1="11.9" y1="61.2" x2="10" y2="61.5"/>
	<line class="st1" x1="11.6" y1="59.8" x2="9.5" y2="60.2"/>
	<line class="st1" x1="30.5" y1="79.6" x2="29" y2="79.9"/>
	<line class="st1" x1="30.7" y1="78.2" x2="28.1" y2="78.6"/>
	<line class="st1" x1="30.4" y1="76.9" x2="28.4" y2="77.2"/>
	<line class="st1" x1="30.4" y1="75.3" x2="28.2" y2="75.7"/>
	<line class="st1" x1="30.1" y1="73.1" x2="27.9" y2="73.5"/>
	<line class="st1" x1="29.8" y1="71.9" x2="28.3" y2="72.1"/>
	<line class="st1" x1="30.5" y1="74.1" x2="29" y2="74.3"/>
	<line class="st1" x1="29.4" y1="70.6" x2="26.8" y2="71"/>
	<line class="st1" x1="29.2" y1="69.3" x2="27.3" y2="69.6"/>
	<line class="st1" x1="29.3" y1="68" x2="26.9" y2="68.3"/>
	<line class="st1" x1="28.3" y1="66.6" x2="26.2" y2="66.9"/>
	<line class="st1" x1="27.5" y1="59.3" x2="25.6" y2="59.4"/>
	<line class="st1" x1="27.3" y1="57.9" x2="24.8" y2="58.1"/>
	<line class="st1" x1="27.1" y1="56.6" x2="25.4" y2="56.7"/>
	<line class="st1" x1="27" y1="55.2" x2="24.6" y2="55.4"/>
	<line class="st1" x1="27" y1="53.9" x2="24.6" y2="54.1"/>
	<line class="st1" x1="26.7" y1="52.1" x2="24.9" y2="52.3"/>
	<line class="st1" x1="26.4" y1="50.7" x2="23.8" y2="50.9"/>
	<line class="st1" x1="26.1" y1="49.3" x2="24.2" y2="49.5"/>
	<line class="st1" x1="25.5" y1="47.7" x2="23.6" y2="47.9"/>
	<line class="st1" x1="40.6" y1="59.9" x2="38.4" y2="59.7"/>
	<line class="st1" x1="40.8" y1="58.5" x2="38" y2="58.3"/>
	<line class="st1" x1="40.5" y1="56.8" x2="38.3" y2="56.6"/>
	<line class="st1" x1="40.6" y1="55.4" x2="37.9" y2="55.2"/>
	<line class="st1" x1="40.5" y1="54" x2="39.1" y2="53.9"/>
	<line class="st1" x1="40.4" y1="52.6" x2="38.4" y2="52.5"/>
	<line class="st1" x1="40" y1="51.2" x2="37.2" y2="51"/>
	<line class="st1" x1="39.6" y1="42.6" x2="37.6" y2="42.5"/>
	<line class="st1" x1="39.7" y1="41.2" x2="37.1" y2="41"/>
	<line class="st1" x1="40" y1="39.9" x2="38.2" y2="39.8"/>
	<line class="st1" x1="39.9" y1="38.5" x2="38.3" y2="38.4"/>
	<line class="st1" x1="40.2" y1="36" x2="38.6" y2="35.8"/>
	<line class="st1" x1="40.4" y1="37.2" x2="38.8" y2="37.1"/>
	<line class="st1" x1="40.2" y1="34.8" x2="38" y2="34.6"/>
	<line class="st1" x1="40.2" y1="33.5" x2="38.6" y2="33.4"/>
	<line class="st1" x1="40" y1="32.4" x2="38.2" y2="32.2"/>
	<line class="st1" x1="40.4" y1="31.1" x2="38.5" y2="30.9"/>
	<line class="st1" x1="40.3" y1="29.6" x2="37.9" y2="29.4"/>
	<line class="st1" x1="40" y1="28.1" x2="38.2" y2="28"/>
	<line class="st1" x1="39.6" y1="20.3" x2="38.2" y2="20.2"/>
	<line class="st1" x1="40" y1="19" x2="37.6" y2="18.9"/>
	<line class="st1" x1="39.7" y1="17.8" x2="38" y2="17.7"/>
	<line class="st1" x1="39.8" y1="16.5" x2="38.5" y2="16.4"/>
	<line class="st1" x1="39.8" y1="15.2" x2="37.8" y2="15"/>
	<line class="st1" x1="39.9" y1="13.9" x2="38.4" y2="13.8"/>
	<line class="st1" x1="39.7" y1="12.7" x2="37.7" y2="12.5"/>
	<line class="st1" x1="39.5" y1="11.3" x2="37.9" y2="11.1"/>
	<line class="st1" x1="39.4" y1="10" x2="38" y2="9.9"/>
	<line class="st1" x1="63.1" y1="61.4" x2="60.9" y2="60.6"/>
	<line class="st1" x1="63.6" y1="59.9" x2="62" y2="59.2"/>
	<line class="st1" x1="64" y1="58.5" x2="62.1" y2="57.7"/>
	<line class="st1" x1="63.9" y1="56.9" x2="63.1" y2="56.6"/>
	<line class="st1" x1="64.4" y1="55.7" x2="62.7" y2="55"/>
	<line class="st1" x1="64.9" y1="54.2" x2="63.9" y2="53.8"/>
	<line class="st1" x1="68.2" y1="45.6" x2="66.6" y2="45.1"/>
	<line class="st1" x1="68.6" y1="44.4" x2="66.5" y2="43.6"/>
	<line class="st1" x1="68.9" y1="43.2" x2="67.5" y2="42.6"/>
	<line class="st1" x1="69.3" y1="42" x2="67.1" y2="41.3"/>
	<line class="st1" x1="70.2" y1="39.4" x2="68.5" y2="38.9"/>
	<line class="st1" x1="69.8" y1="40.6" x2="68.1" y2="40.1"/>
	<line class="st1" x1="70.6" y1="38.1" x2="68.4" y2="37.3"/>
	<line class="st1" x1="71" y1="36.9" x2="69.4" y2="36.3"/>
	<line class="st1" x1="71.4" y1="35.6" x2="69.5" y2="34.8"/>
	<line class="st1" x1="71.8" y1="34.1" x2="70.3" y2="33.5"/>
	<line class="st1" x1="72.3" y1="32.6" x2="70.6" y2="31.8"/>
	<line class="st1" x1="74.5" y1="25.6" x2="72.3" y2="24.5"/>
	<line class="st1" x1="75" y1="24.4" x2="73.5" y2="23.6"/>
	<line class="st1" x1="75.4" y1="23" x2="73.5" y2="22"/>
	<line class="st1" x1="75.8" y1="21.7" x2="74.3" y2="21"/>
	<line class="st1" x1="76.2" y1="20.3" x2="74.2" y2="19.6"/>
	<line class="st1" x1="76.6" y1="19.1" x2="75.2" y2="18.6"/>
	<line class="st1" x1="77.1" y1="18" x2="75.1" y2="17.1"/>
	<line class="st1" x1="41.9" y1="114" x2="40.5" y2="115.2"/>
	<line class="st1" x1="40.6" y1="113" x2="38.7" y2="114.6"/>
	<line class="st1" x1="39.9" y1="111.7" x2="38.6" y2="112.9"/>
	<line class="st1" x1="38.9" y1="110.5" x2="37.1" y2="112"/>
	<line class="st1" x1="38.7" y1="109.6" x2="37.4" y2="110.4"/>
	<line class="st1" x1="37.7" y1="108.7" x2="35.8" y2="109.5"/>
	<line class="st1" x1="37.3" y1="107.6" x2="35.9" y2="108.1"/>
	<line class="st1" x1="36.8" y1="106.3" x2="34.8" y2="107"/>
	<line class="st1" x1="36" y1="104.8" x2="34.6" y2="105.3"/>
	<line class="st1" x1="36" y1="103.5" x2="34" y2="103.9"/>
	<line class="st1" x1="35.7" y1="102.5" x2="34" y2="102.7"/>
	<line class="st1" x1="35.5" y1="101" x2="33.3" y2="101.2"/>
	<line class="st1" x1="35.4" y1="99.9" x2="33.8" y2="99.7"/>
	<line class="st1" x1="35.3" y1="98.7" x2="33.4" y2="98.4"/>
	<line class="st1" x1="35.5" y1="97.4" x2="33.4" y2="96.9"/>
	<line class="st1" x1="35.9" y1="96.1" x2="34.5" y2="95.7"/>
	<line class="st1" x1="36.1" y1="94.8" x2="33.6" y2="94.3"/>
	<line class="st1" x1="34.6" y1="92.8" x2="36.5" y2="93.5"/>
	<line class="st1" x1="37.3" y1="92.2" x2="35.7" y2="91.5"/>
	<line class="st1" x1="38" y1="90.9" x2="35.7" y2="89.8"/>
	<line class="st1" x1="38.8" y1="89.7" x2="37" y2="88.8"/>
	<line class="st1" x1="39.9" y1="88.5" x2="37.2" y2="87.2"/>
	<line class="st1" x1="40.7" y1="87.6" x2="39" y2="86.8"/>
	<line class="st1" x1="42.2" y1="87" x2="39.9" y2="85.7"/>
	<line class="st1" x1="43.5" y1="86.4" x2="42.6" y2="85.8"/>
</g>
</svg>
