<?xml version="1.0" encoding="utf-8"?>
<!-- Generator: Adobe Illustrator 21.1.0, SVG Export Plug-In . SVG Version: 6.00 Build 0)  -->
<svg version="1.1" id="Calque_1" xmlns="http://www.w3.org/2000/svg" xmlns:xlink="http://www.w3.org/1999/xlink" x="0px" y="0px"
	 viewBox="0 0 330 440" style="enable-background:new 0 0 330 440;" xml:space="preserve">
<style type="text/css">
	.st0{fill:none;stroke:#FFFFFF;stroke-width:2.5068;stroke-linecap:round;stroke-linejoin:round;stroke-miterlimit:10;}
	.st1{fill:none;stroke:#FFFFFF;stroke-width:1.2534;stroke-linecap:round;stroke-linejoin:round;stroke-miterlimit:10;}
	.st2{fill:none;stroke:#FFFFFF;stroke-width:2.232;stroke-linecap:round;stroke-linejoin:round;stroke-miterlimit:10;}
</style>
<g>
	<path class="st0" d="M101.7,59.3c-7.4-20.8-14.4-34.8-27.5-29.6c-13,5.1-4.4,28.5-0.3,38.9c1.4,3.5,3.8,8.8,5.4,6.5
		c2.8-4,16.7-8.4,21.3-6.6C104.6,69.9,103.2,63.7,101.7,59.3z"/>
	<path class="st0" d="M102.6,75.9c-4.2-0.9-15.4,2.5-18.2,5.6c-4.1,4.5-3.8,8.7-2.7,11.9c2.1,6.1,8.9,27,10.6,31.3
		c1.9,4.8,3.5,7,5.8,5.5c2.9-1.9,17.4-6.4,21.7-6.2c2.9,0.1,3.1-2.6,2-7.3c-1.2-5.1-8.9-26.6-10.6-31.8
		C110.4,82.2,107,76.9,102.6,75.9z"/>
	<path class="st0" d="M124.4,133.1c-3.2-0.7-17.5,3.5-20.6,6.4c-1.8,1.7-3.7,4.9-2.8,8.3c0.5,1.8,6.3,23.7,7.2,26.7
		c3,10.6,16.2,12.3,20.6,10.6c9.3-3.7,15.9-11.2,10.7-24.2c-1.9-4.9-7.6-18.8-9.1-22.5C129,134.7,127.7,133.8,124.4,133.1z"/>
	<path class="st0" d="M205.8,51.5c-1.2-23-4-45.3-18.6-44.1c-14.5,1.3-14.7,34.1-13.7,45.8c0.3,3.9,1.2,9.9,3.5,8.1
		c4-3.2,19.2-3.4,23.2-0.3C203.8,63.7,206.1,56.3,205.8,51.5z"/>
	<path class="st0" d="M198.9,123.5c0.9,0.1,1.6,0.3,2.1,0.5c2.9,1,3.9-1.7,4.2-6.7c0.3-5.5-1-29.2-1.1-35c-0.1-3-1.9-9.3-6-11.5
		c-4-2.2-16.1-2.1-19.9,0.2c-5.5,3.3-6.4,7.6-6.2,11.1c0.3,6.7,0.9,29.7,1.3,34.5c0.5,5.4,1.4,8,4.2,7.2
		C180.6,122.9,193,122.5,198.9,123.5"/>
	<path class="st0" d="M199.9,133.4c-3-1.7-18.5-2.2-22.5-0.2c-2.4,1.1-5.3,3.7-5.4,7.4c-0.1,2-1.3,25.5-1.5,28.8
		c-0.5,11.5,12.1,17.5,17,17.2c10.4-0.6,19.3-6,18.4-20.6c-0.3-5.5-1.5-21.1-1.8-25.3C204,136.4,202.9,135.1,199.9,133.4z"/>
	<path class="st0" d="M101.3,75.3c0.5-2,0.4-4.2-0.4-6.3"/>
	<path class="st0" d="M81.1,74.1c0,2.5,2.4,5.5,3.6,6.5"/>
	<path class="st0" d="M121.5,132.7c0.9-2.3,0-6.5-1.7-8.6"/>
	<path class="st0" d="M101.5,129.4c-0.7,3,2,7.3,3.6,8.4"/>
	<path class="st0" d="M199.4,70.9c1.5-2,2.4-6.9,0.8-10"/>
	<path class="st0" d="M181.1,59.9c-1.5,2-2,6.5-0.8,9.4"/>
	<path class="st0" d="M198.6,132.3c0.7-1.6,1.1-3.4,0.9-5.3c-0.1-0.9-0.3-1.8-0.6-2.7"/>
	<path class="st0" d="M178.9,124c-0.6,1.5-0.8,3.1-0.7,4.8c0.1,1.1,0.4,2.2,0.8,3.2"/>
	<path class="st0" d="M70.9,273.4c2.6,5.8,18.9,41.5,37.3,52.1c25.9,14.9,52.2-3.8,62.3-23.1c10.4-19.7,7.9-45.6-12.1-49.9
		c-20.1-4.3-41.2-2.8-44.1-2.5c-2.9,0.4-7.5,0.9-8.7,4.8c-4.5,13.5-22.9,15-28.4,14.3C71.6,268.3,69.2,269.6,70.9,273.4z"/>
	<path class="st0" d="M71.1,262.1c9,2,23.1-2.2,26.4-5.7c1.4-1.5,2.9-3.6,3.5-6.8c0.8-3.8,1.6-10.8,1.4-13.2
		c-0.1-1.7,0.2-6.4-1.5-7.7c-5.1-4.1-14.4-22.2-14.7-27.2c-0.2-2.8-3.8,0.3-4.8,1.9c-9.6,14.5-16.1,37.9-16,52.1
		C65.5,258.3,68.5,261.5,71.1,262.1z"/>
	<path class="st0" d="M109.6,191.3c4.6,0,43.2-0.1,47.5-0.1c4.3,0,7.4,1.5,7.4,3.3c0.1,26.8-14.8,28.9-21.7,30.5
		c-6.9,1.5-24.2,3.2-26.5,3.2c-3.7,0-5.2-1.8-6.3-3.1c-1-1.3-11.2-17.7-7.7-29.4C103.1,193.5,107.3,191.3,109.6,191.3z"/>
	<path class="st0" d="M206.1,183.8c-1.1,3.5-6.2,27.1-6.4,30.9c-0.2,3.8-2,18.9,8.9,21.9c8.6,2.3,16.7-5.5,19.7-11.3
		c3-5.8,9.3-27.9,9.8-30.3c0.5-2.4,0.7-5.8-1.5-8.6c-3.8-4.7-22-7.9-26.3-6.7C208.4,180.3,207,180.7,206.1,183.8z"/>
	<path class="st0" d="M239.4,207.8c-2.3,2.8-10,16.7-11.6,20.2c-1.6,3.4-9,16.8,0.1,23.7c7.1,5.4,17.5,1.2,22.5-3.1
		c5-4.3,13.2-16.3,14.5-18.3c1.4-2,2.8-5.1,1.8-8.5c-1.8-5.8-17.4-15.6-21.9-16.1C242.9,205.4,241.5,205.3,239.4,207.8z"/>
	<path class="st0" d="M210.1,172.9c6.6-2.7,21.4,0.9,24.8,4.5c2.6,2.7,4.8,2.3,5.8,0c1-2.3,6-25.1,6-32.1c0.1-13-6.6-17.3-15.2-19.2
		c-6.1-1.3-18.5,4.6-19.7,13.9c-0.8,6.3-3,22.3-3.2,26.4C208.3,170.4,207.1,174.1,210.1,172.9z"/>
	<path class="st0" d="M243.4,199.3c7.1-1,20.4,6.3,22.8,10.7c1.8,3.2,4.1,3.4,5.6,1.5c1.6-1.9,10.4-19.2,12.2-25.9
		c3.4-12.6-2-18.4-9.8-22.4c-5.5-2.8-19-0.3-22.6,8.4c-2.4,5.9-6.8,17.2-8.1,21.1C242.4,196.4,240.2,199.8,243.4,199.3z"/>
	<path class="st0" d="M242.5,131.3c0.5-1.3,0.8-2.7,0.8-4.2c0-6-4.9-10.8-10.8-10.8c-6,0-12.1,5.7-10.8,11.6"/>
	<path class="st0" d="M233.4,184c1.3-1.8,2.1-4.4,1.4-6.7"/>
	<path class="st0" d="M215,172.4c-1.3,1.8-2.3,4.5-1.8,6.7"/>
	<path class="st0" d="M281.9,168.1c0.9-1.4,1.4-3.1,1.4-4.9c0-5-4.1-9.1-9.1-9.1c-4.5,0-8.3,3.3-9,7.6"/>
	<path class="st0" d="M262.7,215.5c1.8-0.7,2.9-2.2,3.7-4.6"/>
	<path class="st0" d="M251.6,201.2c-1.9,1.7-2.6,2.3-2.6,5"/>
	<path class="st0" d="M141.2,191c0.1-0.7,0.2-1.3,0.2-2c0-3.5-1.6-6.6-4.1-8.7"/>
	<path class="st0" d="M119.4,185c-0.5,1.2-0.7,2.6-0.7,4c0,0.7,0.1,1.3,0.2,2"/>
	<path class="st0" d="M197.6,195.5c1.7-2,3-9,0.8-12.1"/>
	<path class="st0" d="M178.3,183.6c-0.8,1.6-2.1,5.7-1.3,8.3"/>
	<path class="st0" d="M101.1,201.8c-1-0.3-2.1-0.5-3.2-0.5c-4.4,0-7.8,1.6-9.7,5.3"/>
	<path class="st0" d="M97.9,225.1c2.8,0,6.8-2,9-4.6"/>
	<path class="st0" d="M99.3,262.6c-0.2-2.4-0.7-3.6-2.1-5.4"/>
	<path class="st0" d="M76.5,263.2c0,0.4-0.1,0.8-0.1,1.2c0,1.6,0.3,3.1,0.9,4.5"/>
	<path class="st0" d="M264.1,233c20,42.4-34.7,98.5-46.4,104.1c-22.6,10.9-60.8,3.6-67.9,0.1c-1.9-0.9-4-3,1.2-4.4
		c12.6-3.5,39.7-30.2,34.1-61.6c-4.1-23.2-23.6-34.1-67.5-29.8c-3.9,0.4-6.1-0.6-6.3-2.2c-0.2-1.5-1.2-14.2-1.2-14.2"/>
	<path class="st0" d="M160.9,191.7c1.6-2.1,6.3-3,9-1.8s27,8.3,33.5,5.1"/>
	<path class="st0" d="M118.9,341.7c4.5,2.5,13.6,8.8,22.8,10.7c15.9,3.3,40.8,2.9,64.9-5.2c4.1-1.4,10.1-1.4,10.9,3.6
		c0.8,5,1.9,49.8,1.9,54.6c-0.1,4.8-0.4,7-4.5,9.2c-27.7,15.1-53.5,19.1-75,12.7c-11.7-3.5-21.3-8.9-24.7-10.9
		c-3.4-2-5.9-5.6-5.9-8.7s-0.1-59.6-0.1-61.9C109.2,343.7,111.9,337.7,118.9,341.7z"/>
	<path class="st0" d="M130.9,348.5c6.4-0.9,9.5-6,9.5-11.3c0-2.9-1-5.5-2.8-7.6"/>
	<path class="st0" d="M119,330.4c-1.4,1.9-2.2,4.3-2.2,6.8c0,1.1,0.2,2.1,0.4,3.1"/>
	<line class="st0" x1="198.7" y1="349.5" x2="202.5" y2="341.6"/>
	<line class="st0" x1="183.8" y1="352.7" x2="186.3" y2="342.8"/>
	<line class="st0" x1="159.5" y1="354.3" x2="158.4" y2="340.3"/>
	<line class="st0" x1="145.6" y1="353.1" x2="142.8" y2="327.9"/>
	<line class="st0" x1="122.9" y1="361.9" x2="123.7" y2="400.6"/>
	<line class="st1" x1="181.7" y1="353.9" x2="182.3" y2="360.4"/>
	<line class="st1" x1="176.8" y1="354.6" x2="177.8" y2="361.7"/>
	<line class="st1" x1="172.3" y1="355.2" x2="173.6" y2="360.9"/>
	<line class="st1" x1="168" y1="355.2" x2="169" y2="363.2"/>
	<line class="st1" x1="163.4" y1="355.2" x2="163.8" y2="360.7"/>
	<line class="st1" x1="158.5" y1="355.2" x2="158.5" y2="363"/>
	<line class="st1" x1="154" y1="355" x2="154.2" y2="361"/>
	<line class="st1" x1="150.4" y1="354.7" x2="150.2" y2="361.7"/>
	<line class="st1" x1="147" y1="353.7" x2="146.4" y2="361.6"/>
	<line class="st1" x1="143.7" y1="353.1" x2="142.4" y2="361.4"/>
	<line class="st1" x1="139.9" y1="351.8" x2="138.6" y2="357.2"/>
	<line class="st1" x1="135.9" y1="350.7" x2="135.1" y2="358.1"/>
	<line class="st1" x1="132" y1="355" x2="132.2" y2="350.6"/>
	<line class="st1" x1="128.5" y1="347.9" x2="128.2" y2="354.4"/>
	<line class="st1" x1="124.7" y1="346" x2="124.5" y2="353.3"/>
	<line class="st1" x1="121.4" y1="344.4" x2="121.4" y2="350.3"/>
	<line class="st1" x1="117.1" y1="341.8" x2="116.6" y2="348.8"/>
	<line class="st1" x1="113.3" y1="341.2" x2="113.3" y2="346.7"/>
	<line class="st1" x1="109.5" y1="399.9" x2="114.1" y2="397.6"/>
	<line class="st1" x1="109" y1="405.4" x2="113.1" y2="402.9"/>
	<line class="st1" x1="110.3" y1="410.3" x2="114.1" y2="407.8"/>
	<line class="st1" x1="113.3" y1="414.3" x2="116.2" y2="410.1"/>
	<line class="st1" x1="117.2" y1="417.7" x2="120.7" y2="412.2"/>
	<line class="st1" x1="122.8" y1="419.2" x2="125.5" y2="413.3"/>
	<line class="st1" x1="126.9" y1="421.6" x2="128.7" y2="417.6"/>
	<line class="st1" x1="109.3" y1="395.7" x2="114.7" y2="393.4"/>
	<line class="st1" x1="130.8" y1="424" x2="133.3" y2="418.7"/>
	<line class="st1" x1="134.7" y1="424.5" x2="136.8" y2="419.6"/>
	<line class="st1" x1="139.1" y1="426.2" x2="141.2" y2="420.1"/>
	<line class="st1" x1="142.3" y1="427.3" x2="143.5" y2="423.3"/>
	<line class="st1" x1="146.3" y1="428.3" x2="148.1" y2="422.3"/>
	<line class="st1" x1="150.4" y1="428.5" x2="151.3" y2="424.4"/>
	<line class="st1" x1="153.5" y1="429.2" x2="154.4" y2="423"/>
	<line class="st1" x1="157.6" y1="429.6" x2="158.2" y2="424.4"/>
	<line class="st1" x1="161.9" y1="429.2" x2="162.5" y2="422.8"/>
	<line class="st1" x1="169.5" y1="429.2" x2="169.6" y2="424.3"/>
	<line class="st1" x1="172.9" y1="428.5" x2="173" y2="421.9"/>
	<line class="st1" x1="176.6" y1="429" x2="176.5" y2="424.4"/>
	<line class="st1" x1="181.1" y1="427.7" x2="180.4" y2="422.4"/>
	<line class="st1" x1="184.7" y1="426.4" x2="183.6" y2="420.1"/>
	<line class="st1" x1="188.4" y1="425.2" x2="187.5" y2="420.5"/>
	<line class="st1" x1="225.1" y1="236.5" x2="230.8" y2="238.6"/>
	<line class="st1" x1="225.2" y1="231.8" x2="231.4" y2="233.7"/>
	<line class="st1" x1="227.9" y1="228.3" x2="234.3" y2="230.1"/>
	<line class="st1" x1="231.1" y1="224.3" x2="235" y2="225.7"/>
	<line class="st1" x1="232.6" y1="220.9" x2="236.9" y2="222.2"/>
	<line class="st1" x1="234.2" y1="216.9" x2="238.6" y2="218.2"/>
	<line class="st1" x1="237.4" y1="212.2" x2="242.5" y2="214.1"/>
	<line class="st1" x1="239.4" y1="208.4" x2="246.1" y2="210.9"/>
	<line class="st1" x1="245.4" y1="191.5" x2="251.8" y2="193.4"/>
	<line class="st1" x1="246" y1="187.4" x2="252.4" y2="189.3"/>
	<line class="st1" x1="247.3" y1="183.1" x2="253.7" y2="184.9"/>
	<path class="st2" d="M249,186"/>
	<line class="st1" x1="248.6" y1="178.8" x2="253.7" y2="179.7"/>
	<line class="st1" x1="250.5" y1="174.6" x2="257.9" y2="175.9"/>
	<line class="st1" x1="253.5" y1="171.2" x2="259" y2="172.2"/>
	<line class="st1" x1="254.5" y1="167.3" x2="260.6" y2="168.3"/>
	<line class="st1" x1="200.6" y1="224" x2="204.8" y2="224.8"/>
	<line class="st1" x1="199.9" y1="219.8" x2="207.4" y2="221.1"/>
	<line class="st1" x1="200.8" y1="216.1" x2="206.4" y2="217"/>
	<line class="st1" x1="200.8" y1="211.7" x2="207" y2="212.6"/>
	<line class="st1" x1="201.6" y1="205.3" x2="207.9" y2="206.3"/>
	<line class="st1" x1="202.5" y1="201.8" x2="206.8" y2="202.6"/>
	<line class="st1" x1="200.5" y1="208" x2="204.8" y2="208.8"/>
	<line class="st1" x1="203.5" y1="198.3" x2="211.2" y2="199.4"/>
	<line class="st1" x1="204.1" y1="194.5" x2="209.7" y2="195.3"/>
	<line class="st1" x1="203.8" y1="190.6" x2="210.8" y2="191.6"/>
	<line class="st1" x1="206.9" y1="186.9" x2="212.7" y2="187.7"/>
	<line class="st1" x1="209" y1="165.8" x2="214.5" y2="166.2"/>
	<line class="st1" x1="209.7" y1="161.8" x2="216.9" y2="162.3"/>
	<line class="st1" x1="210.2" y1="158.2" x2="215.1" y2="158.5"/>
	<line class="st1" x1="210.5" y1="154.2" x2="217.4" y2="154.7"/>
	<line class="st1" x1="210.5" y1="150.5" x2="217.5" y2="151"/>
	<line class="st1" x1="211.3" y1="145.4" x2="216.6" y2="145.8"/>
	<line class="st1" x1="212.2" y1="141.4" x2="219.5" y2="142"/>
	<line class="st1" x1="213.1" y1="137.4" x2="218.6" y2="137.8"/>
	<line class="st1" x1="214.7" y1="132.9" x2="220.3" y2="133.3"/>
	<line class="st1" x1="171.5" y1="167.6" x2="177.8" y2="167.1"/>
	<line class="st1" x1="171" y1="163.7" x2="179.2" y2="163.1"/>
	<line class="st1" x1="171.9" y1="158.6" x2="178.2" y2="158.2"/>
	<line class="st1" x1="171.7" y1="154.8" x2="179.5" y2="154.3"/>
	<line class="st1" x1="171.8" y1="150.8" x2="176" y2="150.5"/>
	<line class="st1" x1="172.2" y1="146.8" x2="178" y2="146.3"/>
	<line class="st1" x1="173.4" y1="142.6" x2="181.4" y2="142.1"/>
	<line class="st1" x1="174.6" y1="118.2" x2="180.2" y2="117.8"/>
	<line class="st1" x1="174.1" y1="114" x2="181.7" y2="113.5"/>
	<line class="st1" x1="173.3" y1="110.4" x2="178.6" y2="110"/>
	<line class="st1" x1="173.8" y1="106.4" x2="178.2" y2="106.1"/>
	<line class="st1" x1="172.7" y1="99.2" x2="177.3" y2="98.9"/>
	<line class="st1" x1="172.3" y1="102.8" x2="176.8" y2="102.5"/>
	<line class="st1" x1="172.8" y1="95.8" x2="179.1" y2="95.4"/>
	<line class="st1" x1="172.7" y1="92.2" x2="177.2" y2="91.9"/>
	<line class="st1" x1="173.2" y1="88.9" x2="178.6" y2="88.5"/>
	<line class="st1" x1="172.2" y1="85.2" x2="177.6" y2="84.9"/>
	<line class="st1" x1="172.5" y1="81" x2="179.3" y2="80.5"/>
	<line class="st1" x1="173.4" y1="76.9" x2="178.4" y2="76.5"/>
	<line class="st1" x1="174.5" y1="54.3" x2="178.6" y2="54.1"/>
	<line class="st1" x1="173.5" y1="50.8" x2="180.1" y2="50.4"/>
	<line class="st1" x1="174.1" y1="47.3" x2="179" y2="47"/>
	<line class="st1" x1="173.9" y1="43.7" x2="177.6" y2="43.4"/>
	<line class="st1" x1="173.9" y1="39.9" x2="179.6" y2="39.4"/>
	<line class="st1" x1="173.7" y1="36.2" x2="177.9" y2="35.9"/>
	<line class="st1" x1="174.3" y1="32.6" x2="179.8" y2="32.2"/>
	<line class="st1" x1="174.7" y1="28.6" x2="179.3" y2="28.2"/>
	<line class="st1" x1="175" y1="24.9" x2="179.2" y2="24.6"/>
	<line class="st1" x1="107.4" y1="171.9" x2="113.7" y2="169.6"/>
	<line class="st1" x1="106" y1="167.5" x2="110.4" y2="165.6"/>
	<line class="st1" x1="104.7" y1="163.6" x2="110.2" y2="161.2"/>
	<line class="st1" x1="105.1" y1="159.1" x2="107.3" y2="158.1"/>
	<line class="st1" x1="103.7" y1="155.6" x2="108.6" y2="153.6"/>
	<line class="st1" x1="102.3" y1="151.4" x2="105.1" y2="150.3"/>
	<line class="st1" x1="92.9" y1="126.8" x2="97.2" y2="125.3"/>
	<line class="st1" x1="91.7" y1="123.3" x2="97.7" y2="121"/>
	<line class="st1" x1="90.6" y1="119.9" x2="94.9" y2="118.3"/>
	<line class="st1" x1="89.5" y1="116.3" x2="95.9" y2="114.4"/>
	<line class="st1" x1="87.2" y1="109.1" x2="92" y2="107.6"/>
	<line class="st1" x1="88.2" y1="112.4" x2="93" y2="111"/>
	<line class="st1" x1="86" y1="105.3" x2="92.2" y2="103.1"/>
	<line class="st1" x1="84.9" y1="102" x2="89.3" y2="100"/>
	<line class="st1" x1="83.7" y1="98.1" x2="89.1" y2="95.8"/>
	<line class="st1" x1="82.4" y1="93.8" x2="86.7" y2="92.2"/>
	<line class="st1" x1="81.1" y1="89.5" x2="86" y2="87.5"/>
	<line class="st1" x1="74.7" y1="69.7" x2="80.9" y2="66.4"/>
	<line class="st1" x1="73.5" y1="66.1" x2="77.7" y2="63.9"/>
	<line class="st1" x1="72.2" y1="62.3" x2="77.6" y2="59.3"/>
	<line class="st1" x1="71" y1="58.5" x2="75.2" y2="56.6"/>
	<line class="st1" x1="69.8" y1="54.5" x2="75.8" y2="52.5"/>
	<line class="st1" x1="68.7" y1="51.1" x2="72.9" y2="49.6"/>
	<line class="st1" x1="67.5" y1="47.8" x2="73.1" y2="45.3"/>
	<line class="st1" x1="167.9" y1="322.1" x2="171.9" y2="325.6"/>
	<line class="st1" x1="171.6" y1="319.3" x2="177" y2="323.8"/>
	<line class="st1" x1="173.5" y1="315.7" x2="177.4" y2="319.1"/>
	<line class="st1" x1="176.6" y1="312.3" x2="181.6" y2="316.4"/>
	<line class="st1" x1="177" y1="309.7" x2="180.9" y2="311.9"/>
	<line class="st1" x1="180" y1="307" x2="185.4" y2="309.4"/>
	<line class="st1" x1="181.2" y1="303.9" x2="185" y2="305.2"/>
	<line class="st1" x1="182.4" y1="300.2" x2="188.1" y2="302.1"/>
	<line class="st1" x1="184.8" y1="295.9" x2="188.7" y2="297.3"/>
	<line class="st1" x1="184.8" y1="292.1" x2="190.5" y2="293.3"/>
	<line class="st1" x1="185.7" y1="289.5" x2="190.4" y2="289.8"/>
	<line class="st1" x1="186.3" y1="285.1" x2="192.6" y2="285.7"/>
	<line class="st1" x1="186.6" y1="281.8" x2="191.2" y2="281.3"/>
	<line class="st1" x1="186.7" y1="278.5" x2="192.3" y2="277.7"/>
	<line class="st1" x1="186.2" y1="274.6" x2="192.3" y2="273.4"/>
	<line class="st1" x1="185.1" y1="271" x2="189.1" y2="269.9"/>
	<line class="st1" x1="184.5" y1="267.4" x2="191.5" y2="265.8"/>
	<line class="st1" x1="188.8" y1="261.5" x2="183.3" y2="263.6"/>
	<line class="st1" x1="181.1" y1="259.8" x2="185.5" y2="257.9"/>
	<line class="st1" x1="179.2" y1="256.2" x2="185.8" y2="253.2"/>
	<line class="st1" x1="176.7" y1="252.8" x2="181.9" y2="250"/>
	<line class="st1" x1="173.8" y1="249.3" x2="181.4" y2="245.7"/>
	<line class="st1" x1="171.3" y1="246.9" x2="176.2" y2="244.5"/>
	<line class="st1" x1="167" y1="245.1" x2="173.8" y2="241.4"/>
	<line class="st1" x1="163.4" y1="243.3" x2="165.8" y2="241.5"/>
</g>
</svg>
