<?xml version="1.0" encoding="utf-8"?>
<!-- Generator: Adobe Illustrator 21.1.0, SVG Export Plug-In . SVG Version: 6.00 Build 0)  -->
<svg version="1.1" id="Calque_1" xmlns="http://www.w3.org/2000/svg" xmlns:xlink="http://www.w3.org/1999/xlink" x="0px" y="0px"
	 viewBox="0 0 95 125.6" style="enable-background:new 0 0 95 125.6;" xml:space="preserve">
<style type="text/css">
	.st0{fill:none;stroke:#FFFFFF;stroke-width:0.7644;stroke-linecap:round;stroke-linejoin:round;stroke-miterlimit:10;}
	.st1{fill:none;stroke:#FFFFFF;stroke-width:0.4117;stroke-linecap:round;stroke-linejoin:round;stroke-miterlimit:10;}
	.st2{fill:none;stroke:#FFFFFF;stroke-width:0.3822;stroke-linecap:round;stroke-linejoin:round;stroke-miterlimit:10;}
	.st3{fill:none;stroke:#FFFFFF;stroke-width:0.411;stroke-linecap:round;stroke-linejoin:round;stroke-miterlimit:10;}
</style>
<g>
	<path class="st0" d="M75.5,54.1c-4.6-14.5-20.4-16-24.9-15.9c-6.6,0.2-10.2,1.3-13.1,3.7c-2.4,2-13.4,13.2-14.6,14.4
		c-2.3,2.1-2.5,4.4-2,5.5c0.5,1,1.7,0.9,2.5,1.6c1.3,1,1.4,3,2.6,3.8c1,0.7,3-0.5,5,0.8c1.4,0.9,1.1,3.2,2.3,4.2s4.6,0.3,6.1,1.4
		c2.1,1.6,2.5,5.5,4.3,6.8c1.2,0.9,4.5,0.3,5.7,0.8c1.7,0.8,3,2.8,3.6,3.8c1,1.7,2.7,2.1,3.6,1.1c8.7-9,18.5-23.8,19.1-26.6
		C76.1,57.9,76.2,56.2,75.5,54.1z"/>
	<path class="st0" d="M7.3,98.1c-3.1,5.1-4.8,9-1.5,10.9c3.3,1.8,6.7-4,8.2-6.6c0.5-0.9,1.2-2.3,0.4-2.2c-1.3,0.1-4.6-2-5.1-3.3
		C9,95.7,7.9,97,7.3,98.1z"/>
	<path class="st0" d="M5.5,85.3c-3.1,5.1-4,8.6-1.5,9.9c3.4,1.6,5.6-3.7,7.1-6.3c0.5-0.9,1.2-2.3,0.4-2.2C10.2,86.7,8,85.2,7.6,84
		C7.2,82.9,6.1,84.2,5.5,85.3z"/>
	<path class="st0" d="M10.6,95.1c0.5,1.1,3.2,2.8,4.3,2.8c1.7,0.1,2.5-0.7,3-1.5c0.9-1.5,4.1-6.5,4.7-7.6c0.7-1.2,0.9-1.9,0.1-2.2
		c-0.9-0.3-4.3-2.5-5-3.5c-0.5-0.6-1.1-0.2-1.9,0.8c-0.9,1.1-4,6.5-4.8,7.7C10.6,92.3,10.1,94,10.6,95.1z"/>
	<path class="st0" d="M8.7,82.6c0.6,0.8,2.4,2.4,3.4,2.3c1.4-0.1,2.1-0.9,2.6-1.7c0.9-1.5,1.3-2.4,1.9-3.5c0.7-1.2,0.9-1.9,0.3-2.1
		c-0.7-0.2-3.4-2-3.9-2.8c-0.3-0.6-0.9-0.1-1.7,1c-0.8,1.2-1.6,2.5-2.4,3.8C8.2,80.7,8.1,81.7,8.7,82.6z"/>
	<path class="st0" d="M18.8,80.6c0.4,0.8,3.8,3.1,4.9,3.2c0.7,0.1,1.7-0.1,2.2-0.9c0.3-0.4,3.9-5.4,4.3-6.1c1.7-2.5-0.2-5.5-1.3-6.1
		c-2.4-1.3-5.1-1.4-6.9,1.9c-0.7,1.2-2.6,4.8-3.1,5.8C18.3,79.4,18.4,79.8,18.8,80.6z"/>
	<path class="st0" d="M13.7,73c0.3,0.7,2.9,2.6,3.8,2.6c0.6,0,1.4-0.2,1.9-1c0.3-0.4,1.9-3,2.4-3.7c1.7-2.5,0.7-4.9-0.6-5.7
		c-1.8-1.1-3.6-1-5.4,2.3c-0.7,1.2-1.4,2.4-1.9,3.4C13.4,71.8,13.4,72.2,13.7,73z"/>
	<path class="st0" d="M10.7,95.4c-0.5,0.2-0.9,0.6-1.2,1.2"/>
	<path class="st0" d="M13.8,99.9c0.6-0.4,0.9-1.5,0.9-1.9"/>
	<path class="st0" d="M19.2,81.3c-0.6,0.2-1.4,1.1-1.5,1.7"/>
	<path class="st0" d="M21.9,86.1c0.4-0.2,1.3-1.5,1.2-2.3"/>
	<path class="st0" d="M31.1,113.2c-3.7,4.7-6.7,7.7-9.6,5.3c-2.9-2.4,1.3-7.7,3.3-10c0.7-0.8,1.7-1.9,1.9-1.2
		c0.4,1.3,3.6,3.6,4.9,3.5C32.8,110.7,31.9,112.2,31.1,113.2z"/>
	<path class="st0" d="M32.8,109c-1.2-0.1-3.7-2-4.2-3c-0.7-1.5-0.2-2.6,0.3-3.3c1.1-1.4,4.6-6.2,5.4-7.1c0.9-1.1,1.5-1.5,2-0.9
		c0.6,0.7,3.9,3.1,5,3.5c0.8,0.2,0.6,0.9-0.1,2.1c-0.7,1.2-4.6,6.1-5.5,7.3C35.4,108.1,34,109.2,32.8,109z"/>
	<path class="st0" d="M43.3,96.2c-0.9-0.1-4.2-2.4-4.7-3.4c-0.3-0.6-0.5-1.6,0-2.4c0.3-0.4,3.7-5.5,4.1-6.2c1.7-2.5,5.2-1.8,6.2-1
		c2.1,1.7,3.1,4.2,0.7,7.2c-0.9,1.1-3.6,4.2-4.3,5C44.7,96.2,44.2,96.3,43.3,96.2z"/>
	<path class="st0" d="M22.1,109.4c-3.7,4.7-7.6,9.1-10.5,6.6s2-9.5,3.9-11.8c0.7-0.8,1.7-1.9,1.9-1.2c0.4,1.3,3.6,3.6,4.9,3.5
		C23.5,106.5,22.9,108.4,22.1,109.4z"/>
	<path class="st0" d="M31.3,93c0.2,0.1,0.4,0.2,0.5,0.2c0.8,0.2,0.6,0.9-0.1,2.1c-0.7,1.2-4.6,6.1-5.5,7.3c-0.5,0.6-1.8,1.7-3,1.6
		c-1.2-0.1-3.7-2-4.2-3c-0.7-1.5-0.2-2.6,0.3-3.3c1.1-1.4,4.6-6.2,5.4-7.1c0.9-1.1,1.5-1.5,2-0.9C27.3,90.4,29.9,92.3,31.3,93"/>
	<path class="st0" d="M33,91.1c-0.9-0.1-4.3-2.3-4.8-3.3c-0.3-0.6-0.6-1.6-0.1-2.4c0.3-0.4,3.5-5.6,4-6.3c1.6-2.5,5.2-1.9,6.2-1.1
		c2.1,1.7,3.2,4.2,0.9,7.1c-0.9,1.1-3.5,4.3-4.1,5.1C34.3,91,33.9,91.1,33,91.1z"/>
	<path class="st0" d="M32.4,109.1c0,0.6-0.3,1.1-0.6,1.6"/>
	<path class="st0" d="M27.1,107.8c0.2-0.6,1.1-1.4,1.5-1.6"/>
	<path class="st0" d="M42.6,96c0,0.7-0.6,1.6-1.3,2"/>
	<path class="st0" d="M37.1,95.3c0-0.6,0.8-1.8,1.8-2"/>
	<path class="st0" d="M23.6,104.2c0,0.7-0.5,1.9-1.3,2.3"/>
	<path class="st0" d="M18.1,104c0-0.7,0.7-2,1.3-2.2"/>
	<path class="st0" d="M32.6,91.1c-0.1,0.5-0.3,0.9-0.6,1.3c-0.2,0.2-0.3,0.4-0.5,0.5"/>
	<path class="st0" d="M27.2,89.9c0.1-0.4,0.3-0.8,0.6-1.1c0.2-0.2,0.4-0.4,0.6-0.6"/>
	<path class="st0" d="M15.8,77.1c0.4-0.1,1.2-0.9,1.2-1.6"/>
	<path class="st0" d="M14.3,73.7c-0.4,0.2-0.9,0.9-1,1.4"/>
	<path class="st0" d="M10.7,86.4c0.5-0.3,0.9-1,0.8-1.5"/>
	<path class="st0" d="M9,83.2c-0.5,0.1-1.1,0.6-1.2,1.1"/>
	<path class="st0" d="M22.5,66.6c0.3,0,0.6-0.1,0.9-0.2c0.6-0.3,1-0.9,1-1.5"/>
	<path class="st0" d="M22.1,62.9c-0.8,0.1-1.5,1.1-1.4,1.9"/>
	<path class="st0" d="M30.5,72.3c0.6-0.1,1.7-1.1,1.8-2"/>
	<path class="st0" d="M27.7,67.4c-0.8,0.5-1.2,1.4-1,2.4"/>
	<path class="st0" d="M39.6,78.9c1-0.1,2.1-0.9,2.2-1.7"/>
	<path class="st0" d="M39.1,73.3c-0.5,0-0.8,0.1-1.2,0.3c-1.3,0.7-1.9,2.2-1.4,3.5"/>
	<path class="st0" d="M50.8,85.1c0.5-0.1,1.3-0.9,1.5-1.6"/>
	<path class="st0" d="M47.3,80.9c-0.3,0.5-0.5,0.9-0.4,1.5"/>
	<path class="st0" d="M72.8,65.2c1.6,0.6,3.4,1.4,4.2,2.1c0.9,0.9,1.5,2.4,1,3.5c-0.5,1.1-4.5,14.3-4.7,15.1
		c-0.4,1.2-1.8,1.4-2.2,1.1c-0.4-0.3-6.1-2.9-8.4-1.8c-1.2,0.5-1.1-3.2-1-4.4"/>
	<path class="st0" d="M69.1,91.1c0.8,0.8,2.1,2.3,1.5,4.4c-0.3,1-3.1,10.8-3.8,12.9c-0.5,1.7-1.2,1.8-1.7,1.8
		c-3-0.1-6.8-2.8-6.7-7.3c0.1-4.5,0.5-10.6,0.6-11.5c0.2-1.4,1-1.6,2.3-2C62,89.1,66.9,88.8,69.1,91.1z"/>
	<path class="st0" d="M47.7,34c2.4,0.1,17.7,1.6,23.1,5.6c4.1,3,5.3,8.6,6,10c0.7,1.4,1.9,1,2.5-0.3C80,48,89.9,27.1,90.5,26
		c1-1.9,0.5-2.9-0.3-4.5c-0.8-1.6-4.7-7.3-8-9.6c-3.2-2.3-13.5-6.3-18.3-5.2c-1.7,0.4-1.5,1-2.9,3.3c-1.4,2.3-13.6,20.9-13.9,21.6
		C46.8,32.2,45.6,33.9,47.7,34z"/>
	<path class="st0" d="M76,66.6c0.3,0,0.6-0.2,0.7-0.3c1.7-0.8,2.3-2.9,1.5-4.5c-0.6-1.1-1.3-1.7-2.5-1.8"/>
	<path class="st0" d="M68.8,90.6c1.3-0.9,1.8-2.4,1.6-4"/>
	<path class="st0" d="M62.8,85.2c-0.8,1.3-0.8,2.9-0.3,4"/>
	<path class="st0" d="M73.3,49.3c0.4,0,2.2-0.5,2.6-1.6"/>
	<path class="st0" d="M73.5,42.5c-1.4-0.3-3.3,1.6-3.5,2.4"/>
	<line class="st0" x1="85.8" y1="25" x2="78.6" y2="39.4"/>
	<line class="st0" x1="49.4" y1="34.2" x2="45" y2="38.7"/>
	<line class="st0" x1="59.9" y1="35.7" x2="57.6" y2="38.9"/>
	<line class="st0" x1="53.9" y1="34.7" x2="51.4" y2="38.2"/>
	<line class="st0" x1="64.4" y1="36.8" x2="62.2" y2="40.3"/>
	<line class="st0" x1="69" y1="38.5" x2="67.5" y2="43.1"/>
	<line class="st1" x1="53.1" y1="34.2" x2="53.8" y2="32.1"/>
	<line class="st2" x1="72.8" y1="41.4" x2="73.7" y2="38.9"/>
	<line class="st2" x1="72.2" y1="40.2" x2="73.1" y2="38.3"/>
	<line class="st2" x1="71.2" y1="39.7" x2="72.4" y2="37.1"/>
	<line class="st2" x1="70.4" y1="39" x2="71.3" y2="37.3"/>
	<line class="st2" x1="69.3" y1="38.6" x2="70.4" y2="36.7"/>
	<line class="st2" x1="68.2" y1="38" x2="69.2" y2="36.5"/>
	<line class="st2" x1="67.3" y1="37.7" x2="68.5" y2="35.6"/>
	<line class="st2" x1="66.2" y1="37.2" x2="67" y2="35.6"/>
	<line class="st2" x1="64.8" y1="36.7" x2="65.7" y2="34.5"/>
	<line class="st2" x1="63.6" y1="36.4" x2="64.3" y2="34.7"/>
	<line class="st2" x1="62.3" y1="36.1" x2="63.1" y2="34.1"/>
	<line class="st2" x1="61.2" y1="35.9" x2="62" y2="33.6"/>
	<line class="st2" x1="60.1" y1="35.7" x2="60.7" y2="33.2"/>
	<line class="st2" x1="58.6" y1="35.3" x2="58.9" y2="33.7"/>
	<line class="st2" x1="57.3" y1="35" x2="57.9" y2="32.9"/>
	<line class="st2" x1="56.1" y1="33.5" x2="55.7" y2="34.8"/>
	<line class="st2" x1="54.4" y1="34.5" x2="55.1" y2="32.7"/>
	<line class="st2" x1="51.9" y1="34.4" x2="52.7" y2="32.3"/>
	<line class="st2" x1="50.8" y1="34.2" x2="51.4" y2="32.5"/>
	<line class="st2" x1="49.2" y1="34.1" x2="49.9" y2="32"/>
	<line class="st2" x1="48" y1="34" x2="48.6" y2="32.4"/>
	<line class="st2" x1="58.1" y1="14.9" x2="60.3" y2="15.8"/>
	<line class="st2" x1="58.7" y1="13.7" x2="60.3" y2="14.4"/>
	<line class="st2" x1="59.6" y1="12.6" x2="61.6" y2="13.7"/>
	<line class="st2" x1="60.4" y1="11.4" x2="62.2" y2="12.6"/>
	<line class="st2" x1="61.2" y1="10.3" x2="62.6" y2="11.5"/>
	<line class="st2" x1="61.8" y1="8.7" x2="62.8" y2="9.9"/>
	<line class="st2" x1="62.8" y1="7.4" x2="63.7" y2="8.8"/>
	<line class="st2" x1="64.4" y1="6.8" x2="64.7" y2="8.5"/>
	<line class="st2" x1="65.9" y1="6.5" x2="66.3" y2="8.2"/>
	<line class="st2" x1="67.6" y1="6.6" x2="67.9" y2="8.6"/>
	<line class="st2" x1="69" y1="6.8" x2="69" y2="8.5"/>
	<line class="st2" x1="70.4" y1="7.1" x2="70.2" y2="9.3"/>
	<line class="st2" x1="71.7" y1="7.7" x2="71.6" y2="9.2"/>
	<line class="st2" x1="73.5" y1="8.2" x2="73.2" y2="10"/>
	<line class="st2" x1="75.1" y1="8.7" x2="74.5" y2="10.1"/>
	<line class="st2" x1="76.4" y1="9.3" x2="75.9" y2="10.8"/>
	<line class="st2" x1="77.8" y1="9.8" x2="77.3" y2="11.1"/>
	<line class="st2" x1="79.3" y1="10.6" x2="78.5" y2="12.3"/>
	<line class="st2" x1="81.1" y1="11.3" x2="80.4" y2="12.6"/>
	<line class="st2" x1="82.3" y1="12.2" x2="81.5" y2="13.5"/>
	<line class="st2" x1="17.9" y1="66.3" x2="16.9" y2="66.5"/>
	<line class="st2" x1="17.2" y1="67.4" x2="15.8" y2="67.7"/>
	<line class="st2" x1="17.1" y1="68.3" x2="15.5" y2="68.7"/>
	<line class="st2" x1="16" y1="69.5" x2="15" y2="69.7"/>
	<line class="st2" x1="15.1" y1="70.7" x2="14.1" y2="70.9"/>
	<line class="st2" x1="15.2" y1="71.6" x2="13.7" y2="72.1"/>
	<line class="st2" x1="15.3" y1="72.6" x2="13.9" y2="72.9"/>
	<line class="st2" x1="12.1" y1="76.9" x2="10.5" y2="77.2"/>
	<line class="st2" x1="11.1" y1="78.2" x2="9.6" y2="78.5"/>
	<line class="st2" x1="10.6" y1="79.5" x2="9" y2="79.8"/>
	<line class="st2" x1="9.9" y1="80.7" x2="8.7" y2="81"/>
	<line class="st2" x1="10.1" y1="81.6" x2="8.6" y2="82.1"/>
	<line class="st2" x1="6.7" y1="85.2" x2="5.5" y2="85.5"/>
	<line class="st2" x1="6.4" y1="86.3" x2="4.8" y2="86.8"/>
	<line class="st2" x1="5.3" y1="87.4" x2="4.2" y2="87.7"/>
	<line class="st2" x1="4.6" y1="88.5" x2="3.7" y2="88.8"/>
	<line class="st2" x1="22.6" y1="73.4" x2="21.6" y2="73.7"/>
	<line class="st3" x1="22.7" y1="75.5" x2="20.4" y2="75.9"/>
	<line class="st2" x1="21.4" y1="76.5" x2="19.9" y2="76.9"/>
	<line class="st2" x1="22.4" y1="74.4" x2="20.8" y2="74.8"/>
	<line class="st2" x1="20.8" y1="77.7" x2="19" y2="78.2"/>
	<line class="st2" x1="20.3" y1="79" x2="18.7" y2="79.4"/>
	<line class="st2" x1="20.3" y1="80.1" x2="19" y2="80.2"/>
	<line class="st2" x1="16.1" y1="85.1" x2="15.1" y2="85.2"/>
	<line class="st2" x1="16" y1="86.1" x2="14.5" y2="86.5"/>
	<line class="st2" x1="15.2" y1="87.6" x2="13.5" y2="87.9"/>
	<line class="st2" x1="14.6" y1="88.7" x2="12.9" y2="88.8"/>
	<line class="st2" x1="13.8" y1="89.8" x2="12.4" y2="90"/>
	<line class="st2" x1="13.2" y1="91" x2="11.5" y2="91.1"/>
	<line class="st2" x1="12" y1="92.2" x2="10.8" y2="92.5"/>
	<line class="st2" x1="12" y1="93.2" x2="10.5" y2="93.6"/>
	<line class="st2" x1="12" y1="94.3" x2="10.3" y2="94.5"/>
	<line class="st2" x1="8.7" y1="98.1" x2="7.2" y2="98.4"/>
	<line class="st2" x1="7.8" y1="99.2" x2="6.4" y2="99.5"/>
	<line class="st2" x1="7.4" y1="100.4" x2="5.9" y2="100.6"/>
	<line class="st2" x1="33.3" y1="79.9" x2="31.8" y2="80.2"/>
	<line class="st2" x1="32.8" y1="81.2" x2="30.9" y2="81.5"/>
	<line class="st2" x1="31.8" y1="82.1" x2="30.3" y2="82.4"/>
	<line class="st2" x1="30.4" y1="84.3" x2="28.9" y2="84.5"/>
	<line class="st2" x1="30.9" y1="83.4" x2="29.5" y2="83.6"/>
	<line class="st2" x1="29.9" y1="85.4" x2="28.3" y2="85.6"/>
	<line class="st2" x1="29.8" y1="86.5" x2="28" y2="86.8"/>
	<line class="st2" x1="25.4" y1="92.3" x2="24" y2="92.4"/>
	<line class="st2" x1="24.8" y1="93.1" x2="23" y2="93.5"/>
	<line class="st2" x1="23.8" y1="94.4" x2="22.2" y2="94.6"/>
	<line class="st2" x1="22.9" y1="95.4" x2="21.4" y2="95.7"/>
	<line class="st2" x1="21.8" y1="96.6" x2="20.6" y2="96.8"/>
	<line class="st2" x1="21.1" y1="97.8" x2="19.6" y2="98.1"/>
	<line class="st2" x1="20.6" y1="99.1" x2="19" y2="99.4"/>
	<line class="st2" x1="26.4" y1="91.1" x2="24.5" y2="91.5"/>
	<line class="st2" x1="17" y1="104.1" x2="15.2" y2="104.6"/>
	<line class="st2" x1="16.2" y1="105.3" x2="14.6" y2="105.7"/>
	<line class="st2" x1="15.3" y1="106.5" x2="13.8" y2="106.8"/>
	<line class="st2" x1="14.3" y1="107.6" x2="13.1" y2="107.7"/>
	<line class="st2" x1="45" y1="85.1" x2="42" y2="85.8"/>
	<line class="st2" x1="42.4" y1="87.9" x2="40.2" y2="88.4"/>
	<line class="st2" x1="43" y1="86.8" x2="40.9" y2="87.3"/>
	<line class="st2" x1="41.2" y1="89.3" x2="39.6" y2="89.5"/>
	<line class="st2" x1="40.5" y1="90.4" x2="38.4" y2="91"/>
	<line class="st2" x1="39.4" y1="91.7" x2="38.3" y2="92.1"/>
	<line class="st2" x1="35.5" y1="95.9" x2="34" y2="96.4"/>
	<line class="st2" x1="34.8" y1="97.2" x2="33.2" y2="97.5"/>
	<line class="st2" x1="33.9" y1="98.3" x2="32.1" y2="98.8"/>
	<line class="st2" x1="32.8" y1="99.6" x2="31.5" y2="99.8"/>
	<line class="st2" x1="32" y1="100.6" x2="30.9" y2="100.8"/>
	<line class="st2" x1="30.9" y1="101.4" x2="29.8" y2="101.6"/>
	<line class="st2" x1="30.3" y1="102.5" x2="28.8" y2="103"/>
	<line class="st2" x1="29.8" y1="103.7" x2="28.3" y2="104"/>
	<line class="st2" x1="26" y1="108.8" x2="24.4" y2="109.2"/>
	<line class="st2" x1="25.1" y1="109.9" x2="23.6" y2="110.2"/>
	<line class="st2" x1="24.2" y1="110.9" x2="22.9" y2="111.1"/>
	<line class="st2" x1="63" y1="80.3" x2="61.7" y2="81.6"/>
	<line class="st2" x1="63.1" y1="81.7" x2="61.8" y2="83"/>
	<line class="st2" x1="63.2" y1="82.9" x2="61.8" y2="84.3"/>
	<line class="st2" x1="60.2" y1="90.7" x2="58.9" y2="92"/>
	<line class="st2" x1="60.4" y1="91.7" x2="58.8" y2="93.2"/>
	<line class="st2" x1="60" y1="93.5" x2="58.6" y2="94.8"/>
	<line class="st2" x1="60.4" y1="94.7" x2="58.9" y2="96.1"/>
	<line class="st2" x1="60.4" y1="96.2" x2="58.9" y2="97.6"/>
	<line class="st2" x1="60" y1="97.8" x2="58.7" y2="99.1"/>
	<line class="st2" x1="59.6" y1="99.3" x2="58.6" y2="100.3"/>
</g>
</svg>
