<?xml version="1.0" encoding="utf-8"?>
<!-- Generator: Adobe Illustrator 21.1.0, SVG Export Plug-In . SVG Version: 6.00 Build 0)  -->
<svg version="1.1" id="Calque_1" xmlns="http://www.w3.org/2000/svg" xmlns:xlink="http://www.w3.org/1999/xlink" x="0px" y="0px"
	 viewBox="0 0 107 127.4" style="enable-background:new 0 0 107 127.4;" xml:space="preserve">
<style type="text/css">
	.st0{fill:none;stroke:#FFFFFF;stroke-width:0.7734;stroke-linecap:round;stroke-linejoin:round;stroke-miterlimit:10;}
	.st1{fill:none;stroke:#FFFFFF;stroke-width:0.3542;stroke-linecap:round;stroke-linejoin:round;stroke-miterlimit:10;}
	.st2{fill:none;stroke:#FFFFFF;stroke-width:0.3867;stroke-linecap:round;stroke-linejoin:round;stroke-miterlimit:10;}
</style>
<g>
	<path class="st0" d="M76.7,24.7c7.2,9.4,15,33,15.5,49.1c0.2,6.5-3.1,6.9-4.1,7.3c-5.4,2.1-17.4,3.1-20.8,2.7
		c-6.7-0.9-9.1-5.7-9.5-7.7c-0.4-1.9,1.4-9,1.2-13.9s-2.8-12-3.3-13.6c-0.5-1.5-0.9-5.1,1.8-5.6c4.2-0.8,7.7-6.8,8-9.6
		c0.2-2,1.5-2.3,3.5-2.6c2.7-0.3,4.4-4.7,4.3-7C73.4,22.8,75,22.6,76.7,24.7z"/>
	<path class="st0" d="M53.7,54.5c1.4,3.3,2.2,11.8,0.7,14.4c-1,1.8-2.6,2.6-4,2.6c-1.4-0.1-12.1-6.3-12.9-6.8
		c-0.8-0.5-1.8-2.1-1.1-3.4c0.7-1.4,1.7-5.6,1.5-6.5c-0.2-1,0.7-1.8,1.9-2c1.2-0.1,9.8-0.5,10.8-0.6C51.7,52.1,53.1,53.1,53.7,54.5z
		"/>
	<path class="st0" d="M35.1,52.7c0.8,1.9-0.5,7.6-2.5,9.4c-1,0.9-2.4,0.7-3.3,0.4c-6.2-1.6-12.3-5.3-11-9.5c1.2-4.2,7.3-4.3,14.5-2
		C33.4,51.3,34.6,51.5,35.1,52.7z"/>
	<path class="st0" d="M62.7,27.1c0.7,7.6-2.1,10.4-3.8,11.5c-1.7,1.1-3.2,0.9-3.9,0.7c-0.7-0.2-6.8-4.1-7.6-4.6
		c-0.8-0.5-1.7-1.2-0.9-3c0.4-0.9,0.8-4.7-1-8.3c-0.9-1.8-0.1-1.9,1-1.9c0.8,0,13.9,2.7,14.7,3.1C61.8,25.2,62.6,25.9,62.7,27.1z"/>
	<path class="st0" d="M48.8,22.1c0.1-2-0.7-4.6-1.6-6.4c-1.1-2.2-0.2-2.4,1.2-2.3c1,0.1,17.4,3.4,18.4,3.9c1,0.6,1.7,1,2.1,2.9
		c1.4,7.9-3.6,8.9-6.1,8.3"/>
	<path class="st0" d="M38.7,21.8c2,1.9,4.3,6.3,3.9,9.6c-0.2,1.9-0.7,2.3-1.5,2.6c-0.9,0.4-10.2,3.3-10.8,3.5
		c-0.6,0.2-1.2,0-1.3-0.7c-0.5-3-2.6-5.9-3.9-6.7c-0.6-0.4-1-1.1,0.1-1.8c0.6-0.4,11.3-6.5,11.7-6.6C37.4,21.5,38.1,21.2,38.7,21.8z
		"/>
	<path class="st0" d="M26.4,27.3c-0.5-2.8-1.9-4.9-2.9-5.7c-0.6-0.5-0.9-1.4,0.4-2c0.7-0.3,14.5-6.3,15-6.3c0.5,0,1.3-0.3,1.9,0.4
		c1.7,2.1,3.3,6.3,3,9.7"/>
	<path class="st0" d="M25.8,37.6c0.1,0.8-0.3,2-0.9,2.3c-2.1,1.2-5.8,3.4-7.2,4.1c-3.1,1.6-7.2,2.3-8.5,0.1c-1.3-2.2,0-5.4,1.8-7
		c1.5-1.3,7-5,8.2-5.7c0.7-0.4,1.1-0.7,1.9-0.4C22.4,31.6,25.6,34.8,25.8,37.6"/>
	<path class="st0" d="M8.8,40.8c-1.3-0.1-2.8-0.7-3.4-1.7c-1.5-2.5,0-6.1,2-7.8c1.7-1.4,7.8-5.6,9.1-6.4c0.8-0.4,1.2-0.7,2.1-0.4
		c1.3,0.5,4.4,3.5,5.1,6.4"/>
	<path class="st0" d="M90.1,85.3c-13.3,5.5-23.6,4.5-25.6,2.9c-1.2-1-2.2-1.7-2.4,0.4c-0.2,2.1,0.7,22.6,1.1,24.5
		c0.4,1.9,0.9,2.3,2.2,3.2c3.3,2.2,10.3,2.1,26.4-2.9c1.2-0.4,1.8-1.3,1.6-3.1c-0.1-0.9-1.6-22.2-1.7-23.4
		C91.7,85.9,91.2,84.8,90.1,85.3z"/>
	<line class="st0" x1="65.4" y1="92.8" x2="66.5" y2="112.1"/>
	<path class="st0" d="M80.3,88.4c0.6-0.9,0.8-2.1,0.6-3.2c-0.2-0.8-0.5-1.5-1-2.1"/>
	<path class="st0" d="M72.3,84c-0.7,1.4-0.2,4.1,0.8,5.3"/>
	<path class="st0" d="M55,67.1c0.9,0.5,2,0.6,3.2,0.4c0.1,0,0.3-0.1,0.4-0.1"/>
	<path class="st0" d="M58.3,57.8c-0.6-0.1-1.3-0.2-2,0c-0.6,0.1-1.1,0.3-1.5,0.6"/>
	<path class="st0" d="M33.2,61.5c0.8,0.8,1.7,0.9,2.9,0.8"/>
	<path class="st0" d="M37.8,54.1c-0.8-0.3-1.6-0.5-2.4-0.2"/>
	<path class="st0" d="M58.1,39.2c0.7,1,1.8,1.5,3,1.7"/>
	<path class="st0" d="M65.6,33.5c-0.7-0.9-1.4-1.5-2.6-1.7"/>
	<path class="st0" d="M42.6,31.9c0.8,0.3,1.6,0.4,2.5,0.3c0.4-0.1,0.8-0.2,1.2-0.4"/>
	<path class="st0" d="M45.5,23.8c-0.6-0.2-1.3-0.2-2-0.1c-0.9,0.2-1.7,0.6-2.3,1.3"/>
	<path class="st0" d="M26,37.5c0.2,0,0.5,0,0.7-0.1c1-0.2,1.5-0.5,2.1-1.2"/>
	<path class="st0" d="M25.4,30.3c-1.2,0.2-2,0.9-2.4,2"/>
	<path class="st0" d="M65.9,28.6c0.3,1.2,1,1.7,2,2.3"/>
	<path class="st0" d="M73.4,23.9c-1-1.1-2.3-1.8-4.1-1.4"/>
	<path class="st0" d="M46.6,14.7c-1.7-0.7-3.8,0.6-4.4,1.2"/>
	<path class="st0" d="M23.7,22.1c-1.6,0.1-3,1.7-3.4,3.4"/>
	<line class="st0" x1="63.9" y1="82.9" x2="66" y2="88.9"/>
	<line class="st0" x1="68.5" y1="83.9" x2="69.9" y2="89.4"/>
	<line class="st0" x1="84.2" y1="82.3" x2="83.3" y2="87.7"/>
	<line class="st0" x1="88.1" y1="81.2" x2="86.9" y2="86.5"/>
	<line class="st1" x1="48.5" y1="70.9" x2="47.5" y2="68"/>
	<line class="st1" x1="46.6" y1="69.6" x2="46" y2="67.6"/>
	<line class="st1" x1="43.7" y1="68" x2="43.3" y2="66.3"/>
	<line class="st1" x1="44.7" y1="68.7" x2="44.4" y2="66.9"/>
	<line class="st1" x1="42.4" y1="67.3" x2="42" y2="65.1"/>
	<line class="st1" x1="40.6" y1="66.4" x2="40.3" y2="64.5"/>
	<line class="st1" x1="39.1" y1="65.7" x2="38.8" y2="63.7"/>
	<line class="st1" x1="36.6" y1="63.7" x2="36.3" y2="62"/>
	<line class="st1" x1="31.3" y1="62.6" x2="30.9" y2="60"/>
	<line class="st1" x1="30.2" y1="62.3" x2="29.9" y2="60.4"/>
	<line class="st1" x1="28.8" y1="62.3" x2="28.5" y2="60.1"/>
	<line class="st1" x1="27.2" y1="61.5" x2="26.9" y2="59.2"/>
	<line class="st1" x1="25.7" y1="61" x2="25.5" y2="59.1"/>
	<line class="st1" x1="62" y1="89.2" x2="63.4" y2="87.7"/>
	<line class="st1" x1="63.2" y1="89.7" x2="64.5" y2="88.3"/>
	<line class="st1" x1="63.6" y1="90.7" x2="65.3" y2="88.8"/>
	<line class="st1" x1="64.7" y1="91.8" x2="66.4" y2="89.2"/>
	<line class="st1" x1="66.5" y1="91.3" x2="67.4" y2="89.6"/>
	<line class="st1" x1="67.5" y1="92.1" x2="68.3" y2="89.6"/>
	<line class="st1" x1="68.4" y1="92.9" x2="69.4" y2="89.6"/>
	<line class="st1" x1="69.8" y1="91.7" x2="70.6" y2="89.9"/>
	<line class="st1" x1="71.2" y1="91.6" x2="71.8" y2="89.4"/>
	<line class="st1" x1="72.6" y1="91.1" x2="73" y2="89.4"/>
	<line class="st1" x1="73.9" y1="90.9" x2="74.1" y2="89.2"/>
	<line class="st1" x1="75.2" y1="91.7" x2="75.2" y2="89.6"/>
	<line class="st1" x1="76.3" y1="91" x2="76.1" y2="89.2"/>
	<line class="st1" x1="77.2" y1="90.8" x2="77" y2="89"/>
	<line class="st1" x1="78.4" y1="90.7" x2="78.2" y2="88.7"/>
	<line class="st1" x1="63.4" y1="111.3" x2="64.4" y2="109.9"/>
	<line class="st1" x1="63.5" y1="113.5" x2="64.4" y2="111.7"/>
	<line class="st1" x1="64.2" y1="115" x2="65.4" y2="112.6"/>
	<path class="st1" d="M66,114.8"/>
	<line class="st1" x1="65.1" y1="115.8" x2="65.9" y2="114"/>
	<line class="st1" x1="63.1" y1="109.9" x2="64.1" y2="108.7"/>
	<line class="st1" x1="62.9" y1="108.4" x2="64" y2="107.8"/>
	<line class="st1" x1="62.9" y1="107.3" x2="64.1" y2="106.6"/>
	<line class="st1" x1="65.9" y1="116.4" x2="66.7" y2="114.5"/>
	<line class="st1" x1="66.9" y1="116.8" x2="67.6" y2="114.9"/>
	<line class="st1" x1="68" y1="117.2" x2="68.4" y2="115.9"/>
	<line class="st1" x1="69.4" y1="117.5" x2="69.9" y2="115.7"/>
	<line class="st1" x1="70.9" y1="117.6" x2="71.2" y2="116.2"/>
	<line class="st1" x1="72.6" y1="117.8" x2="72.9" y2="116"/>
	<line class="st1" x1="74.3" y1="117.7" x2="74.6" y2="116.2"/>
	<line class="st1" x1="75.5" y1="117.7" x2="75.6" y2="115.8"/>
	<line class="st1" x1="51.4" y1="37" x2="51" y2="35.5"/>
	<line class="st1" x1="49" y1="35.7" x2="48.4" y2="33.6"/>
	<line class="st1" x1="50.5" y1="36.4" x2="49.8" y2="34.3"/>
	<line class="st1" x1="41.2" y1="33.6" x2="40.5" y2="31.7"/>
	<line class="st1" x1="40" y1="34.1" x2="39.3" y2="32.4"/>
	<line class="st1" x1="39" y1="34.7" x2="38.4" y2="33.4"/>
	<line class="st1" x1="36.9" y1="35" x2="36.2" y2="33.9"/>
	<line class="st1" x1="37.7" y1="34.9" x2="37" y2="33.7"/>
	<line class="st1" x1="36" y1="35.4" x2="35.1" y2="34.1"/>
	<line class="st1" x1="34.6" y1="35.8" x2="33.6" y2="34.1"/>
	<line class="st1" x1="33.4" y1="36.1" x2="32.5" y2="34.7"/>
	<line class="st1" x1="32.3" y1="36.5" x2="31.4" y2="35.2"/>
	<line class="st1" x1="31.3" y1="36.9" x2="30.3" y2="35.6"/>
	<line class="st2" x1="20.2" y1="42.6" x2="19.3" y2="41.3"/>
	<line class="st2" x1="24.2" y1="39.8" x2="23.3" y2="38.6"/>
	<line class="st2" x1="23.2" y1="40.7" x2="22.1" y2="39.2"/>
	<line class="st2" x1="22.1" y1="41.5" x2="21.5" y2="40.6"/>
	<line class="st2" x1="21.1" y1="42.1" x2="20" y2="40.4"/>
	<line class="st2" x1="58.1" y1="24.2" x2="56.8" y2="21.3"/>
	<line class="st2" x1="56.6" y1="23.4" x2="55.6" y2="21.2"/>
	<line class="st2" x1="55.4" y1="23.4" x2="54.1" y2="20.6"/>
	<line class="st2" x1="53.9" y1="22.8" x2="52.9" y2="20.6"/>
	<line class="st2" x1="52.6" y1="22.6" x2="51.5" y2="20.4"/>
	<line class="st2" x1="51" y1="22.4" x2="50" y2="20.1"/>
	<line class="st2" x1="48.3" y1="21.7" x2="47.5" y2="20"/>
	<line class="st2" x1="46.6" y1="21.6" x2="46" y2="20.1"/>
	<line class="st2" x1="45.3" y1="21.7" x2="44.6" y2="20.3"/>
	<line class="st2" x1="43.5" y1="23.6" x2="42" y2="20.5"/>
	<line class="st2" x1="42.3" y1="24" x2="40.7" y2="20.6"/>
	<line class="st2" x1="41.3" y1="24.6" x2="39.6" y2="20.8"/>
	<line class="st2" x1="38.7" y1="21.5" x2="38.2" y2="20.4"/>
	<line class="st2" x1="37.4" y1="21.5" x2="36.8" y2="20.2"/>
	<line class="st1" x1="35.2" y1="22.2" x2="34.3" y2="20.4"/>
	<line class="st1" x1="36.5" y1="21.8" x2="35.5" y2="19.9"/>
	<line class="st1" x1="34.3" y1="23" x2="33.3" y2="21.1"/>
	<line class="st1" x1="33.1" y1="23.4" x2="32.1" y2="21.5"/>
	<line class="st1" x1="32" y1="24.1" x2="31" y2="22"/>
	<line class="st1" x1="31" y1="24.9" x2="30.1" y2="23"/>
	<line class="st1" x1="30.1" y1="25.4" x2="29.2" y2="23.4"/>
	<line class="st1" x1="29" y1="25.9" x2="28.1" y2="24"/>
	<line class="st1" x1="28" y1="26.7" x2="27.1" y2="24.9"/>
	<line class="st1" x1="27" y1="27.1" x2="26.1" y2="25.2"/>
	<line class="st1" x1="26" y1="27.6" x2="25.1" y2="25.7"/>
	<line class="st1" x1="24.9" y1="28" x2="24" y2="26.2"/>
	<line class="st2" x1="20" y1="31.3" x2="18.9" y2="29.8"/>
	<line class="st2" x1="18.8" y1="31.8" x2="17.9" y2="30.7"/>
	<line class="st2" x1="18" y1="32.2" x2="16.9" y2="30.9"/>
	<line class="st2" x1="17.3" y1="32.7" x2="16.1" y2="31.2"/>
	<line class="st2" x1="16.1" y1="33.4" x2="15.4" y2="32.4"/>
	<line class="st2" x1="15.4" y1="34.2" x2="14.6" y2="33.2"/>
	<line class="st2" x1="14.1" y1="34.6" x2="13.3" y2="33.3"/>
</g>
</svg>
