<?xml version="1.0" encoding="utf-8"?>
<!-- Generator: Adobe Illustrator 19.0.0, SVG Export Plug-In . SVG Version: 6.00 Build 0)  -->
<svg version="1.1" id="Calque_1" xmlns="http://www.w3.org/2000/svg" xmlns:xlink="http://www.w3.org/1999/xlink" x="0px" y="0px"
	 viewBox="0 0 40 40" style="enable-background:new 0 0 40 40;" xml:space="preserve">
<style type="text/css">
	.st0{fill:#132840;}
</style>
<g id="XMLID_4_">
	<path id="XMLID_5_" class="st0" d="M23.8,22.4c2.1-2.4,3.3-5.5,3.3-8.9C27.1,6.1,21,0,13.5,0C6.1,0,0,6.1,0,13.5
		C0,21,6.1,27.1,13.5,27.1c3.4,0,6.5-1.3,8.9-3.3L38.6,40l1.4-1.4L23.8,22.4z M13.5,25.2C7.1,25.2,1.9,20,1.9,13.5
		c0-6.4,5.2-11.6,11.6-11.6c6.4,0,11.6,5.2,11.6,11.6C25.2,20,20,25.2,13.5,25.2z"/>
</g>
</svg>
