<?xml version="1.0" encoding="utf-8"?>
<!-- Generator: Adobe Illustrator 21.1.0, SVG Export Plug-In . SVG Version: 6.00 Build 0)  -->
<svg version="1.1" id="Calque_1" xmlns="http://www.w3.org/2000/svg" xmlns:xlink="http://www.w3.org/1999/xlink" x="0px" y="0px"
	 viewBox="0 0 95 139" style="enable-background:new 0 0 95 139;" xml:space="preserve">
<style type="text/css">
	.st0{fill:none;stroke:#FFFFFF;stroke-width:0.6688;stroke-linecap:round;stroke-linejoin:round;stroke-miterlimit:10;}
	.st1{fill:none;stroke:#FFFFFF;stroke-width:0.6688;stroke-miterlimit:10;}
	.st2{fill:none;stroke:#FFFFFF;stroke-width:0.3344;stroke-linecap:round;stroke-linejoin:round;stroke-miterlimit:10;}
</style>
<g>
	<path class="st0" d="M72.9,67.6c-0.3-3.6-1.9-30.3-6.2-35.8c-1.4-1.8-2.4-2.4-3-1.6c-0.4,0.5-0.5,1.9-1.2,2.7c-1.1,1.3-4,2-4.3,2.9
		s0.1,3.9-1.2,5.5c-0.9,1.2-4.3,1-5,2c-0.7,1,0.1,3.9-1.2,5.3c-1.4,1.4-4.5,1.6-5,2.5c-0.5,0.8-0.6,5.3-1.7,7
		c-1.8,2.7-3.3,2.6-5.2,3.4c-1.2,0.5-0.4,3.1,0.2,3.9c0.6,0.9,10.2,20.3,11,21.9c1.2,2.5,5.9,3.1,8.8,0.6
		c2.9-2.5,10.7-11.7,11.6-13.1C71.5,73.6,73.2,70.8,72.9,67.6z"/>
	<path class="st0" d="M59.6,30.1c0.6-2-0.9-4-3.8-4.4c-2.9-0.4-12.2-1.5-14.3-1.7c-2-0.1-4.6,0.2-5.6,2c-1,1.8,0,4.6,2.9,5.2
		c2.9,0.5,10.7,1.4,13.6,1.8C55.3,33.4,58.8,32.8,59.6,30.1z"/>
	<path class="st0" d="M55.2,37c0.4-2-1.7-3.8-4.6-4.2c-2.9-0.4-13.2-1.9-15.2-2c-2-0.1-7.5-0.6-8.5,1.3c-1,1.8-1.6,5.7,5.9,6.6
		c2.9,0.3,12.4,1.5,15.3,1.8C50.9,40.8,54.5,40.5,55.2,37z"/>
	<path class="st0" d="M48.5,45.2c0.4-2-0.5-4.7-5.8-5.2c-2.9-0.3-12.2-1.5-14.3-1.7c-2-0.1-8.2-0.3-9.2,2.7
		c-1.1,3.3,1.3,5.7,4.1,6.2c2.9,0.5,13.1,1.3,16,1.5C43.7,49.2,47.7,48.9,48.5,45.2z"/>
	<path class="st0" d="M42.6,53c0.1-2.1-2.3-4.1-5.9-4.4c-3-0.2-12.4-0.8-14.4-1c-2-0.1-7.5-0.3-8.4,2.1c-1.6,4,0.5,6.5,4.7,8.1
		c4.3,1.6,11.2,2.9,16.9,1.5C38.5,58.6,42.3,57.5,42.6,53z"/>
	<path class="st0" d="M24.3,73.1c-0.7-1.1-9.2-10.9-11.2-12.2C8,57.6,2.4,62.1,4.7,67.4c1.3,3.1,8.5,13.3,9.3,14
		c1.2,1.1,2.4,0.8,3.2,0.6c1.9-0.4,7.2-4.4,7.6-6.3C24.9,75,24.9,74,24.3,73.1z"/>
	<path class="st0" d="M39.4,76.6c-1.7-0.3-9.1-1.6-9.8-1.6c-0.7-0.1-1.8,0.3-2.5,1.3c-0.8,1.1-4.5,5.1-5.7,6.3
		c-0.9,0.8-1.1,2.9,0.3,3.5c4.6,2.1,15.9,4.2,20.4,4c1.2-0.1,3.5-1.3,2.5-3.8c-0.6-1.6-2.6-7.7-3-8.4C41.1,77.3,40.6,76.8,39.4,76.6
		z"/>
	<path class="st0" d="M35.5,65.9c-2.1-0.6-6.1-1.4-7.9,0.3c-1.8,1.8-4.3,7.3,2.7,6c3.6-0.7,5.5-2.4,6-3C37.5,68,38.1,66.5,35.5,65.9
		z"/>
	<path class="st0" d="M22.3,70.7c1.5-1.2,3.5-3.7,3.7-5.9c0.1-1.7-0.8-3.7-3.4-4.4c-2.6-0.8-9.4-3-10.6-3.1s-2.4,1.5-1.9,2.6"/>
	<path class="st0" d="M59.9,28.7c0.4-0.1,0.7-0.2,1.1-0.1c1.2,0.1,2,0.7,2.4,1.8"/>
	<path class="st0" d="M60,34.6c-1.1-0.3-2-1.2-2.2-2.4"/>
	<path class="st0" d="M55.3,35.8c0.2,0,0.3,0,0.5,0c1,0.1,1.9,0.6,2.4,1.4"/>
	<path class="st0" d="M56.4,41.9c-0.3,0.1-0.8,0.1-1.1,0.1c-1.2-0.1-2.1-0.8-2.6-1.8"/>
	<path class="st0" d="M48.6,43.5c0.3-0.1,0.7-0.1,1.1-0.1c0.8,0.1,1.5,0.4,2,0.9"/>
	<path class="st0" d="M49.7,49.5c-0.2,0-0.2,0-0.4,0c-1.1-0.1-2-0.7-2.5-1.6"/>
	<path class="st0" d="M42.6,52.5c0.1,0,0.2,0,0.3,0c1,0.1,1.9,0.5,2.4,1.4"/>
	<path class="st0" d="M44,58.4c-0.5,0.2-1,0.3-1.5,0.3c-0.9-0.1-1.7-0.5-2.2-1.1"/>
	<path class="st0" d="M13.5,50.4c-0.5-0.3-1-0.5-1.6-0.6c-1.7-0.1-3.2,1.2-3.3,2.9c-0.1,1.7,1.2,3.2,2.9,3.3c1,0.1,2-0.4,2.6-1.1"/>
	<path class="st0" d="M19.5,45.1c-0.5,0.3-1.2,0.5-1.9,0.5c-1.7-0.1-3-1.6-2.9-3.3c0.1-1.7,1.6-3,3.3-2.9c0.6,0,1.2,0.3,1.6,0.6"/>
	<path class="st0" d="M26.9,36.3c-0.3,0.1-0.6,0.1-0.9,0.1c-1.7-0.1-3-1.6-2.9-3.3c0.1-1.7,1.6-3,3.3-2.9c0.7,0,1.4,0.3,1.9,0.8"/>
	<path class="st0" d="M36.4,30.1c-0.3,0.1-0.7,0.1-1,0.1c-1.7-0.1-3-1.6-2.9-3.3c0.1-1.7,1.6-3,3.3-2.9c0.6,0,1.2,0.3,1.6,0.6"/>
	<path class="st0" d="M43.4,82.5c0.6-0.8,1.6-1.3,2.7-1.3c0.3,0,0.7,0.1,1,0.2"/>
	<path class="st0" d="M48.8,85.1c-0.4,1.4-1.7,2.3-3.2,2.2c-0.3,0-0.5-0.1-0.7-0.1"/>
	<path class="st0" d="M73.4,75.9c-8.9,15.1-18.3,17.2-20.6,17c-1.1-0.1-2.4,1.2-1.6,1.9c0.7,0.8,15.5,17.3,16.1,18.1
		c0.7,0.8,1.5,1.7,3.1,1.5c4.7-0.4,15-4.8,20.5-19.3c0.4-1.1,0.8-2.3-0.5-3.5c-1.2-1.2-13.9-14.9-14.1-15.2
		C75.5,75.3,74.1,74.8,73.4,75.9z"/>
	<line class="st1" x1="71.1" y1="74" x2="72.7" y2="77"/>
	<line class="st0" x1="44.2" y1="89" x2="54.8" y2="92.7"/>
	<line class="st0" x1="42.2" y1="78.8" x2="45.5" y2="78.3"/>
	<line class="st0" x1="9.1" y1="54.5" x2="10.1" y2="59"/>
	<line class="st0" x1="13.4" y1="57.3" x2="13.8" y2="55.2"/>
	<line class="st0" x1="11.5" y1="56" x2="11.4" y2="57.3"/>
	<line class="st0" x1="64.2" y1="82.6" x2="66.3" y2="85.4"/>
	<line class="st0" x1="68.4" y1="77.7" x2="70.5" y2="80.1"/>
	<line class="st0" x1="58.9" y1="88.1" x2="60.7" y2="90.1"/>
	<line class="st0" x1="59.3" y1="95.3" x2="68.8" y2="107.7"/>
	<path class="st0" d="M26,65.2c0.6-0.1,1.1,0.1,1.6,0.6"/>
	<path class="st0" d="M25.6,70.3c-0.5,0-1.2-0.3-1.7-0.9"/>
	<path class="st0" d="M24.3,76.9c0.6,0.3,0.8,0.5,1.1,1.1"/>
	<path class="st0" d="M20.7,83.3c-1-0.4-1.3-1-1.6-2"/>
	<line class="st2" x1="48.3" y1="40.5" x2="49.8" y2="39"/>
	<line class="st2" x1="47.5" y1="40.2" x2="49.1" y2="38.6"/>
	<line class="st2" x1="46" y1="40.4" x2="47.4" y2="38.9"/>
	<line class="st2" x1="45.1" y1="40.2" x2="46.1" y2="39.2"/>
	<line class="st2" x1="44.1" y1="40.1" x2="45.7" y2="38.4"/>
	<line class="st2" x1="42.8" y1="39.9" x2="44.2" y2="38.4"/>
	<line class="st2" x1="41.9" y1="39.7" x2="43.1" y2="38.3"/>
	<line class="st2" x1="40.8" y1="39.5" x2="42.3" y2="37.8"/>
	<line class="st2" x1="39.9" y1="39.3" x2="41" y2="37.8"/>
	<line class="st2" x1="38.6" y1="39.1" x2="40.1" y2="37.1"/>
	<line class="st2" x1="37.7" y1="38.9" x2="38.7" y2="37.1"/>
	<line class="st2" x1="35.4" y1="38.5" x2="36.1" y2="37.2"/>
	<line class="st2" x1="36.5" y1="38.9" x2="37.2" y2="37.6"/>
	<line class="st2" x1="34.2" y1="38.7" x2="35.4" y2="36.2"/>
	<line class="st2" x1="33" y1="38.6" x2="34.1" y2="36.7"/>
	<line class="st2" x1="32" y1="38.5" x2="33.3" y2="36"/>
	<line class="st2" x1="31.2" y1="38" x2="32.1" y2="36.1"/>
	<line class="st2" x1="30.1" y1="38" x2="31" y2="36.4"/>
	<line class="st2" x1="29.1" y1="37.9" x2="30.2" y2="35.7"/>
	<line class="st2" x1="41.5" y1="48.8" x2="42.9" y2="47.2"/>
	<line class="st2" x1="40.3" y1="48.6" x2="42.1" y2="46.6"/>
	<line class="st2" x1="39.2" y1="48.5" x2="40.5" y2="47"/>
	<line class="st2" x1="38.3" y1="48.4" x2="39.2" y2="47.3"/>
	<line class="st2" x1="37.2" y1="48.4" x2="38.7" y2="46.5"/>
	<line class="st2" x1="35.9" y1="48.2" x2="37.2" y2="46.6"/>
	<line class="st2" x1="34.8" y1="48.4" x2="36.1" y2="46.7"/>
	<line class="st2" x1="33.7" y1="48.3" x2="35.3" y2="46.1"/>
	<line class="st2" x1="32.8" y1="48.3" x2="34" y2="46.3"/>
	<line class="st2" x1="31.4" y1="48.2" x2="33" y2="45.6"/>
	<line class="st2" x1="30.6" y1="48" x2="31.6" y2="45.8"/>
	<line class="st2" x1="29.6" y1="47.7" x2="30.2" y2="46.4"/>
	<line class="st2" x1="28.6" y1="47.7" x2="29.2" y2="46.4"/>
	<line class="st2" x1="27.2" y1="47.8" x2="28.3" y2="45.1"/>
	<line class="st2" x1="26.1" y1="47.6" x2="27.1" y2="45.6"/>
	<line class="st2" x1="25.2" y1="47.2" x2="26.2" y2="45"/>
	<line class="st2" x1="24.2" y1="47.2" x2="25" y2="45.2"/>
	<line class="st2" x1="23.1" y1="47.2" x2="24" y2="45.6"/>
	<line class="st2" x1="22.1" y1="47.2" x2="23" y2="45"/>
	<line class="st2" x1="36.6" y1="59.1" x2="38" y2="57.6"/>
	<line class="st2" x1="35.5" y1="59.3" x2="37.3" y2="57.2"/>
	<line class="st2" x1="34.3" y1="59.5" x2="35.6" y2="57.9"/>
	<line class="st2" x1="32.9" y1="59.7" x2="33.8" y2="58.5"/>
	<line class="st2" x1="31.7" y1="60" x2="33.2" y2="58.1"/>
	<line class="st2" x1="30.6" y1="59.8" x2="31.9" y2="58.2"/>
	<line class="st2" x1="29.6" y1="59.8" x2="30.6" y2="58.4"/>
	<line class="st2" x1="28.4" y1="60" x2="29.7" y2="58.1"/>
	<line class="st2" x1="27.3" y1="59.7" x2="28.3" y2="58.1"/>
	<line class="st2" x1="26.1" y1="59.7" x2="27.4" y2="57.6"/>
	<line class="st2" x1="25.3" y1="59.5" x2="26.2" y2="57.6"/>
	<line class="st2" x1="23.4" y1="59.1" x2="24.1" y2="57.8"/>
	<line class="st2" x1="24.4" y1="59.3" x2="25" y2="57.9"/>
	<line class="st2" x1="22.4" y1="59" x2="23.3" y2="56.7"/>
	<line class="st2" x1="21.4" y1="58.7" x2="22.2" y2="57"/>
	<line class="st2" x1="20.4" y1="58.4" x2="21.3" y2="56.2"/>
	<line class="st2" x1="19.4" y1="58.1" x2="20.1" y2="56.2"/>
	<line class="st2" x1="18.3" y1="57.6" x2="19.1" y2="55.9"/>
	<line class="st2" x1="17.2" y1="57.5" x2="18.2" y2="55.3"/>
	<line class="st2" x1="52.4" y1="32.7" x2="53.7" y2="31.2"/>
	<line class="st2" x1="50.7" y1="32.5" x2="52.3" y2="30.7"/>
	<line class="st2" x1="49.4" y1="32.4" x2="50.8" y2="30.8"/>
	<line class="st2" x1="48.1" y1="32.4" x2="49.4" y2="30.7"/>
	<line class="st2" x1="47.2" y1="32" x2="48.6" y2="30.2"/>
	<line class="st2" x1="46.3" y1="31.9" x2="47.3" y2="30.3"/>
	<line class="st2" x1="45" y1="31.7" x2="46.3" y2="29.6"/>
	<line class="st2" x1="44.1" y1="31.6" x2="44.9" y2="29.7"/>
	<line class="st2" x1="41.8" y1="31.3" x2="42.5" y2="29.9"/>
	<line class="st2" x1="42.7" y1="31.5" x2="43.4" y2="30.1"/>
	<line class="st2" x1="40.7" y1="31.2" x2="41.7" y2="29"/>
	<line class="st2" x1="39.6" y1="31.1" x2="40.5" y2="29.4"/>
	<line class="st2" x1="38.6" y1="31" x2="39.6" y2="28.8"/>
	<line class="st2" x1="71.7" y1="79.2" x2="72.9" y2="80.5"/>
	<line class="st2" x1="71.1" y1="80.1" x2="72.6" y2="81.7"/>
	<line class="st2" x1="70.4" y1="80.9" x2="71.7" y2="82.1"/>
	<line class="st2" x1="69.7" y1="81.6" x2="71.5" y2="83.4"/>
	<line class="st2" x1="69.3" y1="82.4" x2="70.6" y2="83.5"/>
	<line class="st2" x1="68.6" y1="83.1" x2="70.1" y2="84.3"/>
	<line class="st2" x1="67.8" y1="83.9" x2="69.1" y2="84.8"/>
	<line class="st2" x1="67.5" y1="84.7" x2="69.1" y2="86.1"/>
	<line class="st2" x1="66.7" y1="85.5" x2="67.8" y2="86.5"/>
	<line class="st2" x1="65.9" y1="86.2" x2="67.3" y2="87.7"/>
	<line class="st2" x1="65" y1="87.1" x2="66.2" y2="88.3"/>
	<line class="st2" x1="64.3" y1="87.8" x2="65.5" y2="89.2"/>
	<line class="st2" x1="63.3" y1="88.5" x2="64.7" y2="90.2"/>
	<line class="st2" x1="62.5" y1="89" x2="63.7" y2="90.8"/>
	<line class="st2" x1="61.5" y1="89.5" x2="62.2" y2="90.8"/>
	<line class="st2" x1="60.4" y1="90.2" x2="61.6" y2="91.8"/>
	<line class="st2" x1="60.1" y1="91.9" x2="59.4" y2="90.9"/>
	<line class="st2" x1="58.5" y1="91.7" x2="59.6" y2="93"/>
	<line class="st2" x1="56.8" y1="92.2" x2="58.1" y2="93.6"/>
	<line class="st2" x1="55.2" y1="92.7" x2="56.2" y2="93.8"/>
	<line class="st2" x1="53.5" y1="93" x2="54.7" y2="94.4"/>
	<line class="st2" x1="52.2" y1="93.2" x2="53.2" y2="94.2"/>
	<line class="st2" x1="51.4" y1="93.8" x2="52.8" y2="95.1"/>
	<line class="st2" x1="63.2" y1="107.9" x2="65" y2="106.9"/>
	<line class="st2" x1="63.8" y1="108.9" x2="65.1" y2="108.1"/>
	<line class="st2" x1="64.6" y1="109.8" x2="66.3" y2="108.6"/>
	<line class="st2" x1="65.5" y1="110.7" x2="66.9" y2="109.5"/>
	<line class="st2" x1="66.3" y1="111.6" x2="67.4" y2="110.5"/>
	<line class="st2" x1="67.3" y1="112.4" x2="68" y2="111.3"/>
	<line class="st2" x1="68.2" y1="113.5" x2="68.8" y2="112.2"/>
	<line class="st2" x1="69.3" y1="114.3" x2="69.4" y2="112.9"/>
	<line class="st2" x1="70.7" y1="114.5" x2="70.9" y2="112.9"/>
	<line class="st2" x1="72.1" y1="114.2" x2="72.3" y2="112.4"/>
	<line class="st2" x1="73.4" y1="113.9" x2="73.2" y2="112.5"/>
	<line class="st2" x1="74.6" y1="113.5" x2="74.1" y2="111.6"/>
	<line class="st2" x1="75.6" y1="112.9" x2="75.4" y2="111.6"/>
	<line class="st2" x1="77.2" y1="112.3" x2="76.7" y2="110.7"/>
	<line class="st2" x1="78.4" y1="111.2" x2="77.8" y2="110"/>
	<line class="st2" x1="79.5" y1="110.5" x2="78.9" y2="109.3"/>
	<line class="st2" x1="80.5" y1="109.5" x2="79.9" y2="108.3"/>
	<line class="st2" x1="81.6" y1="108.7" x2="80.8" y2="107.3"/>
	<line class="st2" x1="82.8" y1="107.8" x2="82.1" y2="106.7"/>
	<line class="st2" x1="84" y1="107" x2="83.2" y2="106"/>
	<line class="st2" x1="21.9" y1="70.6" x2="20.1" y2="71.1"/>
	<line class="st2" x1="22.6" y1="71.4" x2="21.1" y2="71.9"/>
	<line class="st2" x1="23.3" y1="72" x2="21.3" y2="72.8"/>
	<line class="st2" x1="23.9" y1="72.7" x2="22.5" y2="73.4"/>
	<line class="st2" x1="24.4" y1="73.2" x2="22.7" y2="74.3"/>
	<line class="st2" x1="24.6" y1="74.3" x2="23.6" y2="75"/>
	<line class="st2" x1="29.5" y1="75.3" x2="28.2" y2="76.3"/>
	<line class="st2" x1="30.5" y1="75.3" x2="29.2" y2="76.6"/>
	<line class="st2" x1="31.3" y1="75.5" x2="30.1" y2="76.9"/>
	<line class="st2" x1="28.8" y1="72.3" x2="30.7" y2="71.1"/>
	<line class="st2" x1="27.6" y1="72.1" x2="29.2" y2="71.1"/>
	<line class="st2" x1="26.8" y1="71.8" x2="28.9" y2="70.2"/>
	<line class="st2" x1="26.1" y1="71.1" x2="27.4" y2="70.1"/>
	<line class="st2" x1="25.5" y1="70.5" x2="27.7" y2="68.7"/>
	<line class="st2" x1="22" y1="70" x2="23.5" y2="68.6"/>
	<line class="st2" x1="21.5" y1="69.4" x2="22.6" y2="68.4"/>
	<line class="st2" x1="20.9" y1="69" x2="22.6" y2="67.4"/>
	<line class="st2" x1="20.2" y1="68.4" x2="21.4" y2="67.1"/>
</g>
</svg>
