<?xml version="1.0" encoding="utf-8"?>
<!-- Generator: Adobe Illustrator 21.1.0, SVG Export Plug-In . SVG Version: 6.00 Build 0)  -->
<svg version="1.1" id="Calque_1" xmlns="http://www.w3.org/2000/svg" xmlns:xlink="http://www.w3.org/1999/xlink" x="0px" y="0px"
	 viewBox="0 0 332 188" style="enable-background:new 0 0 332 188;" xml:space="preserve">
<style type="text/css">
	.st0{fill:none;stroke:#132841;stroke-width:0.7788;stroke-linecap:round;stroke-linejoin:round;stroke-miterlimit:10;}
	.st1{fill:none;stroke:#132841;stroke-width:0.4195;stroke-linecap:round;stroke-linejoin:round;stroke-miterlimit:10;}
	.st2{fill:none;stroke:#132841;stroke-width:0.3894;stroke-linecap:round;stroke-linejoin:round;stroke-miterlimit:10;}
	.st3{fill:none;stroke:#132841;stroke-width:0.4187;stroke-linecap:round;stroke-linejoin:round;stroke-miterlimit:10;}
	.st4{fill:none;stroke:#132841;stroke-width:0.3842;stroke-linecap:round;stroke-linejoin:round;stroke-miterlimit:10;}
	.st5{fill:none;stroke:#132841;stroke-width:0.7684;stroke-linecap:round;stroke-linejoin:round;stroke-miterlimit:10;}
	.st6{fill:none;stroke:#132841;stroke-width:0.384;stroke-linecap:round;stroke-linejoin:round;stroke-miterlimit:10;}
	.st7{fill:none;stroke:#132841;stroke-width:0.768;stroke-linecap:round;stroke-linejoin:round;stroke-miterlimit:10;}
	.st8{fill:none;stroke:#132841;stroke-width:0.8138;stroke-linecap:round;stroke-linejoin:round;stroke-miterlimit:10;}
	.st9{fill:none;stroke:#132841;stroke-width:0.4383;stroke-linecap:round;stroke-linejoin:round;stroke-miterlimit:10;}
	.st10{fill:none;stroke:#132841;stroke-width:0.4069;stroke-linecap:round;stroke-linejoin:round;stroke-miterlimit:10;}
	.st11{fill:none;stroke:#132841;stroke-width:0.4375;stroke-linecap:round;stroke-linejoin:round;stroke-miterlimit:10;}
</style>
<g>
	<path class="st0" d="M260.3,65.5c11.3-10.6,5.7-25.8,3.6-29.8c-3.2-6-5.7-8.8-9.2-10.3c-2.9-1.3-18-6.4-19.7-7.1
		c-2.9-1.2-5.2-0.3-5.9,0.6c-0.7,1-0.1,1.9-0.4,3c-0.4,1.6-2.1,2.6-2.3,4.1c-0.1,1.2,1.8,2.5,1.5,4.9c-0.2,1.7-2.5,2.4-2.8,4
		s1.8,4.3,1.4,6.2c-0.5,2.6-3.9,4.7-4.3,7c-0.3,1.5,1.8,4.3,1.8,5.6c0,2-1.2,4-1.9,5c-1.1,1.7-0.7,3.3,0.6,3.8
		c12.1,4,30.1,6.5,32.9,5.7C257,67.8,258.7,67.1,260.3,65.5z"/>
	<path class="st0" d="M189.7,22.4c-6.1-0.6-10.4-0.4-10.6,3.5c-0.2,3.9,6.6,4.4,9.7,4.6c1,0.1,2.6,0.1,2.2-0.6
		c-0.7-1.2-0.2-5.2,0.8-6.1C192.7,22.9,191,22.5,189.7,22.4z"/>
	<path class="st0" d="M200.7,15.1c-6.1-0.6-9.7,0.1-9.7,3c0,3.9,5.9,3.6,8.9,3.7c1,0.1,2.6,0.1,2.2-0.6c-0.7-1.2-0.3-3.8,0.7-4.8
		C203.7,15.6,202,15.2,200.7,15.1z"/>
	<path class="st0" d="M194,24.1c-0.7,1-1.2,4.1-0.7,5.2c0.7,1.6,1.7,2,2.7,2.1c1.8,0.2,7.8,0.9,9.1,1c1.4,0.1,2.2-0.1,2.1-0.8
		c-0.1-1,0.4-5.1,0.9-6.2c0.4-0.7-0.3-1.1-1.6-1.4c-1.4-0.3-7.7-0.8-9.2-1C196.5,22.9,194.8,23.1,194,24.1z"/>
	<path class="st0" d="M204.6,16.8c-0.5,0.9-1.1,3.3-0.6,4.1c0.7,1.2,1.8,1.6,2.7,1.7c1.8,0.2,2.7,0.1,4,0.2c1.4,0.1,2.2,0,2-0.6
		c-0.1-0.8,0.3-4,0.9-4.9c0.4-0.6-0.3-0.9-1.6-1.1c-1.4-0.3-3-0.4-4.5-0.5C206.1,15.6,205.1,15.9,204.6,16.8z"/>
	<path class="st0" d="M210.9,25.3c-0.6,0.7-1.1,4.8-0.8,5.9c0.2,0.7,0.8,1.5,1.8,1.7c0.5,0.1,6.7,1.1,7.5,1.3c3,0.5,5-2.6,5-3.9
		c0.2-2.8-1-5.3-4.8-5.5c-1.4-0.1-5.6-0.3-6.7-0.3C211.8,24.3,211.5,24.5,210.9,25.3z"/>
	<path class="st0" d="M215.7,17.2c-0.5,0.6-1.1,3.8-0.7,4.7c0.2,0.5,0.8,1.2,1.8,1.3c0.5,0.1,3.6,0.4,4.4,0.6c3,0.4,4.8-1.5,5-3
		c0.2-2.2-0.7-3.7-4.5-4c-1.4-0.1-2.8-0.2-3.9-0.2C216.6,16.4,216.2,16.6,215.7,17.2z"/>
	<path class="st0" d="M193.7,24.4c-0.4-0.4-1-0.6-1.6-0.6"/>
	<path class="st0" d="M191,29.2c0.6,0.4,1.8,0.2,2.2,0"/>
	<path class="st0" d="M210.5,25.9c-0.5-0.5-1.6-0.8-2.2-0.6"/>
	<path class="st0" d="M207.2,30.5c0.4,0.3,2,0.5,2.7,0.1"/>
	<path class="st0" d="M186.4,51c-6-1.3-10-2.7-9.1-6.5c1-3.7,7.7-2.2,10.7-1.4c1,0.3,2.5,0.7,2,1.3c-1,0.9-1.7,4.9-1.1,6.1
		C189.4,51.4,187.7,51.3,186.4,51z"/>
	<path class="st0" d="M191,50.7c-0.4-1.1,0.1-4.3,0.9-5.2c1.1-1.3,2.3-1.3,3.2-1.1c1.7,0.4,7.7,1.5,9,1.8c1.4,0.4,2,0.7,1.7,1.4
		c-0.4,0.9-1.2,5-0.9,6.2c0.1,0.8-0.6,0.9-1.9,0.8c-1.4-0.1-7.6-1.5-9.1-1.8C193,52.6,191.4,51.8,191,50.7z"/>
	<path class="st0" d="M207.5,54.7c-0.3-0.9,0.4-4.9,1.1-5.9c0.4-0.6,1.2-1.2,2.2-1c0.5,0.1,6.7,0.9,7.6,1c3,0.4,3.9,4,3.6,5.3
		c-0.7,2.7-2.5,4.7-6.3,3.8c-1.4-0.4-5.4-1.4-6.5-1.7C208.1,55.9,207.8,55.5,207.5,54.7z"/>
	<path class="st0" d="M185.9,41c-6-1.3-11.7-3-10.7-6.7s9.6-2.4,12.6-1.6c1,0.3,2.5,0.7,2,1.3c-1,0.9-1.7,4.9-1.1,6.1
		C189.2,41,187.2,41.2,185.9,41z"/>
	<path class="st0" d="M205.1,42.2c0,0.2,0,0.4,0,0.6c0.1,0.8-0.6,0.9-1.9,0.8c-1.4-0.1-7.6-1.5-9.1-1.8c-0.8-0.1-2.3-0.9-2.8-2.1
		c-0.4-1.1,0.1-4.3,0.9-5.2c1.1-1.3,2.3-1.3,3.2-1.1c1.7,0.4,7.7,1.5,9,1.8c1.4,0.4,2,0.7,1.7,1.4C205.7,37.4,205.1,40.6,205.1,42.2
		"/>
	<path class="st0" d="M207.6,42.9c-0.3-0.9,0.2-4.9,0.9-5.9c0.4-0.6,1.2-1.2,2.2-1.1c0.5,0.1,6.7,0.7,7.6,0.8c3,0.4,4,3.9,3.8,5.2
		c-0.6,2.7-2.4,4.8-6.2,3.9c-1.4-0.3-5.4-1.3-6.5-1.5C208.2,44.1,207.9,43.8,207.6,42.9z"/>
	<path class="st0" d="M190.8,50.3c-0.5,0.2-1.1,0.3-1.7,0.1"/>
	<path class="st0" d="M189.6,44.9c0.6-0.1,1.7,0.4,2.1,0.7"/>
	<path class="st0" d="M207.3,53.9c-0.6,0.3-1.7,0.2-2.4-0.3"/>
	<path class="st0" d="M205.5,48.5c0.6-0.2,2,0,2.6,0.7"/>
	<path class="st0" d="M191.3,40.1c-0.6,0.3-2,0.4-2.7-0.2"/>
	<path class="st0" d="M189.1,34.9c0.6-0.3,2.1-0.2,2.6,0.2"/>
	<path class="st0" d="M207.4,42.5c-0.5,0.1-0.9,0.1-1.4,0c-0.2-0.1-0.5-0.2-0.7-0.3"/>
	<path class="st0" d="M206.1,37c0.4-0.1,0.9-0.1,1.3,0c0.3,0.1,0.6,0.2,0.8,0.3"/>
	<path class="st0" d="M212.8,21c0.3,0.4,1.4,0.7,2,0.4"/>
	<path class="st0" d="M215.3,18c-0.3-0.2-1.2-0.5-1.8-0.3"/>
	<path class="st0" d="M202,20.3c0.5,0.4,1.3,0.4,1.7,0.1"/>
	<path class="st0" d="M204.2,17.4c-0.3-0.4-1-0.7-1.6-0.6"/>
	<path class="st0" d="M225.4,22.4c0.1,0.3,0.3,0.6,0.6,0.8c0.5,0.4,1.2,0.5,1.8,0.3"/>
	<path class="st0" d="M228.7,20.4c-0.5-0.7-1.7-0.9-2.3-0.4"/>
	<path class="st0" d="M223.7,32.3c0.3,0.6,1.8,1.1,2.7,0.8"/>
	<path class="st0" d="M227,27.6c-0.8-0.5-1.8-0.5-2.7,0.2"/>
	<path class="st0" d="M221.6,43.6c0.5,0.9,1.7,1.5,2.6,1.3"/>
	<path class="st0" d="M226.6,40.7c-0.2-0.5-0.4-0.7-0.8-1c-1.2-0.9-2.8-0.8-3.8,0.3"/>
	<path class="st0" d="M220.9,56.6c0.3,0.4,1.4,0.8,2.1,0.7"/>
	<path class="st0" d="M223.3,51.5c-0.6-0.1-1,0-1.6,0.3"/>
	<path class="st0" d="M248.9,68c0.1,1.8,0.2,3.8-0.1,4.8c-0.4,1.2-1.5,2.5-2.8,2.5c-1.2,0-15.2,2.2-16,2.3c-1.2,0.2-2.1-1.1-2-1.5
		c0.1-0.5,0-6.9-2-8.6c-1-0.9,2.5-2.5,3.6-2.9"/>
	<path class="st0" d="M223.5,76.1c-0.4,1-1.2,3-3.3,3.3c-1.1,0.2-11.3,1.9-13.6,2.2c-1.8,0.3-2.1-0.3-2.4-0.8
		c-1.3-2.8-0.4-7.5,3.8-9.4s10-4.3,10.8-4.5c1.4-0.4,1.9,0.2,2.9,1.2C222.2,68.7,224.7,73,223.5,76.1z"/>
	<path class="st0" d="M266.4,31.2c1,2.3,6.3,17,5.1,23.7c-0.9,5.1-5.5,8.7-6.5,9.9c-1,1.3,0,2.2,1.4,2.2s25-0.1,26.3,0
		c2.2,0.1,2.9-0.8,4-2.3c1.1-1.4,4.6-7.6,5.3-11.5c0.7-3.9-0.2-15.2-3.4-19.1c-1.1-1.4-1.6-1-4.3-1.3c-2.7-0.3-25.2-3.3-25.9-3.2
		S265.6,29.2,266.4,31.2z"/>
	<path class="st0" d="M249,71.6c0.1,0.2,0.4,0.4,0.6,0.6c1.5,1.1,3.6,0.9,4.8-0.6c0.8-1,1-2,0.6-3.1"/>
	<path class="st0" d="M223.8,75.6c1.4,0.8,3,0.6,4.4-0.3"/>
	<path class="st0" d="M226.2,67.6c-1.5-0.2-3,0.6-3.8,1.5"/>
	<path class="st0" d="M263.7,61.5c0.2,0.4,1.4,1.8,2.6,1.7"/>
	<path class="st0" d="M270.1,58.6c-0.4-1.4-2.9-2.3-3.8-2.2"/>
	<line class="st0" x1="291.5" y1="62.2" x2="275.2" y2="61.9"/>
	<line class="st0" x1="267.1" y1="32.8" x2="260.9" y2="30.7"/>
	<line class="st0" x1="270.2" y1="43.1" x2="266.3" y2="42.4"/>
	<line class="st0" x1="268.6" y1="37.2" x2="264.3" y2="36.5"/>
	<line class="st0" x1="271.2" y1="47.8" x2="267.1" y2="47.2"/>
	<line class="st0" x1="271.7" y1="52.7" x2="266.9" y2="53.3"/>
	<line class="st1" x1="268.6" y1="36.2" x2="270.9" y2="35.9"/>
	<line class="st2" x1="270.8" y1="57.5" x2="273.4" y2="57.2"/>
	<line class="st2" x1="271.6" y1="56.4" x2="273.7" y2="56.4"/>
	<line class="st2" x1="271.6" y1="55.3" x2="274.6" y2="55.2"/>
	<line class="st2" x1="271.8" y1="54.2" x2="273.9" y2="54.3"/>
	<line class="st2" x1="271.8" y1="53" x2="274.1" y2="53.2"/>
	<line class="st2" x1="271.9" y1="51.7" x2="273.7" y2="52"/>
	<line class="st2" x1="271.7" y1="50.8" x2="274.2" y2="50.9"/>
	<line class="st2" x1="271.8" y1="49.6" x2="273.5" y2="49.6"/>
	<line class="st2" x1="271.5" y1="48" x2="273.9" y2="47.9"/>
	<line class="st2" x1="271.3" y1="46.8" x2="273.2" y2="46.8"/>
	<line class="st2" x1="271" y1="45.6" x2="273.2" y2="45.4"/>
	<line class="st2" x1="270.7" y1="44.4" x2="273.2" y2="44.1"/>
	<line class="st2" x1="270.4" y1="43.3" x2="273" y2="42.7"/>
	<line class="st2" x1="270.1" y1="41.8" x2="271.7" y2="41.3"/>
	<line class="st2" x1="269.7" y1="40.4" x2="272" y2="40"/>
	<line class="st2" x1="270.7" y1="38.7" x2="269.3" y2="38.8"/>
	<line class="st2" x1="268.9" y1="37.6" x2="271" y2="37.4"/>
	<line class="st2" x1="267.9" y1="35.2" x2="270.2" y2="35"/>
	<line class="st2" x1="267.7" y1="34" x2="269.5" y2="33.9"/>
	<line class="st2" x1="267.1" y1="32.6" x2="269.2" y2="32.3"/>
	<line class="st2" x1="266.6" y1="31.4" x2="268.3" y2="31.3"/>
	<line class="st2" x1="288.6" y1="32.3" x2="288.8" y2="34.7"/>
	<line class="st2" x1="290" y1="32.3" x2="290.1" y2="34.1"/>
	<line class="st2" x1="291.4" y1="32.6" x2="291.2" y2="35"/>
	<line class="st2" x1="292.9" y1="32.9" x2="292.5" y2="35.1"/>
	<line class="st2" x1="294.2" y1="33.1" x2="293.7" y2="34.9"/>
	<line class="st2" x1="295.9" y1="32.9" x2="295.3" y2="34.4"/>
	<line class="st2" x1="297.6" y1="33.3" x2="296.6" y2="34.7"/>
	<line class="st2" x1="298.8" y1="34.5" x2="297.4" y2="35.5"/>
	<line class="st2" x1="299.8" y1="35.7" x2="298.3" y2="36.9"/>
	<line class="st2" x1="300.4" y1="37.3" x2="298.7" y2="38.5"/>
	<line class="st2" x1="300.8" y1="38.8" x2="299.3" y2="39.4"/>
	<line class="st2" x1="301.2" y1="40.2" x2="299.1" y2="40.9"/>
	<line class="st2" x1="301.2" y1="41.6" x2="299.8" y2="42.1"/>
	<line class="st2" x1="301.6" y1="43.5" x2="299.8" y2="44"/>
	<line class="st2" x1="301.8" y1="45.1" x2="300.2" y2="45.3"/>
	<line class="st2" x1="301.8" y1="46.6" x2="300.3" y2="46.8"/>
	<line class="st2" x1="302" y1="48.1" x2="300.5" y2="48.3"/>
	<line class="st2" x1="301.9" y1="49.9" x2="300" y2="49.9"/>
	<line class="st2" x1="302.1" y1="51.8" x2="300.5" y2="51.8"/>
	<line class="st2" x1="301.7" y1="53.3" x2="300.2" y2="53.2"/>
	<line class="st2" x1="223.7" y1="18.1" x2="223" y2="17.3"/>
	<line class="st2" x1="222.3" y1="18" x2="221.4" y2="16.8"/>
	<line class="st2" x1="221.4" y1="18.3" x2="220.4" y2="16.9"/>
	<line class="st2" x1="219.9" y1="17.8" x2="219.2" y2="16.9"/>
	<line class="st2" x1="218.4" y1="17.5" x2="217.7" y2="16.7"/>
	<line class="st2" x1="217.6" y1="18" x2="216.5" y2="16.8"/>
	<line class="st2" x1="216.7" y1="18.5" x2="215.8" y2="17.4"/>
	<line class="st2" x1="211.4" y1="17.4" x2="210.4" y2="16.1"/>
	<line class="st2" x1="209.7" y1="17.2" x2="208.8" y2="15.9"/>
	<line class="st2" x1="208.3" y1="17.2" x2="207.3" y2="15.9"/>
	<line class="st2" x1="206.9" y1="17.1" x2="206.1" y2="16.1"/>
	<line class="st2" x1="206.1" y1="17.7" x2="205" y2="16.5"/>
	<line class="st2" x1="201.4" y1="16.2" x2="200.6" y2="15.2"/>
	<line class="st2" x1="200.2" y1="16.3" x2="199" y2="15.1"/>
	<line class="st2" x1="198.7" y1="15.8" x2="197.9" y2="15"/>
	<line class="st2" x1="197.4" y1="15.7" x2="196.7" y2="15"/>
	<line class="st2" x1="219.2" y1="25.6" x2="218.5" y2="24.8"/>
	<line class="st3" x1="217.3" y1="26.5" x2="215.9" y2="24.6"/>
	<line class="st2" x1="215.8" y1="25.9" x2="214.8" y2="24.6"/>
	<line class="st2" x1="218.2" y1="25.8" x2="217.1" y2="24.5"/>
	<line class="st2" x1="214.4" y1="25.9" x2="213.2" y2="24.4"/>
	<line class="st2" x1="213" y1="25.9" x2="212" y2="24.6"/>
	<line class="st2" x1="212" y1="26.4" x2="211.4" y2="25.2"/>
	<line class="st2" x1="205.6" y1="24.7" x2="205" y2="23.9"/>
	<line class="st2" x1="204.7" y1="25.1" x2="203.6" y2="23.9"/>
	<line class="st2" x1="202.9" y1="25" x2="201.9" y2="23.6"/>
	<line class="st2" x1="201.6" y1="24.9" x2="200.8" y2="23.5"/>
	<line class="st2" x1="200.3" y1="24.8" x2="199.4" y2="23.5"/>
	<line class="st2" x1="198.9" y1="24.7" x2="198" y2="23.2"/>
	<line class="st2" x1="197.3" y1="24.1" x2="196.5" y2="23.1"/>
	<line class="st2" x1="196.3" y1="24.6" x2="195.3" y2="23.4"/>
	<line class="st2" x1="195.3" y1="25.1" x2="194.4" y2="23.6"/>
	<line class="st2" x1="190.4" y1="23.7" x2="189.4" y2="22.5"/>
	<line class="st2" x1="189" y1="23.4" x2="188" y2="22.2"/>
	<line class="st2" x1="187.7" y1="23.5" x2="186.8" y2="22.3"/>
	<line class="st2" x1="217.9" y1="38.3" x2="217" y2="37"/>
	<line class="st2" x1="216.5" y1="38.4" x2="215.4" y2="36.7"/>
	<line class="st2" x1="215.3" y1="37.8" x2="214.3" y2="36.6"/>
	<line class="st2" x1="212.6" y1="37.5" x2="211.8" y2="36.3"/>
	<line class="st2" x1="213.7" y1="37.6" x2="212.9" y2="36.4"/>
	<line class="st2" x1="211.5" y1="37.5" x2="210.5" y2="36.2"/>
	<line class="st2" x1="210.4" y1="37.9" x2="209.3" y2="36.5"/>
	<line class="st2" x1="203.1" y1="36.5" x2="202.4" y2="35.2"/>
	<line class="st2" x1="202.1" y1="36.3" x2="200.9" y2="34.9"/>
	<line class="st2" x1="200.5" y1="36" x2="199.5" y2="34.6"/>
	<line class="st2" x1="199.2" y1="35.5" x2="198.2" y2="34.3"/>
	<line class="st2" x1="197.5" y1="35.1" x2="196.9" y2="34"/>
	<line class="st2" x1="196.1" y1="34.9" x2="195.2" y2="33.7"/>
	<line class="st2" x1="194.7" y1="35.1" x2="193.7" y2="33.8"/>
	<line class="st2" x1="204.6" y1="36.9" x2="203.5" y2="35.3"/>
	<line class="st2" x1="188.6" y1="33.9" x2="187.3" y2="32.6"/>
	<line class="st2" x1="187.1" y1="33.8" x2="186" y2="32.5"/>
	<line class="st2" x1="185.6" y1="33.5" x2="184.7" y2="32.2"/>
	<line class="st2" x1="184.2" y1="33.1" x2="183.5" y2="32"/>
	<line class="st2" x1="218.3" y1="51.2" x2="216.4" y2="48.8"/>
	<line class="st2" x1="214.6" y1="50.1" x2="213.2" y2="48.4"/>
	<line class="st2" x1="215.9" y1="50.3" x2="214.5" y2="48.5"/>
	<line class="st2" x1="212.8" y1="49.7" x2="211.9" y2="48.3"/>
	<line class="st2" x1="211.4" y1="49.5" x2="210.1" y2="47.8"/>
	<line class="st2" x1="209.9" y1="49.1" x2="209" y2="48.2"/>
	<line class="st2" x1="204.2" y1="47.3" x2="203.1" y2="46.2"/>
	<line class="st2" x1="202.8" y1="47.3" x2="201.8" y2="46"/>
	<line class="st2" x1="201.4" y1="47" x2="200.1" y2="45.5"/>
	<line class="st2" x1="199.7" y1="46.5" x2="198.9" y2="45.4"/>
	<line class="st2" x1="198.4" y1="46.2" x2="197.7" y2="45.3"/>
	<line class="st2" x1="197.2" y1="45.6" x2="196.5" y2="44.6"/>
	<line class="st2" x1="195.9" y1="45.5" x2="194.8" y2="44.3"/>
	<line class="st2" x1="194.6" y1="45.5" x2="193.6" y2="44.3"/>
	<line class="st2" x1="188.2" y1="44.3" x2="187.1" y2="43"/>
	<line class="st2" x1="186.8" y1="44" x2="185.8" y2="42.7"/>
	<line class="st2" x1="185.5" y1="43.6" x2="184.7" y2="42.5"/>
	<line class="st2" x1="230.8" y1="65.7" x2="229" y2="65"/>
	<line class="st2" x1="229.5" y1="66.4" x2="227.7" y2="65.8"/>
	<line class="st2" x1="228.4" y1="67" x2="226.6" y2="66.4"/>
	<line class="st2" x1="219.9" y1="67.7" x2="218.2" y2="67.1"/>
	<line class="st2" x1="219.2" y1="68.4" x2="217" y2="67.6"/>
	<line class="st2" x1="217.3" y1="68.8" x2="215.5" y2="68.1"/>
	<line class="st2" x1="216.3" y1="69.7" x2="214.4" y2="68.9"/>
	<line class="st2" x1="215" y1="70.3" x2="213.1" y2="69.6"/>
	<line class="st2" x1="213.3" y1="70.7" x2="211.6" y2="70.1"/>
	<line class="st2" x1="211.8" y1="71" x2="210.4" y2="70.5"/>
</g>
<g>
	<line class="st4" x1="41.1" y1="33.1" x2="41.4" y2="34.9"/>
	<line class="st4" x1="39.2" y1="32.6" x2="39.7" y2="34"/>
	<line class="st4" x1="36.9" y1="32.1" x2="37.8" y2="33.5"/>
	<line class="st4" x1="35.6" y1="33.4" x2="37" y2="34.5"/>
	<line class="st4" x1="35" y1="34.5" x2="36.4" y2="35.7"/>
	<line class="st4" x1="34.5" y1="35.5" x2="36.1" y2="36.8"/>
	<line class="st4" x1="33.6" y1="37" x2="35.1" y2="37.8"/>
	<line class="st4" x1="33.1" y1="38.4" x2="35.1" y2="39.2"/>
	<line class="st4" x1="32.5" y1="39.5" x2="33.8" y2="40.1"/>
	<g>
		<path class="st5" d="M38.5,61.9c5-0.7,19.5-0.5,22.8-0.6c3.2-0.1,9.5,0.8,14.4,4.5c4.9,3.7,12.4,9.2,17.5,8.8
			c5.1-0.4,20.3,2.5,22.8,3.1c1.8,7.7,11.3,5.8,13,0.3c1.5-4.7-5.6-11.2-10.2-6.9c-4.4-1.2-13.7-5.4-15.2-6s-2.1-1.2-0.1-2.2
			c10.9-5.6,29.3-10.3,40.8-10.8c3.1,6,12.8,3.6,12.7-2.7c-0.1-5.8-8.3-8.5-12.7-2.6c-2.6,0.1-24.8,0.6-25.9,0.5s-1.1-0.6,1.2-1.5
			c3.5-1.3,19.5-5,29.1-4.9c2.5,5.4,12.3,2.7,12.7-3.5c0.3-5.1-8.9-9.1-12.2-2.3c-3.7,0.4-30.9,1-32.2,1.1c-1.4,0.1-1-0.8,1-1.3
			c1.9-0.5,17.8-3.8,26.1-3.6c2.8,3.4,10.7,1.5,10.6-4c-0.1-6.8-9.2-6.7-11.7-0.9c-3.4,0.5-25.4-0.9-26.8-0.7
			c-1.4,0.1-0.5-1.3,1-1.3s18.2-1.8,19.4-1.5c2.6,4.8,8.8,2,8.8-2.3c0.1-3.7-5.2-6.9-8.7-2.4c-6.2,0.5-17-0.7-25.7-1.3
			c-9.7-0.7-19,2.6-25.9,5.1c-6.5,2.3-16,9.6-22.2,10.9c-6.2,1.3-18.2,1.5-26.2-1.4C28.4,43.2,29.4,53.9,38.5,61.9z"/>
		<line class="st5" x1="100.9" y1="46.8" x2="104.7" y2="46.5"/>
		<line class="st5" x1="98.7" y1="35.2" x2="103.9" y2="34.7"/>
		<line class="st5" x1="101.9" y1="27.1" x2="104.9" y2="26.6"/>
		<line class="st4" x1="46.6" y1="34" x2="46.3" y2="36.3"/>
		<line class="st4" x1="45.5" y1="33.6" x2="45.3" y2="35.4"/>
		<line class="st4" x1="44" y1="33.6" x2="44.1" y2="35.9"/>
		<line class="st4" x1="42.5" y1="33.3" x2="42.7" y2="35.5"/>
		<line class="st4" x1="32.1" y1="41" x2="33.9" y2="41.6"/>
		<line class="st4" x1="31.6" y1="42.7" x2="33.2" y2="42.9"/>
		<line class="st4" x1="31.4" y1="44" x2="32.9" y2="44.2"/>
		<line class="st4" x1="31.2" y1="45.6" x2="32.6" y2="45.8"/>
		<line class="st4" x1="31.2" y1="47" x2="33.1" y2="47.1"/>
		<line class="st4" x1="31.2" y1="48.4" x2="32.7" y2="48.5"/>
		<line class="st4" x1="31.4" y1="49.7" x2="32.9" y2="49.7"/>
		<line class="st4" x1="119.3" y1="19.5" x2="120.7" y2="18.1"/>
		<line class="st4" x1="120.9" y1="19.5" x2="122.1" y2="18"/>
		<line class="st4" x1="122.3" y1="19.8" x2="123.6" y2="18.1"/>
		<line class="st4" x1="123.7" y1="19.9" x2="124.9" y2="18.4"/>
		<line class="st4" x1="124.3" y1="20.5" x2="126.1" y2="18.3"/>
		<line class="st4" x1="128.9" y1="19.6" x2="130.1" y2="18.5"/>
		<line class="st4" x1="130" y1="19.9" x2="131.4" y2="18.4"/>
		<line class="st4" x1="126.3" y1="19.6" x2="127.1" y2="18.4"/>
		<line class="st4" x1="127.4" y1="19.9" x2="128.8" y2="18.4"/>
		<line class="st4" x1="131.6" y1="19.6" x2="132.6" y2="18.6"/>
		<line class="st4" x1="132.8" y1="19.6" x2="134" y2="18.4"/>
		<line class="st4" x1="127" y1="37.8" x2="128.2" y2="36"/>
		<line class="st4" x1="127.6" y1="38.4" x2="129.7" y2="36"/>
		<line class="st4" x1="129.5" y1="37.6" x2="130.7" y2="36.3"/>
		<line class="st4" x1="130.9" y1="37.3" x2="131.9" y2="36.2"/>
		<line class="st4" x1="132.5" y1="37.1" x2="133.3" y2="36.1"/>
		<line class="st4" x1="133.2" y1="37.8" x2="135" y2="35.9"/>
		<line class="st4" x1="134.5" y1="38.2" x2="136.7" y2="35.9"/>
		<line class="st4" x1="125.4" y1="38" x2="127.2" y2="36.1"/>
		<line class="st4" x1="137.2" y1="37.1" x2="138.1" y2="35.7"/>
		<line class="st4" x1="138.7" y1="37" x2="139.6" y2="35.7"/>
		<line class="st4" x1="140.1" y1="37" x2="141.1" y2="35.8"/>
		<line class="st4" x1="141.6" y1="36.7" x2="142.3" y2="35.7"/>
		<line class="st4" x1="122.5" y1="28.2" x2="123.8" y2="26.4"/>
		<line class="st4" x1="123.1" y1="28.9" x2="125.2" y2="26.4"/>
		<line class="st4" x1="125.1" y1="28.1" x2="126.6" y2="26.4"/>
		<line class="st4" x1="126.5" y1="27.9" x2="127.7" y2="26.5"/>
		<line class="st4" x1="128.1" y1="27.7" x2="129.2" y2="26.4"/>
		<line class="st4" x1="128.8" y1="28.5" x2="130.6" y2="26.7"/>
		<line class="st4" x1="130" y1="29" x2="132.4" y2="26.8"/>
		<line class="st4" x1="120.9" y1="28.3" x2="122.7" y2="26.1"/>
		<line class="st4" x1="132.7" y1="27.9" x2="133.8" y2="26.6"/>
		<line class="st4" x1="134.2" y1="28" x2="135.3" y2="26.7"/>
		<line class="st4" x1="135.7" y1="28" x2="136.8" y2="26.9"/>
		<line class="st4" x1="137.1" y1="27.8" x2="138" y2="26.8"/>
		<line class="st4" x1="121.5" y1="48.5" x2="122.8" y2="47.6"/>
		<line class="st4" x1="122.4" y1="49.2" x2="124.1" y2="47.6"/>
		<line class="st4" x1="123.6" y1="49.3" x2="125.9" y2="47.4"/>
		<line class="st4" x1="125.3" y1="49.3" x2="127" y2="47.6"/>
		<line class="st4" x1="127.4" y1="48.4" x2="128.6" y2="47.3"/>
		<line class="st4" x1="127.9" y1="49.1" x2="129.4" y2="47.2"/>
		<line class="st4" x1="129.9" y1="48.2" x2="131.2" y2="47.2"/>
		<line class="st4" x1="131.2" y1="48.4" x2="132.3" y2="47.5"/>
		<line class="st4" x1="132.6" y1="48.4" x2="133.8" y2="47.3"/>
		<line class="st4" x1="133.4" y1="48.7" x2="134.6" y2="47.2"/>
		<line class="st4" x1="135.1" y1="48.1" x2="136.4" y2="47.2"/>
		<line class="st4" x1="136.3" y1="48.4" x2="137.5" y2="47.4"/>
		<line class="st4" x1="137.5" y1="48.4" x2="139.4" y2="47"/>
		<line class="st4" x1="139" y1="48.3" x2="140.2" y2="47.3"/>
		<line class="st4" x1="140.4" y1="47.9" x2="141.4" y2="47"/>
		<line class="st4" x1="104" y1="66.9" x2="105.7" y2="66.1"/>
		<line class="st4" x1="105.3" y1="67.6" x2="107" y2="66.8"/>
		<line class="st4" x1="106.4" y1="68.1" x2="108.1" y2="67.4"/>
		<line class="st4" x1="107.8" y1="68.8" x2="109.4" y2="68.1"/>
		<line class="st4" x1="108.5" y1="69.4" x2="110.6" y2="68.5"/>
		<line class="st4" x1="110.4" y1="69.7" x2="112.1" y2="69"/>
		<line class="st4" x1="111.3" y1="70.5" x2="113.8" y2="69.5"/>
		<line class="st4" x1="112.7" y1="71.1" x2="114.9" y2="70.2"/>
		<line class="st4" x1="114.4" y1="71.4" x2="116" y2="70.7"/>
		<line class="st4" x1="115.9" y1="71.7" x2="117.2" y2="71.1"/>
	</g>
</g>
<g>
	<line class="st6" x1="38.9" y1="150.2" x2="39.2" y2="148.4"/>
	<line class="st6" x1="37" y1="150.6" x2="37.5" y2="149.2"/>
	<line class="st6" x1="34.7" y1="151.2" x2="35.6" y2="149.7"/>
	<line class="st6" x1="33.4" y1="149.8" x2="34.8" y2="148.8"/>
	<line class="st6" x1="32.8" y1="148.7" x2="34.2" y2="147.5"/>
	<line class="st6" x1="32.3" y1="147.7" x2="33.9" y2="146.4"/>
	<line class="st6" x1="31.4" y1="146.2" x2="32.9" y2="145.5"/>
	<line class="st6" x1="30.9" y1="144.9" x2="32.9" y2="144"/>
	<line class="st6" x1="30.3" y1="143.7" x2="31.6" y2="143.1"/>
	<g>
		<path class="st7" d="M36.3,121.3c5,0.7,19.5,0.5,22.7,0.6s9.5-0.8,14.4-4.5s12.4-9.2,17.5-8.8c5.1,0.4,20.3-2.5,22.8-3.1
			c1.8-7.7,11.3-5.7,13-0.3c1.5,4.7-5.6,11.2-10.1,6.9c-4.4,1.2-13.7,5.4-15.2,6s-2.1,1.2-0.1,2.2c10.9,5.6,29.3,10.3,40.8,10.8
			c3.1-6,12.8-3.6,12.7,2.7c-0.1,5.8-8.3,8.5-12.7,2.6c-2.6-0.1-24.8-0.6-25.9-0.5s-1.1,0.6,1.2,1.5c3.5,1.3,19.5,5,29,4.9
			c2.5-5.4,12.3-2.7,12.7,3.5c0.3,5.1-8.9,9.1-12.2,2.3c-3.7-0.4-30.8-1-32.2-1.1c-1.4-0.1-1,0.8,1,1.3c1.9,0.5,17.8,3.8,26.1,3.6
			c2.8-3.4,10.7-1.5,10.6,4c-0.1,6.8-9.2,6.7-11.6,0.9c-3.4-0.5-25.4,0.9-26.8,0.7c-1.4-0.1-0.5,1.3,1,1.3s18.1,1.8,19.4,1.5
			c2.6-4.8,8.8-2,8.8,2.3c0.1,3.7-5.2,6.9-8.7,2.4c-6.2-0.5-17,0.7-25.7,1.3c-9.7,0.7-19-2.6-25.9-5.1c-6.5-2.3-16-9.6-22.2-10.9
			c-6.2-1.3-18.2-1.5-26.2,1.4C26.2,140.1,27.3,129.4,36.3,121.3z"/>
		<line class="st7" x1="98.6" y1="136.4" x2="102.4" y2="136.8"/>
		<line class="st7" x1="96.4" y1="148" x2="101.6" y2="148.6"/>
		<line class="st7" x1="99.7" y1="156.1" x2="102.7" y2="156.6"/>
		<line class="st6" x1="44.4" y1="149.3" x2="44.1" y2="146.9"/>
		<line class="st6" x1="43.3" y1="149.6" x2="43.1" y2="147.9"/>
		<line class="st6" x1="41.8" y1="149.7" x2="41.9" y2="147.3"/>
		<line class="st6" x1="40.3" y1="149.9" x2="40.5" y2="147.7"/>
		<line class="st6" x1="29.9" y1="142.2" x2="31.7" y2="141.6"/>
		<line class="st6" x1="29.5" y1="140.6" x2="31" y2="140.4"/>
		<line class="st6" x1="29.2" y1="139.2" x2="30.7" y2="139"/>
		<line class="st6" x1="29" y1="137.7" x2="30.4" y2="137.5"/>
		<line class="st6" x1="29" y1="136.3" x2="30.9" y2="136.2"/>
		<line class="st6" x1="29" y1="134.9" x2="30.6" y2="134.8"/>
		<line class="st6" x1="29.2" y1="133.5" x2="30.7" y2="133.6"/>
		<line class="st6" x1="117" y1="163.7" x2="118.4" y2="165.1"/>
		<line class="st6" x1="118.7" y1="163.7" x2="119.9" y2="165.2"/>
		<line class="st6" x1="120.1" y1="163.4" x2="121.3" y2="165.1"/>
		<line class="st6" x1="121.5" y1="163.3" x2="122.6" y2="164.9"/>
		<line class="st6" x1="122.1" y1="162.7" x2="123.8" y2="165"/>
		<line class="st6" x1="126.6" y1="163.7" x2="127.8" y2="164.7"/>
		<line class="st6" x1="127.8" y1="163.3" x2="129.2" y2="164.8"/>
		<line class="st6" x1="124" y1="163.7" x2="124.9" y2="164.9"/>
		<line class="st6" x1="125.1" y1="163.3" x2="126.6" y2="164.8"/>
		<line class="st6" x1="129.3" y1="163.6" x2="130.4" y2="164.6"/>
		<line class="st6" x1="130.6" y1="163.6" x2="131.7" y2="164.8"/>
		<line class="st6" x1="124.7" y1="145.4" x2="126" y2="147.2"/>
		<line class="st6" x1="125.3" y1="144.8" x2="127.4" y2="147.2"/>
		<line class="st6" x1="127.3" y1="145.7" x2="128.4" y2="146.9"/>
		<line class="st6" x1="128.7" y1="146" x2="129.7" y2="147"/>
		<line class="st6" x1="130.3" y1="146.2" x2="131.1" y2="147.2"/>
		<line class="st6" x1="131" y1="145.4" x2="132.8" y2="147.3"/>
		<line class="st6" x1="132.2" y1="145" x2="134.5" y2="147.3"/>
		<line class="st6" x1="123.2" y1="145.2" x2="124.9" y2="147.2"/>
		<line class="st6" x1="134.9" y1="146.2" x2="135.9" y2="147.5"/>
		<line class="st6" x1="136.4" y1="146.2" x2="137.4" y2="147.6"/>
		<line class="st6" x1="137.9" y1="146.3" x2="138.9" y2="147.4"/>
		<line class="st6" x1="139.3" y1="146.6" x2="140.1" y2="147.6"/>
		<line class="st6" x1="120.3" y1="155" x2="121.6" y2="156.8"/>
		<line class="st6" x1="120.9" y1="154.4" x2="122.9" y2="156.9"/>
		<line class="st6" x1="122.9" y1="155.2" x2="124.4" y2="156.8"/>
		<line class="st6" x1="124.2" y1="155.4" x2="125.5" y2="156.8"/>
		<line class="st6" x1="125.9" y1="155.5" x2="127" y2="156.8"/>
		<line class="st6" x1="126.5" y1="154.7" x2="128.4" y2="156.5"/>
		<line class="st6" x1="127.7" y1="154.2" x2="130.1" y2="156.5"/>
		<line class="st6" x1="118.7" y1="154.9" x2="120.4" y2="157.1"/>
		<line class="st6" x1="130.5" y1="155.3" x2="131.5" y2="156.6"/>
		<line class="st6" x1="132" y1="155.2" x2="133" y2="156.6"/>
		<line class="st6" x1="133.5" y1="155.2" x2="134.5" y2="156.3"/>
		<line class="st6" x1="134.9" y1="155.5" x2="135.7" y2="156.4"/>
		<line class="st6" x1="119.3" y1="134.8" x2="120.5" y2="135.7"/>
		<line class="st6" x1="120.1" y1="134" x2="121.9" y2="135.6"/>
		<line class="st6" x1="121.3" y1="134" x2="123.6" y2="135.9"/>
		<line class="st6" x1="123.1" y1="134" x2="124.8" y2="135.7"/>
		<line class="st6" x1="125.2" y1="134.8" x2="126.4" y2="136"/>
		<line class="st6" x1="125.6" y1="134.1" x2="127.2" y2="136"/>
		<line class="st6" x1="127.6" y1="135.1" x2="128.9" y2="136"/>
		<line class="st6" x1="128.9" y1="134.8" x2="130.1" y2="135.8"/>
		<line class="st6" x1="130.3" y1="134.8" x2="131.5" y2="136"/>
		<line class="st6" x1="131.2" y1="134.5" x2="132.4" y2="136"/>
		<line class="st6" x1="132.8" y1="135.1" x2="134.1" y2="136"/>
		<line class="st6" x1="134.1" y1="134.8" x2="135.3" y2="135.8"/>
		<line class="st6" x1="135.3" y1="134.8" x2="137.1" y2="136.3"/>
		<line class="st6" x1="136.7" y1="134.9" x2="137.9" y2="135.9"/>
		<line class="st6" x1="138.2" y1="135.3" x2="139.1" y2="136.2"/>
		<line class="st6" x1="101.7" y1="116.4" x2="103.5" y2="117.1"/>
		<line class="st6" x1="103.1" y1="115.7" x2="104.8" y2="116.4"/>
		<line class="st6" x1="104.2" y1="115.2" x2="105.9" y2="115.9"/>
		<line class="st6" x1="105.5" y1="114.5" x2="107.2" y2="115.2"/>
		<line class="st6" x1="106.3" y1="113.9" x2="108.3" y2="114.8"/>
		<line class="st6" x1="108.2" y1="113.6" x2="109.9" y2="114.3"/>
		<line class="st6" x1="109.1" y1="112.7" x2="111.5" y2="113.8"/>
		<line class="st6" x1="110.4" y1="112.1" x2="112.7" y2="113.1"/>
		<line class="st6" x1="112.1" y1="111.8" x2="113.8" y2="112.5"/>
		<line class="st6" x1="113.7" y1="111.6" x2="115" y2="112.2"/>
	</g>
</g>
<g>
	<path class="st8" d="M261.8,117.4c11.8,11.1,5.9,27,3.7,31.2c-3.3,6.3-6,9.2-9.6,10.8c-3.1,1.4-18.8,6.7-20.5,7.4
		c-3,1.2-5.4,0.4-6.2-0.6s-0.1-2-0.4-3.2c-0.4-1.7-2.2-2.7-2.4-4.3c-0.2-1.3,1.9-2.6,1.5-5.2c-0.2-1.7-2.6-2.5-2.9-4.2
		c-0.3-1.6,1.9-4.5,1.5-6.5c-0.5-2.7-4.1-5-4.5-7.3c-0.3-1.5,1.8-4.5,1.8-5.8c0-2.1-1.3-4.2-2-5.3c-1.2-1.7-0.7-3.5,0.6-3.9
		c12.7-4.1,31.4-6.8,34.3-6C258.4,115,260.1,115.8,261.8,117.4z"/>
	<path class="st8" d="M188,162.5c-6.4,0.6-10.9,0.4-11.1-3.6c-0.2-4,6.9-4.6,10.2-4.8c1.1-0.1,2.8-0.1,2.3,0.6
		c-0.7,1.2-0.2,5.4,0.8,6.4C191.2,162,189.4,162.4,188,162.5z"/>
	<path class="st8" d="M199.5,170.1c-6.4,0.6-10.2-0.1-10.2-3.1c0-4,6.1-3.7,9.3-3.9c1.1-0.1,2.8-0.1,2.3,0.6c-0.7,1.2-0.3,4,0.7,5
		C202.6,169.6,200.8,170,199.5,170.1z"/>
	<path class="st8" d="M192.5,160.7c-0.8-1-1.2-4.3-0.7-5.5c0.7-1.6,1.8-2,2.8-2.1c1.9-0.2,8.2-0.9,9.5-1c1.5-0.1,2.3,0.1,2.1,0.9
		c-0.1,1,0.4,5.3,1,6.4c0.4,0.7-0.3,1.1-1.7,1.4c-1.5,0.3-8,0.9-9.6,1.1C195.1,162,193.3,161.7,192.5,160.7z"/>
	<path class="st8" d="M203.6,168.3c-0.5-0.9-1.2-3.4-0.7-4.3c0.7-1.3,1.8-1.6,2.8-1.7c1.9-0.2,2.9-0.1,4.2-0.2
		c1.5-0.1,2.2,0,2.1,0.7c-0.1,0.8,0.4,4.2,0.9,5.1c0.4,0.6-0.3,0.9-1.7,1.1c-1.5,0.3-3.1,0.4-4.7,0.5
		C205.1,169.6,204.1,169.3,203.6,168.3z"/>
	<path class="st8" d="M210.2,159.5c-0.6-0.8-1.2-5-0.8-6.2c0.2-0.7,0.8-1.6,1.9-1.7c0.5-0.1,7-1.2,7.9-1.3c3.1-0.5,5.2,2.8,5.3,4.1
		c0.2,2.9-1,5.5-5.1,5.7c-1.5,0.1-5.8,0.3-7,0.3C211.1,160.5,210.7,160.3,210.2,159.5z"/>
	<path class="st8" d="M215.1,168c-0.6-0.6-1.1-3.9-0.7-4.9c0.2-0.5,0.9-1.3,1.9-1.4c0.5-0.1,3.7-0.5,4.6-0.6
		c3.1-0.4,5.1,1.6,5.2,3.2c0.2,2.3-0.7,3.9-4.7,4.1c-1.5,0.1-3,0.2-4.1,0.2C216.1,168.8,215.7,168.6,215.1,168z"/>
	<path class="st8" d="M192.2,160.4c-0.5,0.4-1,0.6-1.7,0.7"/>
	<path class="st8" d="M189.3,155.4c0.7-0.4,1.8-0.2,2.3,0"/>
	<path class="st8" d="M209.7,158.8c-0.5,0.5-1.7,0.9-2.3,0.7"/>
	<path class="st8" d="M206.3,154c0.4-0.3,2.1-0.6,2.8-0.1"/>
	<path class="st8" d="M184.6,132.6c-6.2,1.4-10.5,2.9-9.5,6.8c1,3.9,8,2.3,11.1,1.5c1-0.3,2.6-0.8,2-1.3c-1-0.9-1.8-5.1-1.1-6.3
		C187.7,132.2,185.9,132.3,184.6,132.6z"/>
	<path class="st8" d="M189.4,133c-0.4,1.2,0.2,4.5,0.9,5.4c1.1,1.4,2.4,1.4,3.3,1.2c1.8-0.4,8.1-1.6,9.4-1.9
		c1.5-0.4,2.1-0.7,1.8-1.5c-0.4-0.9-1.2-5.2-1-6.4c0.1-0.8-0.6-1-2-0.8c-1.5,0.1-7.9,1.6-9.5,1.9C191.4,130.9,189.8,131.7,189.4,133
		z"/>
	<path class="st8" d="M206.6,128.8c-0.3,0.9,0.4,5.1,1.1,6.1c0.4,0.6,1.3,1.2,2.3,1.1c0.5-0.1,7-1,7.9-1.1c3.2-0.5,4.1-4.2,3.8-5.5
		c-0.7-2.8-2.6-5-6.6-4c-1.5,0.4-5.6,1.5-6.8,1.8C207.2,127.5,206.9,127.9,206.6,128.8z"/>
	<path class="st8" d="M184.1,143.1c-6.2,1.4-12.2,3.1-11.2,7s10,2.5,13.1,1.7c1-0.3,2.6-0.8,2-1.3c-1-0.9-1.8-5.1-1.1-6.3
		C187.5,143.1,185.4,142.8,184.1,143.1z"/>
	<path class="st8" d="M204,141.8c0-0.2,0-0.4,0-0.6c0.1-0.8-0.6-1-2-0.8c-1.5,0.1-7.9,1.6-9.5,1.9c-0.8,0.1-2.4,0.9-2.9,2.2
		c-0.4,1.2,0.2,4.5,0.9,5.4c1.1,1.4,2.4,1.4,3.3,1.2c1.8-0.4,8.1-1.6,9.4-1.9c1.5-0.4,2.1-0.7,1.8-1.5
		C204.7,146.8,204.1,143.4,204,141.8"/>
	<path class="st8" d="M206.7,141c-0.3,0.9,0.2,5.1,0.9,6.2c0.4,0.6,1.2,1.3,2.3,1.1c0.5-0.1,7-0.8,7.9-0.9c3.2-0.4,4.2-4.1,3.9-5.4
		c-0.6-2.8-2.5-5-6.5-4.1c-1.5,0.3-5.7,1.4-6.8,1.6C207.3,139.8,207,140.2,206.7,141z"/>
	<path class="st8" d="M189.1,133.3c-0.6-0.2-1.2-0.3-1.8-0.1"/>
	<path class="st8" d="M187.9,138.9c0.7,0.1,1.8-0.4,2.2-0.7"/>
	<path class="st8" d="M206.4,129.6c-0.6-0.3-1.8-0.2-2.5,0.3"/>
	<path class="st8" d="M204.5,135.2c0.6,0.2,2.1,0,2.7-0.8"/>
	<path class="st8" d="M189.7,144c-0.6-0.3-2.1-0.4-2.8,0.2"/>
	<path class="st8" d="M187.4,149.4c0.6,0.3,2.2,0.3,2.7-0.2"/>
	<path class="st8" d="M206.5,141.5c-0.5-0.1-1-0.1-1.5,0c-0.3,0.1-0.5,0.2-0.7,0.3"/>
	<path class="st8" d="M205.1,147.2c0.4,0.1,0.9,0.1,1.4,0c0.3-0.1,0.6-0.2,0.8-0.4"/>
	<path class="st8" d="M212.1,164c0.3-0.4,1.4-0.7,2.1-0.4"/>
	<path class="st8" d="M214.7,167.1c-0.3,0.3-1.2,0.5-1.8,0.3"/>
	<path class="st8" d="M200.8,164.7c0.5-0.4,1.4-0.4,1.8-0.1"/>
	<path class="st8" d="M203.2,167.7c-0.3,0.4-1.1,0.7-1.6,0.6"/>
	<path class="st8" d="M225.3,162.5c0.1-0.3,0.3-0.6,0.6-0.8c0.6-0.4,1.3-0.5,1.9-0.3"/>
	<path class="st8" d="M228.7,164.6c-0.5,0.7-1.7,0.9-2.4,0.5"/>
	<path class="st8" d="M223.5,152.2c0.4-0.6,1.8-1.2,2.8-0.8"/>
	<path class="st8" d="M227,157.1c-0.8,0.5-1.8,0.5-2.8-0.2"/>
	<path class="st8" d="M221.3,140.4c0.6-1,1.8-1.6,2.7-1.3"/>
	<path class="st8" d="M226.5,143.4c-0.2,0.5-0.4,0.7-0.9,1c-1.2,0.9-3,0.8-4-0.3"/>
	<path class="st8" d="M220.6,126.8c0.3-0.4,1.4-0.8,2.2-0.7"/>
	<path class="st8" d="M223.1,132.1c-0.6,0.1-1.1,0-1.6-0.3"/>
	<path class="st8" d="M249.9,114.8c0.1-1.8,0.2-4-0.1-5c-0.4-1.3-1.6-2.6-2.9-2.6c-1.3,0-15.8-2.3-16.7-2.4
		c-1.3-0.2-2.2,1.1-2.1,1.6c0.1,0.5,0,7.2-2.1,9c-1.1,0.9,2.6,2.6,3.8,3.1"/>
	<path class="st8" d="M223.4,106.4c-0.4-1.1-1.3-3.1-3.5-3.5c-1.1-0.2-11.8-2-14.2-2.3c-1.8-0.3-2.2,0.3-2.5,0.9
		c-1.3,3-0.4,7.8,4,9.8s10.4,4.5,11.3,4.7c1.4,0.4,2-0.2,3-1.3C221.9,114.1,224.5,109.7,223.4,106.4z"/>
	<path class="st8" d="M268.2,153.3c1-2.4,6.6-17.7,5.3-24.7c-1-5.3-5.8-9.1-6.8-10.4s0-2.3,1.5-2.3s26.1,0.1,27.5,0
		c2.3-0.1,3.1,0.9,4.2,2.4s4.8,7.9,5.5,12.1c0.7,4.1-0.2,15.9-3.5,20c-1.2,1.5-1.7,1-4.5,1.3s-26.3,3.5-27.1,3.4
		S267.3,155.4,268.2,153.3z"/>
	<path class="st8" d="M250,111.1c0.2-0.3,0.4-0.5,0.6-0.6c1.6-1.2,3.8-0.9,5,0.7c0.8,1,1,2.1,0.6,3.2"/>
	<path class="st8" d="M223.6,107c1.5-0.9,3.2-0.6,4.6,0.3"/>
	<path class="st8" d="M226.1,115.2c-1.6,0.2-3.1-0.6-4-1.6"/>
	<path class="st8" d="M265.4,121.7c0.2-0.4,1.5-1.8,2.7-1.8"/>
	<path class="st8" d="M272,124.7c-0.4,1.4-3,2.4-3.9,2.3"/>
	<line class="st8" x1="294.4" y1="120.9" x2="277.3" y2="121.2"/>
	<line class="st8" x1="268.8" y1="151.6" x2="262.4" y2="153.8"/>
	<line class="st8" x1="272.2" y1="140.9" x2="268.1" y2="141.6"/>
	<line class="st8" x1="270.4" y1="147.1" x2="265.9" y2="147.8"/>
	<line class="st8" x1="273.2" y1="136" x2="268.9" y2="136.6"/>
	<line class="st8" x1="273.7" y1="130.8" x2="268.6" y2="130.2"/>
	<line class="st9" x1="270.5" y1="148.1" x2="272.9" y2="148.4"/>
	<line class="st10" x1="272.7" y1="125.9" x2="275.5" y2="126.1"/>
	<line class="st10" x1="273.6" y1="127" x2="275.8" y2="127"/>
	<line class="st10" x1="273.5" y1="128.1" x2="276.7" y2="128.2"/>
	<line class="st10" x1="273.8" y1="129.2" x2="275.9" y2="129.2"/>
	<line class="st10" x1="273.8" y1="130.5" x2="276.1" y2="130.3"/>
	<line class="st10" x1="273.9" y1="131.9" x2="275.7" y2="131.5"/>
	<line class="st10" x1="273.7" y1="132.9" x2="276.3" y2="132.7"/>
	<line class="st10" x1="273.7" y1="134.1" x2="275.5" y2="134"/>
	<line class="st10" x1="273.5" y1="135.7" x2="276" y2="135.9"/>
	<line class="st10" x1="273.3" y1="137" x2="275.2" y2="137"/>
	<line class="st10" x1="272.9" y1="138.3" x2="275.2" y2="138.5"/>
	<line class="st10" x1="272.7" y1="139.5" x2="275.2" y2="139.8"/>
	<line class="st10" x1="272.3" y1="140.6" x2="275" y2="141.2"/>
	<line class="st10" x1="272" y1="142.2" x2="273.7" y2="142.7"/>
	<line class="st10" x1="271.6" y1="143.7" x2="274" y2="144.1"/>
	<line class="st10" x1="272.6" y1="145.5" x2="271.2" y2="145.3"/>
	<line class="st10" x1="270.8" y1="146.6" x2="272.9" y2="146.9"/>
	<line class="st10" x1="269.8" y1="149.1" x2="272.1" y2="149.3"/>
	<line class="st10" x1="269.5" y1="150.3" x2="271.4" y2="150.5"/>
	<line class="st10" x1="268.8" y1="151.8" x2="271.1" y2="152.1"/>
	<line class="st10" x1="268.3" y1="153.1" x2="270.1" y2="153.2"/>
	<line class="st10" x1="291.4" y1="152.2" x2="291.5" y2="149.6"/>
	<line class="st10" x1="292.8" y1="152.2" x2="292.9" y2="150.3"/>
	<line class="st10" x1="294.2" y1="151.9" x2="294.1" y2="149.4"/>
	<line class="st10" x1="295.8" y1="151.6" x2="295.4" y2="149.3"/>
	<line class="st10" x1="297.2" y1="151.3" x2="296.7" y2="149.4"/>
	<line class="st10" x1="299" y1="151.5" x2="298.3" y2="150"/>
	<line class="st10" x1="300.7" y1="151.1" x2="299.7" y2="149.6"/>
	<line class="st10" x1="302" y1="149.9" x2="300.5" y2="148.8"/>
	<line class="st10" x1="303" y1="148.6" x2="301.5" y2="147.4"/>
	<line class="st10" x1="303.7" y1="146.9" x2="301.9" y2="145.6"/>
	<line class="st10" x1="304.1" y1="145.4" x2="302.5" y2="144.7"/>
	<line class="st10" x1="304.5" y1="143.9" x2="302.3" y2="143.2"/>
	<line class="st10" x1="304.5" y1="142.4" x2="303" y2="141.9"/>
	<line class="st10" x1="304.9" y1="140.5" x2="303" y2="140"/>
	<line class="st10" x1="305.1" y1="138.8" x2="303.5" y2="138.6"/>
	<line class="st10" x1="305.1" y1="137.2" x2="303.5" y2="137"/>
	<line class="st10" x1="305.4" y1="135.6" x2="303.8" y2="135.4"/>
	<line class="st10" x1="305.2" y1="133.8" x2="303.2" y2="133.8"/>
	<line class="st10" x1="305.4" y1="131.8" x2="303.8" y2="131.8"/>
	<line class="st10" x1="305.1" y1="130.2" x2="303.5" y2="130.4"/>
	<line class="st10" x1="223.5" y1="167" x2="222.8" y2="167.9"/>
	<line class="st10" x1="222.1" y1="167.1" x2="221.1" y2="168.4"/>
	<line class="st10" x1="221.2" y1="166.8" x2="220.1" y2="168.2"/>
	<line class="st10" x1="219.6" y1="167.3" x2="218.8" y2="168.2"/>
	<line class="st10" x1="218" y1="167.6" x2="217.2" y2="168.5"/>
	<line class="st10" x1="217.1" y1="167.1" x2="216" y2="168.4"/>
	<line class="st10" x1="216.2" y1="166.6" x2="215.3" y2="167.7"/>
	<line class="st10" x1="210.6" y1="167.7" x2="209.6" y2="169.1"/>
	<line class="st10" x1="208.9" y1="168" x2="207.9" y2="169.3"/>
	<line class="st10" x1="207.4" y1="167.9" x2="206.4" y2="169.3"/>
	<line class="st10" x1="205.9" y1="168" x2="205.1" y2="169.1"/>
	<line class="st10" x1="205.2" y1="167.4" x2="204" y2="168.6"/>
	<line class="st10" x1="200.2" y1="169" x2="199.4" y2="170"/>
	<line class="st10" x1="199" y1="168.8" x2="197.7" y2="170.1"/>
	<line class="st10" x1="197.4" y1="169.4" x2="196.6" y2="170.3"/>
	<line class="st10" x1="196" y1="169.5" x2="195.3" y2="170.3"/>
	<line class="st10" x1="218.8" y1="159.2" x2="218.1" y2="160"/>
	<line class="st11" x1="216.9" y1="158.2" x2="215.4" y2="160.2"/>
	<line class="st10" x1="215.3" y1="158.9" x2="214.2" y2="160.2"/>
	<line class="st10" x1="217.7" y1="158.9" x2="216.6" y2="160.3"/>
	<line class="st10" x1="213.8" y1="158.9" x2="212.5" y2="160.4"/>
	<line class="st10" x1="212.3" y1="158.8" x2="211.3" y2="160.2"/>
	<line class="st10" x1="211.3" y1="158.4" x2="210.6" y2="159.5"/>
	<line class="st10" x1="204.6" y1="160.1" x2="204" y2="161"/>
	<line class="st10" x1="203.6" y1="159.6" x2="202.5" y2="160.9"/>
	<line class="st10" x1="201.8" y1="159.8" x2="200.7" y2="161.3"/>
	<line class="st10" x1="200.4" y1="159.9" x2="199.5" y2="161.4"/>
	<line class="st10" x1="199" y1="160" x2="198.1" y2="161.3"/>
	<line class="st10" x1="197.6" y1="160.1" x2="196.7" y2="161.7"/>
	<line class="st10" x1="195.9" y1="160.7" x2="195.1" y2="161.8"/>
	<line class="st10" x1="194.9" y1="160.2" x2="193.8" y2="161.5"/>
	<line class="st10" x1="193.8" y1="159.7" x2="192.9" y2="161.2"/>
	<line class="st10" x1="188.7" y1="161.1" x2="187.7" y2="162.4"/>
	<line class="st10" x1="187.2" y1="161.5" x2="186.2" y2="162.7"/>
	<line class="st10" x1="185.9" y1="161.4" x2="185" y2="162.6"/>
	<line class="st10" x1="217.5" y1="145.9" x2="216.5" y2="147.3"/>
	<line class="st10" x1="216" y1="145.8" x2="214.9" y2="147.5"/>
	<line class="st10" x1="214.7" y1="146.4" x2="213.7" y2="147.7"/>
	<line class="st10" x1="212" y1="146.8" x2="211.1" y2="148"/>
	<line class="st10" x1="213.1" y1="146.7" x2="212.2" y2="147.9"/>
	<line class="st10" x1="210.7" y1="146.7" x2="209.7" y2="148.1"/>
	<line class="st10" x1="209.6" y1="146.3" x2="208.5" y2="147.8"/>
	<line class="st10" x1="202" y1="147.8" x2="201.3" y2="149.1"/>
	<line class="st10" x1="201" y1="148" x2="199.7" y2="149.5"/>
	<line class="st10" x1="199.3" y1="148.3" x2="198.2" y2="149.8"/>
	<line class="st10" x1="197.9" y1="148.8" x2="196.9" y2="150"/>
	<line class="st10" x1="196.2" y1="149.2" x2="195.5" y2="150.4"/>
	<line class="st10" x1="194.7" y1="149.4" x2="193.7" y2="150.7"/>
	<line class="st10" x1="193.3" y1="149.2" x2="192.2" y2="150.6"/>
	<line class="st10" x1="203.6" y1="147.3" x2="202.4" y2="149"/>
	<line class="st10" x1="186.8" y1="150.4" x2="185.4" y2="151.8"/>
	<line class="st10" x1="185.2" y1="150.6" x2="184.1" y2="151.9"/>
	<line class="st10" x1="183.7" y1="150.9" x2="182.8" y2="152.2"/>
	<line class="st10" x1="182.2" y1="151.4" x2="181.5" y2="152.5"/>
	<line class="st10" x1="217.9" y1="132.4" x2="215.9" y2="134.9"/>
	<line class="st10" x1="214" y1="133.5" x2="212.5" y2="135.3"/>
	<line class="st10" x1="215.4" y1="133.4" x2="213.9" y2="135.2"/>
	<line class="st10" x1="212.1" y1="134" x2="211.2" y2="135.5"/>
	<line class="st10" x1="210.7" y1="134.2" x2="209.3" y2="135.9"/>
	<line class="st10" x1="209.1" y1="134.6" x2="208.2" y2="135.6"/>
	<line class="st10" x1="203.2" y1="136.5" x2="202" y2="137.6"/>
	<line class="st10" x1="201.6" y1="136.5" x2="200.6" y2="137.9"/>
	<line class="st10" x1="200.2" y1="136.8" x2="198.8" y2="138.4"/>
	<line class="st10" x1="198.4" y1="137.3" x2="197.6" y2="138.5"/>
	<line class="st10" x1="197" y1="137.6" x2="196.4" y2="138.6"/>
	<line class="st10" x1="195.8" y1="138.3" x2="195.1" y2="139.3"/>
	<line class="st10" x1="194.5" y1="138.4" x2="193.3" y2="139.6"/>
	<line class="st10" x1="193.1" y1="138.3" x2="192.1" y2="139.6"/>
	<line class="st10" x1="186.5" y1="139.6" x2="185.3" y2="140.9"/>
	<line class="st10" x1="185" y1="140" x2="183.9" y2="141.3"/>
	<line class="st10" x1="183.6" y1="140.4" x2="182.8" y2="141.5"/>
	<line class="st10" x1="230.9" y1="117.2" x2="229" y2="118"/>
	<line class="st10" x1="229.5" y1="116.5" x2="227.7" y2="117.2"/>
	<line class="st10" x1="228.4" y1="115.9" x2="226.5" y2="116.6"/>
	<line class="st10" x1="219.5" y1="115.2" x2="217.8" y2="115.8"/>
	<line class="st10" x1="218.8" y1="114.5" x2="216.6" y2="115.3"/>
	<line class="st10" x1="216.8" y1="114" x2="214.9" y2="114.7"/>
	<line class="st10" x1="215.8" y1="113.1" x2="213.8" y2="113.9"/>
	<line class="st10" x1="214.5" y1="112.4" x2="212.4" y2="113.2"/>
	<line class="st10" x1="212.7" y1="112" x2="210.9" y2="112.7"/>
	<line class="st10" x1="211.1" y1="111.7" x2="209.7" y2="112.2"/>
</g>
</svg>
