<?xml version="1.0" encoding="utf-8"?>
<!-- Generator: Adobe Illustrator 21.1.0, SVG Export Plug-In . SVG Version: 6.00 Build 0)  -->
<svg version="1.1" id="Calque_1" xmlns="http://www.w3.org/2000/svg" xmlns:xlink="http://www.w3.org/1999/xlink" x="0px" y="0px"
	 viewBox="0 0 332 188" style="enable-background:new 0 0 332 188;" xml:space="preserve">
<style type="text/css">
	.st0{fill:none;stroke:#132841;stroke-width:0.3499;stroke-linecap:round;stroke-linejoin:round;stroke-miterlimit:10;}
	.st1{fill:none;stroke:#132841;stroke-width:0.6998;stroke-linecap:round;stroke-linejoin:round;stroke-miterlimit:10;}
	.st2{fill:none;stroke:#132841;stroke-width:0.7386;stroke-linecap:round;stroke-linejoin:round;stroke-miterlimit:10;}
	.st3{fill:none;stroke:#132841;stroke-width:0.3978;stroke-linecap:round;stroke-linejoin:round;stroke-miterlimit:10;}
	.st4{fill:none;stroke:#132841;stroke-width:0.3693;stroke-linecap:round;stroke-linejoin:round;stroke-miterlimit:10;}
	.st5{fill:none;stroke:#132841;stroke-width:0.3971;stroke-linecap:round;stroke-linejoin:round;stroke-miterlimit:10;}
</style>
<g>
	<g>
		<line class="st0" x1="74.7" y1="46.1" x2="75" y2="47.7"/>
		<line class="st0" x1="72.9" y1="45.7" x2="73.5" y2="47"/>
		<line class="st0" x1="70.9" y1="45.2" x2="71.7" y2="46.5"/>
		<line class="st0" x1="69.7" y1="46.4" x2="70.9" y2="47.4"/>
		<line class="st0" x1="69.1" y1="47.5" x2="70.4" y2="48.5"/>
		<line class="st0" x1="68.7" y1="48.3" x2="70.1" y2="49.5"/>
		<line class="st0" x1="67.9" y1="49.7" x2="69.2" y2="50.4"/>
		<line class="st0" x1="67.4" y1="50.9" x2="69.2" y2="51.7"/>
		<line class="st0" x1="66.9" y1="52" x2="68.1" y2="52.5"/>
		<g>
			<path class="st1" d="M155.3,45.9c1.9-0.3,3.6-0.5,5.5-0.8"/>
			<path class="st1" d="M150.7,56.5c2.3-0.6,5.2-1.2,8.2-1.7"/>
			<path class="st1" d="M142.7,79.9c-4.3-1.5-10-4.1-11.1-4.6c-1.4-0.6-1.9-1.1-0.1-2c5.5-2.8,13.2-5.4,20.8-7.2"/>
			<path class="st1" d="M143.4,88.3c2.5,5.2,9.9,3.3,11.3-1.3c0.1-0.2,0.1-0.4,0.1-0.6"/>
			<path class="st1" d="M116.8,35.4c-0.7,0.2-1.4,0.5-2.1,0.7c-5.9,2.1-14.6,8.7-20.2,9.9c-5.6,1.2-16.6,1.4-23.8-1.3
				c-7.5,10.5-6.5,20.2,1.7,27.6c4.5-0.6,17.8-0.4,20.7-0.6c3-0.1,8.7,0.7,13.1,4.1s11.3,8.4,16,8c3.8-0.3,13.7,1.4,18.5,2.3"/>
			<line class="st0" x1="79.7" y1="46.9" x2="79.5" y2="49.1"/>
			<line class="st0" x1="78.7" y1="46.6" x2="78.5" y2="48.2"/>
			<line class="st0" x1="77.4" y1="46.6" x2="77.4" y2="48.7"/>
			<line class="st0" x1="76" y1="46.4" x2="76.2" y2="48.3"/>
			<line class="st0" x1="66.5" y1="53.4" x2="68.1" y2="53.9"/>
			<line class="st0" x1="66.1" y1="54.9" x2="67.5" y2="55"/>
			<line class="st0" x1="65.9" y1="56.1" x2="67.3" y2="56.3"/>
			<line class="st0" x1="65.6" y1="57.5" x2="67" y2="57.7"/>
			<line class="st0" x1="65.7" y1="58.8" x2="67.4" y2="58.9"/>
			<line class="st0" x1="65.7" y1="60" x2="67.1" y2="60.1"/>
			<line class="st0" x1="65.8" y1="61.3" x2="67.2" y2="61.2"/>
			<line class="st0" x1="132" y1="76.9" x2="133.6" y2="76.2"/>
			<line class="st0" x1="133.2" y1="77.5" x2="134.7" y2="76.8"/>
			<line class="st0" x1="134.2" y1="78" x2="135.7" y2="77.3"/>
			<line class="st0" x1="135.4" y1="78.6" x2="136.9" y2="78"/>
			<line class="st0" x1="136.1" y1="79.2" x2="138" y2="78.4"/>
			<line class="st0" x1="137.8" y1="79.5" x2="139.4" y2="78.8"/>
			<line class="st0" x1="138.7" y1="80.2" x2="140.9" y2="79.3"/>
			<line class="st0" x1="139.9" y1="80.8" x2="141.9" y2="79.9"/>
		</g>
	</g>
	<path class="st1" d="M125,32.1c0.7-0.1,3.7-1.5,4.9-1.6"/>
	<g>
		<line class="st0" x1="74.7" y1="141.9" x2="75" y2="140.3"/>
		<line class="st0" x1="72.9" y1="142.3" x2="73.5" y2="141"/>
		<line class="st0" x1="70.9" y1="142.8" x2="71.7" y2="141.5"/>
		<line class="st0" x1="69.7" y1="141.6" x2="70.9" y2="140.6"/>
		<line class="st0" x1="69.1" y1="140.5" x2="70.4" y2="139.5"/>
		<line class="st0" x1="68.7" y1="139.7" x2="70.1" y2="138.5"/>
		<line class="st0" x1="67.9" y1="138.3" x2="69.2" y2="137.6"/>
		<line class="st0" x1="67.4" y1="137.1" x2="69.2" y2="136.3"/>
		<line class="st0" x1="66.9" y1="136" x2="68.1" y2="135.5"/>
		<g>
			<path class="st1" d="M155.3,142.1c1.9,0.3,3.6,0.5,5.5,0.8"/>
			<path class="st1" d="M150.7,131.5c2.3,0.6,5.2,1.2,8.2,1.7"/>
			<path class="st1" d="M142.7,108.1c-4.3,1.5-10,4.1-11.1,4.6c-1.4,0.6-1.9,1.1-0.1,2c5.5,2.8,13.2,5.4,20.8,7.2"/>
			<path class="st1" d="M143.4,99.7c2.5-5.2,9.9-3.3,11.3,1.3c0.1,0.2,0.1,0.4,0.1,0.6"/>
			<path class="st1" d="M116.8,152.6c-0.7-0.2-1.4-0.5-2.1-0.7c-5.9-2.1-14.6-8.7-20.2-9.9c-5.6-1.2-16.6-1.4-23.8,1.3
				c-7.5-10.5-6.5-20.2,1.7-27.6c4.5,0.6,17.8,0.4,20.7,0.6c3,0.1,8.7-0.7,13.1-4.1s11.3-8.4,16-8c3.8,0.3,13.7-1.4,18.5-2.3"/>
			<line class="st0" x1="79.7" y1="141.1" x2="79.5" y2="138.9"/>
			<line class="st0" x1="78.7" y1="141.4" x2="78.5" y2="139.8"/>
			<line class="st0" x1="77.4" y1="141.4" x2="77.4" y2="139.3"/>
			<line class="st0" x1="76" y1="141.6" x2="76.2" y2="139.7"/>
			<line class="st0" x1="66.5" y1="134.6" x2="68.1" y2="134.1"/>
			<line class="st0" x1="66.1" y1="133.1" x2="67.5" y2="133"/>
			<line class="st0" x1="65.9" y1="131.9" x2="67.3" y2="131.7"/>
			<line class="st0" x1="65.6" y1="130.5" x2="67" y2="130.3"/>
			<line class="st0" x1="65.7" y1="129.2" x2="67.4" y2="129.1"/>
			<line class="st0" x1="65.7" y1="128" x2="67.1" y2="127.9"/>
			<line class="st0" x1="65.8" y1="126.7" x2="67.2" y2="126.8"/>
			<line class="st0" x1="132" y1="111.1" x2="133.6" y2="111.8"/>
			<line class="st0" x1="133.2" y1="110.5" x2="134.7" y2="111.2"/>
			<line class="st0" x1="134.2" y1="110" x2="135.7" y2="110.7"/>
			<line class="st0" x1="135.4" y1="109.4" x2="136.9" y2="110"/>
			<line class="st0" x1="136.1" y1="108.8" x2="138" y2="109.6"/>
			<line class="st0" x1="137.8" y1="108.5" x2="139.4" y2="109.2"/>
			<line class="st0" x1="138.7" y1="107.8" x2="140.9" y2="108.7"/>
			<line class="st0" x1="139.9" y1="107.2" x2="141.9" y2="108.1"/>
		</g>
	</g>
	<path class="st1" d="M125,155.9c0.7,0.1,3.7,1.5,4.9,1.6"/>
	<g>
		<path class="st2" d="M194.3,73.1c10.7-10.1,5.4-24.5,3.4-28.3c-3-5.7-5.4-8.3-8.7-9.8c-2.8-1.2-17.1-6.1-18.6-6.7
			c-2.7-1.1-4.9-0.3-5.6,0.6c-0.7,0.9-0.1,1.8-0.3,2.9c-0.3,1.6-2,2.5-2.2,3.9c-0.1,1.2,1.7,2.4,1.4,4.7c-0.2,1.6-2.4,2.3-2.7,3.8
			s1.7,4.1,1.3,5.9c-0.5,2.5-3.7,4.5-4.1,6.6c-0.2,1.4,1.7,4.1,1.7,5.3c0,1.9-1.2,3.8-1.8,4.8c-1,1.6-0.7,3.2,0.6,3.6
			c11.5,3.7,28.5,6.1,31.2,5.4C191.1,75.3,192.7,74.6,194.3,73.1z"/>
		<path class="st2" d="M127.3,32.2c-5.8-0.5-9.9-0.4-10.1,3.3s6.3,4.2,9.2,4.4c1,0.1,2.5,0.1,2.1-0.6c-0.6-1.1-0.2-4.9,0.8-5.8
			C130.2,32.7,128.5,32.3,127.3,32.2z"/>
		<path class="st2" d="M137.7,25.2c-5.8-0.5-9.2,0.1-9.2,2.8c0,3.7,5.6,3.4,8.5,3.5c1,0.1,2.5,0.1,2.1-0.6c-0.6-1.1-0.3-3.6,0.6-4.5
			C140.6,25.7,138.9,25.4,137.7,25.2z"/>
		<path class="st2" d="M131.4,33.8c-0.7,0.9-1.1,3.9-0.7,5c0.6,1.5,1.7,1.9,2.5,1.9c1.7,0.2,7.4,0.8,8.6,0.9c1.4,0.1,2-0.1,1.9-0.8
			c-0.1-0.9,0.4-4.8,0.9-5.8c0.4-0.7-0.3-1-1.5-1.3c-1.3-0.3-7.3-0.8-8.7-1C133.7,32.6,132.1,32.9,131.4,33.8z"/>
		<path class="st2" d="M141.4,26.9c-0.5,0.9-1,3.1-0.6,3.9c0.6,1.2,1.7,1.5,2.6,1.6c1.7,0.2,2.6,0.1,3.8,0.2c1.4,0.1,2,0,1.9-0.6
			c-0.1-0.7,0.3-3.8,0.8-4.6c0.3-0.5-0.3-0.8-1.5-1c-1.4-0.2-2.8-0.4-4.3-0.5C142.8,25.7,141.9,26,141.4,26.9z"/>
		<path class="st2" d="M147.4,34.9c-0.5,0.7-1.1,4.5-0.7,5.6c0.2,0.6,0.8,1.4,1.7,1.6c0.5,0.1,6.3,1.1,7.1,1.2
			c2.9,0.5,4.7-2.5,4.8-3.7c0.1-2.6-0.9-5-4.6-5.2c-1.4-0.1-5.3-0.2-6.4-0.3C148.3,34,147.9,34.2,147.4,34.9z"/>
		<path class="st2" d="M151.9,27.2c-0.5,0.5-1,3.6-0.7,4.4c0.2,0.5,0.8,1.1,1.7,1.3c0.5,0.1,3.4,0.4,4.2,0.5
			c2.9,0.4,4.6-1.5,4.7-2.9c0.2-2.1-0.6-3.5-4.3-3.8c-1.4-0.1-2.7-0.2-3.7-0.2C152.8,26.5,152.4,26.7,151.9,27.2z"/>
		<path class="st2" d="M131.1,34c-0.4-0.3-1-0.6-1.5-0.6"/>
		<path class="st2" d="M128.5,38.6c0.6,0.4,1.7,0.2,2.1,0"/>
		<path class="st2" d="M147,35.5c-0.5-0.5-1.5-0.8-2.1-0.6"/>
		<path class="st2" d="M143.9,39.9c0.4,0.3,1.9,0.5,2.5,0.1"/>
		<path class="st2" d="M124.2,59.3c-5.7-1.2-9.5-2.6-8.6-6.2c0.9-3.6,7.3-2.1,10.1-1.4c0.9,0.2,2.4,0.7,1.9,1.2
			c-0.9,0.9-1.6,4.6-1,5.7C127,59.7,125.4,59.6,124.2,59.3z"/>
		<path class="st2" d="M128.5,59c-0.4-1.1,0.1-4.1,0.9-4.9c1-1.2,2.1-1.3,3-1.1c1.7,0.3,7.3,1.4,8.5,1.7c1.3,0.3,1.9,0.7,1.6,1.3
			c-0.4,0.8-1.1,4.7-0.9,5.8c0.1,0.8-0.6,0.9-1.8,0.8c-1.4-0.1-7.2-1.4-8.6-1.7C130.4,60.8,128.9,60.1,128.5,59z"/>
		<path class="st2" d="M144.1,62.8c-0.3-0.8,0.3-4.7,1-5.6c0.4-0.5,1.2-1.1,2.1-1c0.5,0.1,6.4,0.9,7.2,1c2.9,0.4,3.7,3.8,3.4,5
			c-0.6,2.5-2.4,4.5-6,3.6c-1.3-0.3-5.1-1.4-6.2-1.6C144.7,63.9,144.4,63.6,144.1,62.8z"/>
		<path class="st2" d="M123.7,49.8c-5.7-1.2-11.1-2.8-10.2-6.4c0.9-3.6,9.1-2.3,11.9-1.5c0.9,0.2,2.4,0.7,1.9,1.2
			c-0.9,0.9-1.6,4.6-1,5.7C126.8,49.8,124.9,50,123.7,49.8z"/>
		<path class="st2" d="M141.8,51c0,0.2,0,0.4,0,0.5c0.1,0.8-0.6,0.9-1.8,0.8c-1.4-0.1-7.2-1.4-8.6-1.7c-0.7-0.1-2.2-0.9-2.6-2
			c-0.4-1.1,0.1-4.1,0.9-4.9c1-1.2,2.1-1.3,3-1.1c1.7,0.3,7.3,1.4,8.5,1.7c1.3,0.3,1.9,0.7,1.6,1.3C142.4,46.4,141.9,49.5,141.8,51"
			/>
		<path class="st2" d="M144.3,51.6c-0.3-0.8,0.2-4.7,0.9-5.6c0.4-0.5,1.1-1.2,2.1-1c0.5,0.1,6.4,0.7,7.2,0.8
			c2.9,0.4,3.8,3.7,3.6,4.9c-0.6,2.6-2.3,4.6-5.9,3.7c-1.3-0.3-5.2-1.2-6.2-1.5C144.8,52.8,144.6,52.5,144.3,51.6z"/>
		<path class="st2" d="M128.3,58.7c-0.5,0.2-1.1,0.2-1.6,0.1"/>
		<path class="st2" d="M127.2,53.6c0.6-0.1,1.7,0.3,2,0.6"/>
		<path class="st2" d="M144,62c-0.6,0.3-1.7,0.2-2.3-0.3"/>
		<path class="st2" d="M142.3,57c0.5-0.2,1.9,0,2.5,0.7"/>
		<path class="st2" d="M128.8,48.9c-0.6,0.3-1.9,0.4-2.5-0.1"/>
		<path class="st2" d="M126.8,44c0.6-0.3,2-0.2,2.4,0.2"/>
		<path class="st2" d="M144.1,51.3c-0.4,0.1-0.9,0.1-1.4,0c-0.2-0.1-0.4-0.1-0.6-0.3"/>
		<path class="st2" d="M142.8,46.1c0.4-0.1,0.8-0.1,1.2,0c0.3,0.1,0.5,0.2,0.8,0.3"/>
		<path class="st2" d="M149.2,30.8c0.3,0.3,1.3,0.6,1.9,0.3"/>
		<path class="st2" d="M151.5,28c-0.3-0.2-1.1-0.4-1.7-0.3"/>
		<path class="st2" d="M138.9,30.2c0.4,0.3,1.2,0.4,1.6,0.1"/>
		<path class="st2" d="M141.1,27.4c-0.3-0.4-1-0.7-1.5-0.5"/>
		<path class="st2" d="M161.2,32.2c0.1,0.3,0.3,0.5,0.6,0.7c0.5,0.4,1.2,0.5,1.7,0.3"/>
		<path class="st2" d="M164.2,30.3c-0.4-0.7-1.6-0.8-2.2-0.4"/>
		<path class="st2" d="M159.5,41.5c0.3,0.5,1.7,1.1,2.5,0.7"/>
		<path class="st2" d="M162.7,37.1c-0.7-0.5-1.7-0.4-2.5,0.2"/>
		<path class="st2" d="M157.5,52.2c0.5,0.9,1.6,1.4,2.4,1.2"/>
		<path class="st2" d="M162.3,49.5c-0.2-0.5-0.4-0.6-0.8-0.9c-1.1-0.9-2.7-0.7-3.6,0.3"/>
		<path class="st2" d="M156.9,64.6c0.3,0.4,1.3,0.7,2,0.6"/>
		<path class="st2" d="M159.1,59.8c-0.6-0.1-1,0-1.5,0.2"/>
		<path class="st2" d="M183.5,75.4c0.1,1.7,0.2,3.6-0.1,4.5c-0.4,1.2-1.5,2.3-2.7,2.4c-1.2,0-14.4,2.1-15.2,2.2
			c-1.2,0.2-2-1-1.9-1.4s0-6.5-1.9-8.1c-1-0.8,2.3-2.3,3.4-2.8"/>
		<path class="st2" d="M159.4,83.1c-0.4,1-1.2,2.8-3.2,3.1c-1,0.2-10.7,1.8-12.9,2.1c-1.7,0.2-2-0.3-2.3-0.8
			c-1.2-2.7-0.4-7.1,3.6-8.9s9.4-4.1,10.2-4.3c1.3-0.4,1.8,0.2,2.7,1.2C158.1,76.1,160.4,80.1,159.4,83.1z"/>
		<path class="st2" d="M200,40.5c0.9,2.2,6,16.1,4.8,22.4c-0.9,4.8-5.2,8.2-6.1,9.4c-0.9,1.2,0,2.1,1.3,2.1c1.4,0,23.7-0.1,25,0
			c2.1,0.1,2.8-0.8,3.8-2.2c1-1.4,4.4-7.2,5-10.9c0.6-3.7-0.2-14.4-3.2-18.1c-1.1-1.3-1.5-0.9-4.1-1.2s-23.9-3.1-24.6-3.1
			C201.2,39,199.2,38.6,200,40.5z"/>
		<path class="st2" d="M183.6,78.9c0.1,0.2,0.4,0.4,0.5,0.5c1.4,1.1,3.5,0.8,4.5-0.6c0.7-0.9,0.9-1.9,0.5-2.9"/>
		<path class="st2" d="M159.6,82.6c1.4,0.8,2.9,0.6,4.1-0.3"/>
		<path class="st2" d="M161.8,75.1c-1.5-0.2-2.8,0.5-3.6,1.5"/>
		<path class="st2" d="M197.5,69.2c0.2,0.4,1.4,1.7,2.5,1.6"/>
		<path class="st2" d="M203.5,66.5c-0.3-1.3-2.8-2.2-3.6-2.1"/>
		<line class="st2" x1="223.9" y1="69.9" x2="208.4" y2="69.7"/>
		<line class="st2" x1="200.6" y1="42" x2="194.8" y2="40.1"/>
		<line class="st2" x1="203.7" y1="51.8" x2="200" y2="51.2"/>
		<line class="st2" x1="202.1" y1="46.2" x2="198" y2="45.5"/>
		<line class="st2" x1="204.6" y1="56.3" x2="200.7" y2="55.7"/>
		<line class="st2" x1="205" y1="60.9" x2="200.5" y2="61.5"/>
		<line class="st3" x1="202.1" y1="45.3" x2="204.3" y2="45"/>
		<line class="st4" x1="204.2" y1="65.4" x2="206.7" y2="65.2"/>
		<line class="st4" x1="204.9" y1="64.4" x2="206.9" y2="64.4"/>
		<line class="st4" x1="204.9" y1="63.4" x2="207.8" y2="63.3"/>
		<line class="st4" x1="205.2" y1="62.4" x2="207.1" y2="62.4"/>
		<line class="st4" x1="205.2" y1="61.2" x2="207.3" y2="61.4"/>
		<line class="st4" x1="205.2" y1="60" x2="206.9" y2="60.3"/>
		<line class="st4" x1="205.1" y1="59.1" x2="207.4" y2="59.2"/>
		<line class="st4" x1="205.1" y1="58" x2="206.7" y2="58"/>
		<line class="st4" x1="204.9" y1="56.5" x2="207.2" y2="56.3"/>
		<line class="st4" x1="204.7" y1="55.4" x2="206.4" y2="55.3"/>
		<line class="st4" x1="204.4" y1="54.1" x2="206.4" y2="54"/>
		<line class="st4" x1="204.1" y1="53.1" x2="206.4" y2="52.7"/>
		<line class="st4" x1="203.8" y1="52" x2="206.2" y2="51.5"/>
		<line class="st4" x1="203.5" y1="50.6" x2="205" y2="50.1"/>
		<line class="st4" x1="203.2" y1="49.3" x2="205.4" y2="48.9"/>
		<line class="st4" x1="204.1" y1="47.6" x2="202.8" y2="47.7"/>
		<line class="st4" x1="202.4" y1="46.6" x2="204.3" y2="46.4"/>
		<line class="st4" x1="201.5" y1="44.3" x2="203.6" y2="44.1"/>
		<line class="st4" x1="201.2" y1="43.2" x2="203" y2="43.1"/>
		<line class="st4" x1="200.6" y1="41.9" x2="202.7" y2="41.6"/>
		<line class="st4" x1="200.2" y1="40.7" x2="201.8" y2="40.6"/>
		<line class="st4" x1="221.1" y1="41.6" x2="221.3" y2="43.8"/>
		<line class="st4" x1="222.4" y1="41.6" x2="222.5" y2="43.3"/>
		<line class="st4" x1="223.7" y1="41.8" x2="223.5" y2="44.1"/>
		<line class="st4" x1="225.1" y1="42.1" x2="224.8" y2="44.2"/>
		<line class="st4" x1="226.4" y1="42.3" x2="226" y2="44"/>
		<line class="st4" x1="228" y1="42.2" x2="227.4" y2="43.5"/>
		<line class="st4" x1="229.6" y1="42.5" x2="228.7" y2="43.9"/>
		<line class="st4" x1="230.7" y1="43.6" x2="229.4" y2="44.6"/>
		<line class="st4" x1="231.7" y1="44.8" x2="230.3" y2="45.9"/>
		<line class="st4" x1="232.3" y1="46.3" x2="230.6" y2="47.5"/>
		<line class="st4" x1="232.7" y1="47.7" x2="231.2" y2="48.3"/>
		<line class="st4" x1="233" y1="49" x2="231" y2="49.7"/>
		<line class="st4" x1="233" y1="50.4" x2="231.7" y2="50.9"/>
		<line class="st4" x1="233.4" y1="52.2" x2="231.7" y2="52.6"/>
		<line class="st4" x1="233.6" y1="53.7" x2="232.1" y2="53.8"/>
		<line class="st4" x1="233.6" y1="55.2" x2="232.1" y2="55.3"/>
		<line class="st4" x1="233.8" y1="56.6" x2="232.4" y2="56.7"/>
		<line class="st4" x1="233.7" y1="58.2" x2="231.9" y2="58.3"/>
		<line class="st4" x1="233.9" y1="60" x2="232.4" y2="60"/>
		<line class="st4" x1="233.5" y1="61.5" x2="232.1" y2="61.3"/>
		<line class="st4" x1="159.5" y1="28.1" x2="158.8" y2="27.3"/>
		<line class="st4" x1="158.2" y1="28" x2="157.3" y2="26.9"/>
		<line class="st4" x1="157.4" y1="28.3" x2="156.4" y2="27"/>
		<line class="st4" x1="155.9" y1="27.8" x2="155.3" y2="27"/>
		<line class="st4" x1="154.5" y1="27.5" x2="153.8" y2="26.7"/>
		<line class="st4" x1="153.7" y1="28" x2="152.7" y2="26.8"/>
		<line class="st4" x1="152.9" y1="28.5" x2="152" y2="27.4"/>
		<line class="st4" x1="147.8" y1="27.4" x2="146.9" y2="26.2"/>
		<line class="st4" x1="146.3" y1="27.2" x2="145.4" y2="26"/>
		<line class="st4" x1="144.9" y1="27.3" x2="144" y2="26"/>
		<line class="st4" x1="143.6" y1="27.2" x2="142.8" y2="26.2"/>
		<line class="st4" x1="142.9" y1="27.7" x2="141.8" y2="26.6"/>
		<line class="st4" x1="138.3" y1="26.3" x2="137.6" y2="25.4"/>
		<line class="st4" x1="137.2" y1="26.4" x2="136.1" y2="25.3"/>
		<line class="st4" x1="135.8" y1="25.9" x2="135.1" y2="25.1"/>
		<line class="st4" x1="134.6" y1="25.8" x2="133.9" y2="25.1"/>
		<line class="st4" x1="155.3" y1="35.2" x2="154.6" y2="34.4"/>
		<line class="st5" x1="153.5" y1="36.1" x2="152.2" y2="34.3"/>
		<line class="st4" x1="152.1" y1="35.5" x2="151.1" y2="34.2"/>
		<line class="st4" x1="154.3" y1="35.4" x2="153.3" y2="34.2"/>
		<line class="st4" x1="150.7" y1="35.4" x2="149.6" y2="34.1"/>
		<line class="st4" x1="149.4" y1="35.5" x2="148.4" y2="34.3"/>
		<line class="st4" x1="148.5" y1="35.9" x2="147.8" y2="34.9"/>
		<line class="st4" x1="142.3" y1="34.4" x2="141.8" y2="33.6"/>
		<line class="st4" x1="141.5" y1="34.8" x2="140.5" y2="33.6"/>
		<line class="st4" x1="139.8" y1="34.6" x2="138.9" y2="33.3"/>
		<line class="st4" x1="138.6" y1="34.6" x2="137.8" y2="33.2"/>
		<line class="st4" x1="137.3" y1="34.4" x2="136.5" y2="33.2"/>
		<line class="st4" x1="136" y1="34.3" x2="135.2" y2="32.9"/>
		<line class="st4" x1="134.5" y1="33.8" x2="133.7" y2="32.8"/>
		<line class="st4" x1="133.5" y1="34.2" x2="132.6" y2="33.1"/>
		<line class="st4" x1="132.6" y1="34.7" x2="131.7" y2="33.3"/>
		<line class="st4" x1="127.9" y1="33.4" x2="127" y2="32.2"/>
		<line class="st4" x1="126.6" y1="33.1" x2="125.7" y2="32"/>
		<line class="st4" x1="125.4" y1="33.2" x2="124.6" y2="32.1"/>
		<line class="st4" x1="154.1" y1="47.2" x2="153.1" y2="46"/>
		<line class="st4" x1="152.7" y1="47.3" x2="151.7" y2="45.8"/>
		<line class="st4" x1="151.5" y1="46.8" x2="150.6" y2="45.6"/>
		<line class="st4" x1="149" y1="46.5" x2="148.2" y2="45.3"/>
		<line class="st4" x1="150.1" y1="46.6" x2="149.3" y2="45.4"/>
		<line class="st4" x1="147.9" y1="46.5" x2="147" y2="45.2"/>
		<line class="st4" x1="146.9" y1="46.9" x2="145.9" y2="45.5"/>
		<line class="st4" x1="140" y1="45.5" x2="139.3" y2="44.3"/>
		<line class="st4" x1="139" y1="45.4" x2="137.9" y2="44"/>
		<line class="st4" x1="137.5" y1="45" x2="136.6" y2="43.7"/>
		<line class="st4" x1="136.3" y1="44.6" x2="135.4" y2="43.5"/>
		<line class="st4" x1="134.7" y1="44.2" x2="134.1" y2="43.2"/>
		<line class="st4" x1="133.4" y1="44.1" x2="132.5" y2="42.9"/>
		<line class="st4" x1="132.1" y1="44.2" x2="131.1" y2="43"/>
		<line class="st4" x1="141.4" y1="45.9" x2="140.3" y2="44.4"/>
		<line class="st4" x1="126.2" y1="43.1" x2="125" y2="41.8"/>
		<line class="st4" x1="124.8" y1="42.9" x2="123.8" y2="41.8"/>
		<line class="st4" x1="123.4" y1="42.7" x2="122.5" y2="41.5"/>
		<line class="st4" x1="122" y1="42.3" x2="121.4" y2="41.2"/>
		<line class="st4" x1="154.4" y1="59.5" x2="152.6" y2="57.2"/>
		<line class="st4" x1="150.9" y1="58.5" x2="149.6" y2="56.8"/>
		<line class="st4" x1="152.1" y1="58.6" x2="150.8" y2="56.9"/>
		<line class="st4" x1="149.2" y1="58" x2="148.3" y2="56.7"/>
		<line class="st4" x1="147.9" y1="57.9" x2="146.6" y2="56.3"/>
		<line class="st4" x1="146.4" y1="57.5" x2="145.6" y2="56.6"/>
		<line class="st4" x1="141.1" y1="55.8" x2="140" y2="54.7"/>
		<line class="st4" x1="139.7" y1="55.8" x2="138.7" y2="54.5"/>
		<line class="st4" x1="138.3" y1="55.5" x2="137.1" y2="54"/>
		<line class="st4" x1="136.7" y1="55.1" x2="136" y2="54"/>
		<line class="st4" x1="135.5" y1="54.8" x2="134.9" y2="53.9"/>
		<line class="st4" x1="134.4" y1="54.1" x2="133.8" y2="53.3"/>
		<line class="st4" x1="133.2" y1="54.1" x2="132.1" y2="53"/>
		<line class="st4" x1="131.9" y1="54.1" x2="131" y2="53"/>
		<line class="st4" x1="125.9" y1="53" x2="124.8" y2="51.7"/>
		<line class="st4" x1="124.6" y1="52.6" x2="123.6" y2="51.5"/>
		<line class="st4" x1="123.3" y1="52.2" x2="122.5" y2="51.2"/>
		<line class="st4" x1="166.2" y1="73.2" x2="164.5" y2="72.6"/>
		<line class="st4" x1="165" y1="73.9" x2="163.3" y2="73.3"/>
		<line class="st4" x1="164" y1="74.5" x2="162.3" y2="73.9"/>
		<line class="st4" x1="155.9" y1="75.1" x2="154.3" y2="74.5"/>
		<line class="st4" x1="155.2" y1="75.8" x2="153.2" y2="75"/>
		<line class="st4" x1="153.4" y1="76.2" x2="151.7" y2="75.5"/>
		<line class="st4" x1="152.5" y1="77" x2="150.7" y2="76.3"/>
		<line class="st4" x1="151.3" y1="77.6" x2="149.4" y2="76.9"/>
		<line class="st4" x1="149.7" y1="78" x2="148.1" y2="77.4"/>
		<line class="st4" x1="148.2" y1="78.3" x2="146.9" y2="77.8"/>
	</g>
	<path class="st1" d="M133.5,61.4c0.8,1,1.9,2.7,2.4,4"/>
	<path class="st1" d="M107.5,57.5c1.2-1.1,4.1-2,7.7-2.2"/>
	<g>
		<path class="st2" d="M194.3,114.9c10.7,10.1,5.4,24.5,3.4,28.3c-3,5.7-5.4,8.3-8.7,9.8c-2.8,1.2-17.1,6.1-18.6,6.7
			c-2.7,1.1-4.9,0.3-5.6-0.6c-0.7-0.9-0.1-1.8-0.3-2.9c-0.3-1.6-2-2.5-2.2-3.9c-0.1-1.2,1.7-2.4,1.4-4.7c-0.2-1.6-2.4-2.3-2.7-3.8
			s1.7-4.1,1.3-5.9c-0.5-2.5-3.7-4.5-4.1-6.6c-0.2-1.4,1.7-4.1,1.7-5.3c0-1.9-1.2-3.8-1.8-4.8c-1-1.6-0.7-3.2,0.6-3.6
			c11.5-3.7,28.5-6.1,31.2-5.4C191.1,112.7,192.7,113.4,194.3,114.9z"/>
		<path class="st2" d="M127.3,155.8c-5.8,0.5-9.9,0.4-10.1-3.3s6.3-4.2,9.2-4.4c1-0.1,2.5-0.1,2.1,0.6c-0.6,1.1-0.2,4.9,0.8,5.8
			C130.2,155.3,128.5,155.7,127.3,155.8z"/>
		<path class="st2" d="M137.7,162.8c-5.8,0.5-9.2-0.1-9.2-2.8c0-3.7,5.6-3.4,8.5-3.5c1-0.1,2.5-0.1,2.1,0.6
			c-0.6,1.1-0.3,3.6,0.6,4.5C140.6,162.3,138.9,162.6,137.7,162.8z"/>
		<path class="st2" d="M131.4,154.2c-0.7-0.9-1.1-3.9-0.7-5c0.6-1.5,1.7-1.9,2.5-1.9c1.7-0.2,7.4-0.8,8.6-0.9c1.4-0.1,2,0.1,1.9,0.8
			c-0.1,0.9,0.4,4.8,0.9,5.8c0.4,0.7-0.3,1-1.5,1.3c-1.3,0.3-7.3,0.8-8.7,1C133.7,155.4,132.1,155.1,131.4,154.2z"/>
		<path class="st2" d="M141.4,161.1c-0.5-0.9-1-3.1-0.6-3.9c0.6-1.2,1.7-1.5,2.6-1.6c1.7-0.2,2.6-0.1,3.8-0.2c1.4-0.1,2,0,1.9,0.6
			c-0.1,0.7,0.3,3.8,0.8,4.6c0.3,0.5-0.3,0.8-1.5,1c-1.4,0.2-2.8,0.4-4.3,0.5C142.8,162.3,141.9,162,141.4,161.1z"/>
		<path class="st2" d="M147.4,153.1c-0.5-0.7-1.1-4.5-0.7-5.6c0.2-0.6,0.8-1.4,1.7-1.6c0.5-0.1,6.3-1.1,7.1-1.2
			c2.9-0.5,4.7,2.5,4.8,3.7c0.1,2.6-0.9,5-4.6,5.2c-1.4,0.1-5.3,0.2-6.4,0.3C148.3,154,147.9,153.8,147.4,153.1z"/>
		<path class="st2" d="M151.9,160.8c-0.5-0.5-1-3.6-0.7-4.4c0.2-0.5,0.8-1.1,1.7-1.3c0.5-0.1,3.4-0.4,4.2-0.5
			c2.9-0.4,4.6,1.5,4.7,2.9c0.2,2.1-0.6,3.5-4.3,3.8c-1.4,0.1-2.7,0.2-3.7,0.2C152.8,161.5,152.4,161.3,151.9,160.8z"/>
		<path class="st2" d="M131.1,154c-0.4,0.3-1,0.6-1.5,0.6"/>
		<path class="st2" d="M128.5,149.4c0.6-0.4,1.7-0.2,2.1,0"/>
		<path class="st2" d="M147,152.5c-0.5,0.5-1.5,0.8-2.1,0.6"/>
		<path class="st2" d="M143.9,148.1c0.4-0.3,1.9-0.5,2.5-0.1"/>
		<path class="st2" d="M124.2,128.7c-5.7,1.2-9.5,2.6-8.6,6.2c0.9,3.6,7.3,2.1,10.1,1.4c0.9-0.2,2.4-0.7,1.9-1.2
			c-0.9-0.9-1.6-4.6-1-5.7C127,128.3,125.4,128.4,124.2,128.7z"/>
		<path class="st2" d="M128.5,129c-0.4,1.1,0.1,4.1,0.9,4.9c1,1.2,2.1,1.3,3,1.1c1.7-0.3,7.3-1.4,8.5-1.7c1.3-0.3,1.9-0.7,1.6-1.3
			c-0.4-0.8-1.1-4.7-0.9-5.8c0.1-0.8-0.6-0.9-1.8-0.8c-1.4,0.1-7.2,1.4-8.6,1.7C130.4,127.2,128.9,127.9,128.5,129z"/>
		<path class="st2" d="M144.1,125.2c-0.3,0.8,0.3,4.7,1,5.6c0.4,0.5,1.2,1.1,2.1,1c0.5-0.1,6.4-0.9,7.2-1c2.9-0.4,3.7-3.8,3.4-5
			c-0.6-2.5-2.4-4.5-6-3.6c-1.3,0.3-5.1,1.4-6.2,1.6C144.7,124.1,144.4,124.4,144.1,125.2z"/>
		<path class="st2" d="M123.7,138.2c-5.7,1.2-11.1,2.8-10.2,6.4c0.9,3.6,9.1,2.3,11.9,1.5c0.9-0.2,2.4-0.7,1.9-1.2
			c-0.9-0.9-1.6-4.6-1-5.7C126.8,138.2,124.9,138,123.7,138.2z"/>
		<path class="st2" d="M141.8,137c0-0.2,0-0.4,0-0.5c0.1-0.8-0.6-0.9-1.8-0.8c-1.4,0.1-7.2,1.4-8.6,1.7c-0.7,0.1-2.2,0.9-2.6,2
			c-0.4,1.1,0.1,4.1,0.9,4.9c1,1.2,2.1,1.3,3,1.1c1.7-0.3,7.3-1.4,8.5-1.7c1.3-0.3,1.9-0.7,1.6-1.3
			C142.4,141.6,141.9,138.5,141.8,137"/>
		<path class="st2" d="M144.3,136.4c-0.3,0.8,0.2,4.7,0.9,5.6c0.4,0.5,1.1,1.2,2.1,1c0.5-0.1,6.4-0.7,7.2-0.8
			c2.9-0.4,3.8-3.7,3.6-4.9c-0.6-2.6-2.3-4.6-5.9-3.7c-1.3,0.3-5.2,1.2-6.2,1.5C144.8,135.2,144.6,135.5,144.3,136.4z"/>
		<path class="st2" d="M128.3,129.3c-0.5-0.2-1.1-0.2-1.6-0.1"/>
		<path class="st2" d="M127.2,134.4c0.6,0.1,1.7-0.3,2-0.6"/>
		<path class="st2" d="M144,126c-0.6-0.3-1.7-0.2-2.3,0.3"/>
		<path class="st2" d="M142.3,131c0.5,0.2,1.9,0,2.5-0.7"/>
		<path class="st2" d="M128.8,139.1c-0.6-0.3-1.9-0.4-2.5,0.1"/>
		<path class="st2" d="M126.8,144c0.6,0.3,2,0.2,2.4-0.2"/>
		<path class="st2" d="M144.1,136.7c-0.4-0.1-0.9-0.1-1.4,0c-0.2,0.1-0.4,0.1-0.6,0.3"/>
		<path class="st2" d="M142.8,141.9c0.4,0.1,0.8,0.1,1.2,0c0.3-0.1,0.5-0.2,0.8-0.3"/>
		<path class="st2" d="M149.2,157.2c0.3-0.3,1.3-0.6,1.9-0.3"/>
		<path class="st2" d="M151.5,160c-0.3,0.2-1.1,0.4-1.7,0.3"/>
		<path class="st2" d="M138.9,157.8c0.4-0.3,1.2-0.4,1.6-0.1"/>
		<path class="st2" d="M141.1,160.6c-0.3,0.4-1,0.7-1.5,0.5"/>
		<path class="st2" d="M161.2,155.8c0.1-0.3,0.3-0.5,0.6-0.7c0.5-0.4,1.2-0.5,1.7-0.3"/>
		<path class="st2" d="M164.2,157.7c-0.4,0.7-1.6,0.8-2.2,0.4"/>
		<path class="st2" d="M159.5,146.5c0.3-0.5,1.7-1.1,2.5-0.7"/>
		<path class="st2" d="M162.7,150.9c-0.7,0.5-1.7,0.4-2.5-0.2"/>
		<path class="st2" d="M157.5,135.8c0.5-0.9,1.6-1.4,2.4-1.2"/>
		<path class="st2" d="M162.3,138.5c-0.2,0.5-0.4,0.6-0.8,0.9c-1.1,0.9-2.7,0.7-3.6-0.3"/>
		<path class="st2" d="M156.9,123.4c0.3-0.4,1.3-0.7,2-0.6"/>
		<path class="st2" d="M159.1,128.2c-0.6,0.1-1,0-1.5-0.2"/>
		<path class="st2" d="M183.5,112.6c0.1-1.7,0.2-3.6-0.1-4.5c-0.4-1.2-1.5-2.3-2.7-2.4c-1.2,0-14.4-2.1-15.2-2.2
			c-1.2-0.2-2,1-1.9,1.4s0,6.5-1.9,8.1c-1,0.8,2.3,2.3,3.4,2.8"/>
		<path class="st2" d="M159.4,104.9c-0.4-1-1.2-2.8-3.2-3.1c-1-0.2-10.7-1.8-12.9-2.1c-1.7-0.2-2,0.3-2.3,0.8
			c-1.2,2.7-0.4,7.1,3.6,8.9s9.4,4.1,10.2,4.3c1.3,0.4,1.8-0.2,2.7-1.2C158.1,111.9,160.4,107.9,159.4,104.9z"/>
		<path class="st2" d="M200,147.5c0.9-2.2,6-16.1,4.8-22.4c-0.9-4.8-5.2-8.2-6.1-9.4c-0.9-1.2,0-2.1,1.3-2.1c1.4,0,23.7,0.1,25,0
			c2.1-0.1,2.8,0.8,3.8,2.2c1,1.4,4.4,7.2,5,10.9c0.6,3.7-0.2,14.4-3.2,18.1c-1.1,1.3-1.5,0.9-4.1,1.2s-23.9,3.1-24.6,3.1
			C201.2,149,199.2,149.4,200,147.5z"/>
		<path class="st2" d="M183.6,109.1c0.1-0.2,0.4-0.4,0.5-0.5c1.4-1.1,3.5-0.8,4.5,0.6c0.7,0.9,0.9,1.9,0.5,2.9"/>
		<path class="st2" d="M159.6,105.4c1.4-0.8,2.9-0.6,4.1,0.3"/>
		<path class="st2" d="M161.8,112.9c-1.5,0.2-2.8-0.5-3.6-1.5"/>
		<path class="st2" d="M197.5,118.8c0.2-0.4,1.4-1.7,2.5-1.6"/>
		<path class="st2" d="M203.5,121.5c-0.3,1.3-2.8,2.2-3.6,2.1"/>
		<line class="st2" x1="223.9" y1="118.1" x2="208.4" y2="118.3"/>
		<line class="st2" x1="200.6" y1="146" x2="194.8" y2="147.9"/>
		<line class="st2" x1="203.7" y1="136.2" x2="200" y2="136.8"/>
		<line class="st2" x1="202.1" y1="141.8" x2="198" y2="142.5"/>
		<line class="st2" x1="204.6" y1="131.7" x2="200.7" y2="132.3"/>
		<line class="st2" x1="205" y1="127.1" x2="200.5" y2="126.5"/>
		<line class="st3" x1="202.1" y1="142.7" x2="204.3" y2="143"/>
		<line class="st4" x1="204.2" y1="122.6" x2="206.7" y2="122.8"/>
		<line class="st4" x1="204.9" y1="123.6" x2="206.9" y2="123.6"/>
		<line class="st4" x1="204.9" y1="124.6" x2="207.8" y2="124.7"/>
		<line class="st4" x1="205.2" y1="125.6" x2="207.1" y2="125.6"/>
		<line class="st4" x1="205.2" y1="126.8" x2="207.3" y2="126.6"/>
		<line class="st4" x1="205.2" y1="128" x2="206.9" y2="127.7"/>
		<line class="st4" x1="205.1" y1="128.9" x2="207.4" y2="128.8"/>
		<line class="st4" x1="205.1" y1="130" x2="206.7" y2="130"/>
		<line class="st4" x1="204.9" y1="131.5" x2="207.2" y2="131.7"/>
		<line class="st4" x1="204.7" y1="132.6" x2="206.4" y2="132.7"/>
		<line class="st4" x1="204.4" y1="133.9" x2="206.4" y2="134"/>
		<line class="st4" x1="204.1" y1="134.9" x2="206.4" y2="135.3"/>
		<line class="st4" x1="203.8" y1="136" x2="206.2" y2="136.5"/>
		<line class="st4" x1="203.5" y1="137.4" x2="205" y2="137.9"/>
		<line class="st4" x1="203.2" y1="138.7" x2="205.4" y2="139.1"/>
		<line class="st4" x1="204.1" y1="140.4" x2="202.8" y2="140.3"/>
		<line class="st4" x1="202.4" y1="141.4" x2="204.3" y2="141.6"/>
		<line class="st4" x1="201.5" y1="143.7" x2="203.6" y2="143.9"/>
		<line class="st4" x1="201.2" y1="144.8" x2="203" y2="144.9"/>
		<line class="st4" x1="200.6" y1="146.1" x2="202.7" y2="146.4"/>
		<line class="st4" x1="200.2" y1="147.3" x2="201.8" y2="147.4"/>
		<line class="st4" x1="221.1" y1="146.4" x2="221.3" y2="144.2"/>
		<line class="st4" x1="222.4" y1="146.4" x2="222.5" y2="144.7"/>
		<line class="st4" x1="223.7" y1="146.2" x2="223.5" y2="143.9"/>
		<line class="st4" x1="225.1" y1="145.9" x2="224.8" y2="143.8"/>
		<line class="st4" x1="226.4" y1="145.7" x2="226" y2="144"/>
		<line class="st4" x1="228" y1="145.8" x2="227.4" y2="144.5"/>
		<line class="st4" x1="229.6" y1="145.5" x2="228.7" y2="144.1"/>
		<line class="st4" x1="230.7" y1="144.4" x2="229.4" y2="143.4"/>
		<line class="st4" x1="231.7" y1="143.2" x2="230.3" y2="142.1"/>
		<line class="st4" x1="232.3" y1="141.7" x2="230.6" y2="140.5"/>
		<line class="st4" x1="232.7" y1="140.3" x2="231.2" y2="139.7"/>
		<line class="st4" x1="233" y1="139" x2="231" y2="138.3"/>
		<line class="st4" x1="233" y1="137.6" x2="231.7" y2="137.1"/>
		<line class="st4" x1="233.4" y1="135.8" x2="231.7" y2="135.4"/>
		<line class="st4" x1="233.6" y1="134.3" x2="232.1" y2="134.2"/>
		<line class="st4" x1="233.6" y1="132.8" x2="232.1" y2="132.7"/>
		<line class="st4" x1="233.8" y1="131.4" x2="232.4" y2="131.3"/>
		<line class="st4" x1="233.7" y1="129.8" x2="231.9" y2="129.7"/>
		<line class="st4" x1="233.9" y1="128" x2="232.4" y2="128"/>
		<line class="st4" x1="233.5" y1="126.5" x2="232.1" y2="126.7"/>
		<line class="st4" x1="159.5" y1="159.9" x2="158.8" y2="160.7"/>
		<line class="st4" x1="158.2" y1="160" x2="157.3" y2="161.1"/>
		<line class="st4" x1="157.4" y1="159.7" x2="156.4" y2="161"/>
		<line class="st4" x1="155.9" y1="160.2" x2="155.3" y2="161"/>
		<line class="st4" x1="154.5" y1="160.5" x2="153.8" y2="161.3"/>
		<line class="st4" x1="153.7" y1="160" x2="152.7" y2="161.2"/>
		<line class="st4" x1="152.9" y1="159.5" x2="152" y2="160.6"/>
		<line class="st4" x1="147.8" y1="160.6" x2="146.9" y2="161.8"/>
		<line class="st4" x1="146.3" y1="160.8" x2="145.4" y2="162"/>
		<line class="st4" x1="144.9" y1="160.7" x2="144" y2="162"/>
		<line class="st4" x1="143.6" y1="160.8" x2="142.8" y2="161.8"/>
		<line class="st4" x1="142.9" y1="160.3" x2="141.8" y2="161.4"/>
		<line class="st4" x1="138.3" y1="161.7" x2="137.6" y2="162.6"/>
		<line class="st4" x1="137.2" y1="161.6" x2="136.1" y2="162.7"/>
		<line class="st4" x1="135.8" y1="162.1" x2="135.1" y2="162.9"/>
		<line class="st4" x1="134.6" y1="162.2" x2="133.9" y2="162.9"/>
		<line class="st4" x1="155.3" y1="152.8" x2="154.6" y2="153.6"/>
		<line class="st5" x1="153.5" y1="151.9" x2="152.2" y2="153.7"/>
		<line class="st4" x1="152.1" y1="152.5" x2="151.1" y2="153.8"/>
		<line class="st4" x1="154.3" y1="152.6" x2="153.3" y2="153.8"/>
		<line class="st4" x1="150.7" y1="152.6" x2="149.6" y2="153.9"/>
		<line class="st4" x1="149.4" y1="152.5" x2="148.4" y2="153.7"/>
		<line class="st4" x1="148.5" y1="152.1" x2="147.8" y2="153.1"/>
		<line class="st4" x1="142.3" y1="153.6" x2="141.8" y2="154.4"/>
		<line class="st4" x1="141.5" y1="153.2" x2="140.5" y2="154.4"/>
		<line class="st4" x1="139.8" y1="153.4" x2="138.9" y2="154.7"/>
		<line class="st4" x1="138.6" y1="153.4" x2="137.8" y2="154.8"/>
		<line class="st4" x1="137.3" y1="153.6" x2="136.5" y2="154.8"/>
		<line class="st4" x1="136" y1="153.7" x2="135.2" y2="155.1"/>
		<line class="st4" x1="134.5" y1="154.2" x2="133.7" y2="155.2"/>
		<line class="st4" x1="133.5" y1="153.8" x2="132.6" y2="154.9"/>
		<line class="st4" x1="132.6" y1="153.3" x2="131.7" y2="154.7"/>
		<line class="st4" x1="127.9" y1="154.6" x2="127" y2="155.8"/>
		<line class="st4" x1="126.6" y1="154.9" x2="125.7" y2="156"/>
		<line class="st4" x1="125.4" y1="154.8" x2="124.6" y2="155.9"/>
		<line class="st4" x1="154.1" y1="140.8" x2="153.1" y2="142"/>
		<line class="st4" x1="152.7" y1="140.7" x2="151.7" y2="142.2"/>
		<line class="st4" x1="151.5" y1="141.2" x2="150.6" y2="142.4"/>
		<line class="st4" x1="149" y1="141.5" x2="148.2" y2="142.7"/>
		<line class="st4" x1="150.1" y1="141.4" x2="149.3" y2="142.6"/>
		<line class="st4" x1="147.9" y1="141.5" x2="147" y2="142.8"/>
		<line class="st4" x1="146.9" y1="141.1" x2="145.9" y2="142.5"/>
		<line class="st4" x1="140" y1="142.5" x2="139.3" y2="143.7"/>
		<line class="st4" x1="139" y1="142.6" x2="137.9" y2="144"/>
		<line class="st4" x1="137.5" y1="143" x2="136.6" y2="144.3"/>
		<line class="st4" x1="136.3" y1="143.4" x2="135.4" y2="144.5"/>
		<line class="st4" x1="134.7" y1="143.8" x2="134.1" y2="144.8"/>
		<line class="st4" x1="133.4" y1="143.9" x2="132.5" y2="145.1"/>
		<line class="st4" x1="132.1" y1="143.8" x2="131.1" y2="145"/>
		<line class="st4" x1="141.4" y1="142.1" x2="140.3" y2="143.6"/>
		<line class="st4" x1="126.2" y1="144.9" x2="125" y2="146.2"/>
		<line class="st4" x1="124.8" y1="145.1" x2="123.8" y2="146.2"/>
		<line class="st4" x1="123.4" y1="145.3" x2="122.5" y2="146.5"/>
		<line class="st4" x1="122" y1="145.7" x2="121.4" y2="146.8"/>
		<line class="st4" x1="154.4" y1="128.5" x2="152.6" y2="130.8"/>
		<line class="st4" x1="150.9" y1="129.5" x2="149.6" y2="131.2"/>
		<line class="st4" x1="152.1" y1="129.4" x2="150.8" y2="131.1"/>
		<line class="st4" x1="149.2" y1="130" x2="148.3" y2="131.3"/>
		<line class="st4" x1="147.9" y1="130.1" x2="146.6" y2="131.7"/>
		<line class="st4" x1="146.4" y1="130.5" x2="145.6" y2="131.4"/>
		<line class="st4" x1="141.1" y1="132.2" x2="140" y2="133.3"/>
		<line class="st4" x1="139.7" y1="132.2" x2="138.7" y2="133.5"/>
		<line class="st4" x1="138.3" y1="132.5" x2="137.1" y2="134"/>
		<line class="st4" x1="136.7" y1="132.9" x2="136" y2="134"/>
		<line class="st4" x1="135.5" y1="133.2" x2="134.9" y2="134.1"/>
		<line class="st4" x1="134.4" y1="133.9" x2="133.8" y2="134.7"/>
		<line class="st4" x1="133.2" y1="133.9" x2="132.1" y2="135"/>
		<line class="st4" x1="131.9" y1="133.9" x2="131" y2="135"/>
		<line class="st4" x1="125.9" y1="135" x2="124.8" y2="136.3"/>
		<line class="st4" x1="124.6" y1="135.4" x2="123.6" y2="136.5"/>
		<line class="st4" x1="123.3" y1="135.8" x2="122.5" y2="136.8"/>
		<line class="st4" x1="166.2" y1="114.8" x2="164.5" y2="115.4"/>
		<line class="st4" x1="165" y1="114.1" x2="163.3" y2="114.7"/>
		<line class="st4" x1="164" y1="113.5" x2="162.3" y2="114.1"/>
		<line class="st4" x1="155.9" y1="112.9" x2="154.3" y2="113.5"/>
		<line class="st4" x1="155.2" y1="112.2" x2="153.2" y2="113"/>
		<line class="st4" x1="153.4" y1="111.8" x2="151.7" y2="112.5"/>
		<line class="st4" x1="152.5" y1="111" x2="150.7" y2="111.7"/>
		<line class="st4" x1="151.3" y1="110.4" x2="149.4" y2="111.1"/>
		<line class="st4" x1="149.7" y1="110" x2="148.1" y2="110.6"/>
		<line class="st4" x1="148.2" y1="109.7" x2="146.9" y2="110.2"/>
	</g>
	<path class="st1" d="M133.5,126.6c0.8-1,1.9-2.7,2.4-4"/>
	<path class="st1" d="M107.5,130.5c1.2,1.1,4.1,2,7.7,2.2"/>
</g>
</svg>
