<?xml version="1.0" encoding="utf-8"?>
<!-- Generator: Adobe Illustrator 21.1.0, SVG Export Plug-In . SVG Version: 6.00 Build 0)  -->
<svg version="1.1" id="Calque_1" xmlns="http://www.w3.org/2000/svg" xmlns:xlink="http://www.w3.org/1999/xlink" x="0px" y="0px"
	 viewBox="0 0 107 157" style="enable-background:new 0 0 107 157;" xml:space="preserve">
<style type="text/css">
	.st0{fill:none;stroke:#FFFFFF;stroke-width:0.8819;stroke-linecap:round;stroke-linejoin:round;stroke-miterlimit:10;}
	.st1{fill:none;stroke:#FFFFFF;stroke-width:0.4409;stroke-linecap:round;stroke-linejoin:round;stroke-miterlimit:10;}
</style>
<g>
	<path class="st0" d="M18.7,90.3C17.6,89.1,4.6,73.8,4,73.2c-0.6-0.5,0.1-2.5,0.7-3.7c1-1.9,4.3-4.5,9.3-1.6c5,2.9,8.7,8.6,9.2,9.3
		c0.7,1.1,0.8,2.1,0.6,3.9c-0.2,1.8-2,7.9-2.6,8.7C20.8,90.6,19.9,91.7,18.7,90.3z"/>
	<path class="st0" d="M30.3,81.2c-0.4,1.5-4.8,11.6-5.1,12.5c-0.3,0.9-0.6,1.9-0.1,3c0.5,1,8.9,11.3,9.6,12.1
		c0.7,0.8,3.1,1.1,3.8-0.1c2.6-4.9,4.1-15.4,3.8-18.3c-0.5-4.5-1-7.2-4-8.4c-1.6-0.7-5.1-1.6-5.8-1.8C31.8,80,30.7,79.9,30.3,81.2z"
		/>
	<path class="st0" d="M43.5,86.2c5.6,7.6-2,22.9-2.8,24.7c-0.8,1.8-0.8,3-0.1,3.7c0.7,0.7,8.5,9.9,15.3,6.3
		c6.8-3.6,11.3-17.1,4.2-27.3c-5-7.1-13.3-8.2-14.4-8.5C44.6,84.9,42.8,85.1,43.5,86.2z"/>
	<path class="st0" d="M42.4,67.4c-0.1,2.3-0.4,10.4-0.3,12.1c0.1,1.6,0.3,2.6,2.3,2.7c2,0,13.9,2.3,18.5,9.9
		c4.5,7.5,6.2,16,0.6,27.1c-0.7,1.4-1.5,2-0.1,2.9c1.9,1.2,9.9,0.8,11.9,0.3c3.4-0.8,12.8-20,15.3-30.3s3.6-21,3.6-21.7
		c0.1-2.5-0.6-3.4-1.8-3.2c-0.6,0.1-2.8,0.1-3.6-0.1c-2.2-0.4-3-2.9-4.8-3.2c-0.8-0.1-4,1.5-6.4,1.2c-1.1-0.1-4.5-3-6.1-3
		c-2.7-0.1-5.5,3.1-8.8,3.2c-1.7,0.1-4.7-1.7-6.6-1.6c-1.6,0.1-4.6,3.6-6.3,4c-1.8,0.4-3.7-0.4-5.9-1.5C43.2,65.7,42.4,66,42.4,67.4
		z"/>
	<path class="st0" d="M43.3,25.1c-0.1-6.9,0.5-11.8,4.9-11.7c4.4,0.1,4.4,7.9,4.3,11.4c0,1.2-0.2,3-0.9,2.5c-1.2-0.9-5.8-0.7-7,0.4
		C43.6,28.6,43.3,26.6,43.3,25.1z"/>
	<path class="st0" d="M44.8,30.1c1.1-0.7,4.8-0.9,6-0.3c1.7,0.9,2.1,2.1,2.1,3.2c0,2,0.3,8.9,0.2,10.3c0,1.6-0.3,2.4-1.1,2.2
		c-1.1-0.2-5.8,0-7,0.5c-0.8,0.4-1.2-0.4-1.4-1.9c-0.2-1.6-0.2-8.8-0.3-10.5C43.2,32.8,43.6,30.9,44.8,30.1z"/>
	<path class="st0" d="M44.5,49.3c0.9-0.6,5.5-0.9,6.7-0.3c0.7,0.3,1.6,1.1,1.7,2.2c0,0.6,0.7,7.6,0.8,8.6c0.3,3.4-3.4,5.4-4.9,5.3
		c-3.1-0.1-5.9-1.6-5.8-6c0-1.6,0.2-6.3,0.2-7.6C43.4,50.2,43.7,49.8,44.5,49.3z"/>
	<path class="st0" d="M85.7,27.7c1.8-5.3,3.9-9.8,7.2-8.5c3.3,1.3,0.9,8.2-0.1,10.8c-0.3,0.9-1,2.2-1.4,1.6c-0.7-1-4.2-2.1-5.4-1.6
		C85,30.4,85.4,28.8,85.7,27.7z"/>
	<path class="st0" d="M84.4,33c1.1-0.2,3.9,0.8,4.6,1.6c1,1.2,0.9,2.2,0.6,3c-0.6,1.5-2.5,6.8-3,7.8c-0.5,1.2-1,1.7-1.5,1.3
		c-0.7-0.5-4.3-1.8-5.4-1.8c-0.7,0-0.8-0.7-0.4-1.9c0.3-1.3,2.5-6.6,3-8C82.4,34.5,83.3,33.2,84.4,33z"/>
	<path class="st0" d="M78.3,48.3c0.8-0.2,4.4,1,5.2,1.8c0.4,0.5,0.9,1.3,0.6,2.1c-0.1,0.5-1.8,5.9-2,6.7c-0.8,2.7-4.2,3-5.3,2.5
		c-2.3-1-3.9-3-2.5-6.2c0.5-1.2,2.1-4.7,2.5-5.6C77.1,48.7,77.5,48.5,78.3,48.3z"/>
	<path class="st0" d="M89.5,52.5c0.7-0.2,3.5,0.6,4.3,1.3c0.4,0.4,0.9,1.1,0.7,1.9c-0.1,0.4-0.6,5.1-0.8,5.8c-0.5,2.5-3.6,3-4.6,2.7
		c-2.2-0.7-3.8-2.4-2.8-5.4c0.4-1.1,1.5-4.1,1.8-4.9C88.4,53,88.7,52.7,89.5,52.5z"/>
	<path class="st0" d="M92.5,38.3c1.1-4,2.4-7.5,4.9-6.7c2.5,0.8,1.1,6,0.4,8c-0.2,0.7-0.6,1.7-0.9,1.3c-0.6-0.7-3.2-1.4-4.1-1
		C92.1,40.3,92.2,39.1,92.5,38.3z"/>
	<path class="st0" d="M92.4,42.1c0.8-0.2,2.9,0.3,3.5,0.8c0.8,0.8,0.8,1.6,0.6,2.2c-0.3,1.2-1.2,4.5-1.5,5.3c-0.3,0.9-0.6,1.4-1,1.1
		c-0.6-0.3-3.3-1-4.1-0.9c-0.5,0.1-0.6-0.5-0.5-1.4c0.2-1,1.2-4.4,1.5-5.4C91,43.3,91.6,42.3,92.4,42.1z"/>
	<path class="st0" d="M54.2,22.1C54.2,15.2,54.6,8.4,59,8.5c4.4,0.1,5.1,9.9,5,13.4c0,1.2-0.2,3-0.9,2.5c-1.2-0.9-5.8-0.7-7,0.4
		C55,25.7,54.2,23.5,54.2,22.1z"/>
	<path class="st0" d="M57.7,43.5c-0.3,0.1-0.5,0.1-0.6,0.2c-0.8,0.4-1.2-0.4-1.4-1.9c-0.2-1.6-0.2-8.8-0.3-10.5
		c0-0.9,0.4-2.8,1.6-3.6c1.1-0.7,4.8-0.9,6-0.3c1.7,0.9,2.1,2.1,2.1,3.2c0,2,0.3,8.9,0.2,10.3c0,1.6-0.3,2.4-1.1,2.2
		C63.1,43,59.4,43.1,57.7,43.5"/>
	<path class="st0" d="M57.5,46.5c0.9-0.6,5.5-1,6.7-0.5c0.7,0.3,1.7,1,1.8,2.1c0.1,0.6,0.9,7.6,1,8.6c0.4,3.4-3.3,5.5-4.8,5.5
		c-3.1,0-5.9-1.4-5.9-5.8c0-1.6,0.1-6.3,0.1-7.6C56.4,47.5,56.7,47.1,57.5,46.5z"/>
	<path class="st0" d="M41.5,124.7c-0.1,2-0.6,13.1-0.3,15c0.3,1.9,0.8,3.1,2.1,3.9c10.3,6.6,29.3,4.9,31.5,5.1
		c4.5,0.5,4.2-4.3,3.9-6.6c-0.3-2.3-1.1-11.5-1.1-12.6c-0.1-2.2-0.6-3.8-2.9-3c-4.1,1.4-21.5,3.1-29.4-2.7
		C43.9,122.7,41.6,122.5,41.5,124.7z"/>
	<path class="st0" d="M41.9,123.3c-1.2-0.7-2-2-1.9-3.4c0-1.6,0.8-2.9,2.3-3.4"/>
	<path class="st0" d="M47.6,120.5c-0.2,1.4-1.1,2.6-2.4,3.1"/>
	<path class="st0" d="M72.6,127c-1.2-0.6-2.1-2.6-1.8-4.2"/>
	<path class="st0" d="M76.7,121.4c0.8,0.7,1.3,1.4,1.2,2.5c0,1.1-0.4,2.1-1.2,2.8"/>
	<path class="st0" d="M26.6,90c-0.5,0.2-1.1,0.3-1.7,0.3c-1.3,0-2.4-0.6-3.2-1.5"/>
	<path class="st0" d="M23.9,81.9c0.4-0.1,0.8-0.2,1.3-0.2c1.7,0,3.2,1.1,3.8,2.6"/>
	<path class="st0" d="M45.1,29.8c-0.4-0.5-0.6-1.2-0.6-1.9"/>
	<path class="st0" d="M51,27.1c0.2,0.8-0.2,2.1-0.4,2.5"/>
	<path class="st0" d="M45.3,48.9c-0.5-0.6-0.8-1.8-0.5-2.5"/>
	<path class="st0" d="M50.8,45.7c0.3,0.5,0.2,2.5-0.1,3"/>
	<path class="st0" d="M45.1,66.4c-0.2-0.6,0.1-1.8,0.3-2.2"/>
	<path class="st0" d="M51.3,64.3c0.3,0.5,0.2,1.9,0.1,2.2"/>
	<path class="st0" d="M56.5,27.8c-0.5-0.6-0.7-2.3-0.5-3"/>
	<path class="st0" d="M61.7,24.1c0.5,0.6,0.6,2.5,0.4,2.9"/>
	<path class="st0" d="M57.9,46.1c-0.2-0.5-0.4-1-0.4-1.6c0-0.3,0.1-0.6,0.1-0.8"/>
	<path class="st0" d="M63.6,43.3c0.2,0.4,0.3,0.9,0.3,1.4c0,0.3-0.1,0.7-0.2,1"/>
	<path class="st0" d="M58.9,63.9c0-0.1,0-0.3,0-0.4c0-0.7,0.2-1.3,0.6-1.8"/>
	<path class="st0" d="M64.4,61.4c0.6,0.6,0.9,1.4,0.9,2.3c0,0.2,0,0.4-0.1,0.6"/>
	<path class="st0" d="M85.2,33c-0.1-0.3-0.1-0.6-0.1-0.9c0-0.8,0.4-1.6,1-2.1"/>
	<path class="st0" d="M90.4,31.1c0.2,0.4,0.2,0.8,0.2,1.2c0,1-0.6,1.9-1.5,2.4"/>
	<path class="st0" d="M79,48.2c-0.1-0.3-0.1-0.5-0.1-0.8c0-0.9,0.4-1.6,1.1-2.1"/>
	<path class="st0" d="M84.4,46.6c0.1,0.3,0.1,0.6,0.1,0.9c0,1-0.5,1.8-1.3,2.3"/>
	<path class="st0" d="M73.7,62.7c0-0.1,0-0.2,0-0.3c0-1,0.3-1.7,1.1-2.1"/>
	<path class="st0" d="M79.1,61.6c0.4,1.2-0.2,2.9-1.3,3.3"/>
	<path class="st0" d="M86.1,65.1c0-0.9,0.3-1.5,1-1.8"/>
	<path class="st0" d="M90.6,64.3c0.4,0.8-0.2,2.3-0.8,2.7"/>
	<path class="st0" d="M89.6,52.4c0-0.2,0.2-1.3,0.6-1.7"/>
	<path class="st0" d="M94,51.5c0.1,0.3,0,1.6-0.4,2"/>
	<path class="st0" d="M92.6,41.9c0-0.1,0-0.3,0-0.4c0-0.6,0.2-1.3,0.7-1.6"/>
	<path class="st0" d="M96.6,40.8c0.1,0.3,0.2,0.5,0.1,0.8c0,0.5-0.2,1-0.6,1.4"/>
	<line class="st0" x1="49.2" y1="121.1" x2="49.1" y2="125.8"/>
	<line class="st0" x1="68.7" y1="122.8" x2="68.3" y2="127.6"/>
	<line class="st0" x1="54" y1="121.6" x2="53.9" y2="126.9"/>
	<line class="st0" x1="64.7" y1="122.5" x2="64.1" y2="127.8"/>
	<line class="st0" x1="39.5" y1="106.4" x2="41.6" y2="108.4"/>
	<line class="st0" x1="42.3" y1="88.7" x2="44.8" y2="88.7"/>
	<line class="st0" x1="73.7" y1="130" x2="74.8" y2="144.5"/>
	<path class="st0" d="M44,101.6c-0.3,0.1-0.7,0.1-1.1,0.1c-0.7,0-1.3-0.2-1.8-0.5"/>
	<path class="st0" d="M42.3,93.9c0.3-0.1,0.6-0.1,0.9-0.1c0.8,0,1.5,0.3,2.2,0.7"/>
	<line class="st1" x1="33.7" y1="83.6" x2="36.6" y2="81.6"/>
	<line class="st1" x1="35.6" y1="83.8" x2="38" y2="82.3"/>
	<line class="st1" x1="37.3" y1="84.1" x2="39.7" y2="82.6"/>
	<line class="st1" x1="34.6" y1="81.2" x2="32.3" y2="82.6"/>
	<line class="st1" x1="32.8" y1="80.8" x2="30.9" y2="82.1"/>
	<line class="st1" x1="23.7" y1="79.4" x2="23.2" y2="79.4"/>
	<line class="st1" x1="23.7" y1="78.1" x2="21.7" y2="78.2"/>
	<line class="st1" x1="22.7" y1="76.6" x2="20.3" y2="76.6"/>
	<line class="st1" x1="21.4" y1="75.3" x2="19.2" y2="75.2"/>
	<line class="st1" x1="20.2" y1="74" x2="17.9" y2="74.2"/>
	<line class="st1" x1="18.6" y1="71.9" x2="16.5" y2="72.2"/>
	<line class="st1" x1="17.3" y1="70.9" x2="15.1" y2="71.1"/>
	<line class="st1" x1="16.3" y1="69.8" x2="13.7" y2="69.8"/>
	<line class="st1" x1="19.8" y1="72.9" x2="17.3" y2="73.1"/>
	<line class="st1" x1="53.1" y1="56.9" x2="51.3" y2="56"/>
	<line class="st1" x1="53.1" y1="55.5" x2="50.8" y2="54.3"/>
	<line class="st1" x1="53" y1="53.6" x2="51.3" y2="52.9"/>
	<line class="st1" x1="52.9" y1="52.3" x2="50.7" y2="51.3"/>
	<line class="st1" x1="52.9" y1="51" x2="51.2" y2="50.2"/>
	<line class="st1" x1="52.8" y1="45.6" x2="50.6" y2="44.7"/>
	<line class="st1" x1="52.8" y1="43.1" x2="51" y2="42.1"/>
	<line class="st1" x1="52.7" y1="44.4" x2="51" y2="43.4"/>
	<line class="st1" x1="52.7" y1="41.7" x2="50.4" y2="40.5"/>
	<line class="st1" x1="52.6" y1="39.8" x2="50.9" y2="39.1"/>
	<line class="st1" x1="52.6" y1="38.5" x2="50.4" y2="37.5"/>
	<line class="st1" x1="52.6" y1="37.1" x2="50.9" y2="36.4"/>
	<line class="st1" x1="52.5" y1="35.8" x2="50.1" y2="34.7"/>
	<line class="st1" x1="52.6" y1="34.4" x2="50.2" y2="33.2"/>
	<line class="st1" x1="52.5" y1="32.9" x2="50.8" y2="32.1"/>
	<line class="st1" x1="52.4" y1="26.4" x2="50.6" y2="25.6"/>
	<line class="st1" x1="52.2" y1="24.9" x2="50.1" y2="24"/>
	<line class="st1" x1="52.2" y1="23.6" x2="50.5" y2="22.9"/>
	<line class="st1" x1="52.1" y1="22.2" x2="50" y2="21.4"/>
	<line class="st1" x1="52" y1="21" x2="50.5" y2="20.3"/>
	<line class="st1" x1="66.8" y1="55.7" x2="63.9" y2="54.4"/>
	<line class="st1" x1="66.5" y1="54.3" x2="63.3" y2="52.7"/>
	<line class="st1" x1="66.5" y1="52.4" x2="63.8" y2="51.3"/>
	<line class="st1" x1="66.1" y1="50.9" x2="63.2" y2="49.7"/>
	<line class="st1" x1="65.9" y1="49.5" x2="63.7" y2="48.6"/>
	<line class="st1" x1="65.8" y1="48.2" x2="62.9" y2="46.9"/>
	<line class="st1" x1="65.3" y1="46.8" x2="62.8" y2="45.6"/>
	<line class="st1" x1="64.8" y1="42.7" x2="62.9" y2="42"/>
	<line class="st1" x1="65.1" y1="41.5" x2="63.3" y2="40.5"/>
	<line class="st1" x1="65" y1="40" x2="62.7" y2="38.9"/>
	<line class="st1" x1="64.9" y1="38.2" x2="63.2" y2="37.5"/>
	<line class="st1" x1="64.8" y1="36.8" x2="62.6" y2="35.9"/>
	<line class="st1" x1="64.8" y1="35.5" x2="63" y2="34.7"/>
	<line class="st1" x1="64.7" y1="34.2" x2="62.3" y2="33.1"/>
	<line class="st1" x1="64.8" y1="32.7" x2="62.3" y2="31.6"/>
	<line class="st1" x1="64.6" y1="31.2" x2="62.9" y2="30.5"/>
	<line class="st1" x1="63.7" y1="23.1" x2="62" y2="22.4"/>
	<line class="st1" x1="64.1" y1="22" x2="62.4" y2="21.4"/>
	<line class="st1" x1="64" y1="20.6" x2="61.9" y2="19.8"/>
	<line class="st1" x1="63.9" y1="19.4" x2="62.3" y2="18.7"/>
	<line class="st1" x1="82.1" y1="57.7" x2="80.8" y2="56.2"/>
	<line class="st1" x1="82.6" y1="56.4" x2="80.9" y2="54.4"/>
	<line class="st1" x1="83.2" y1="54.6" x2="81.9" y2="53.3"/>
	<line class="st1" x1="83.7" y1="53.4" x2="82" y2="51.6"/>
	<line class="st1" x1="81.8" y1="59.2" x2="80.2" y2="57.4"/>
	<line class="st1" x1="86.5" y1="46" x2="84.8" y2="44.4"/>
	<line class="st1" x1="87" y1="44.8" x2="85.7" y2="43.2"/>
	<line class="st1" x1="87.5" y1="43.4" x2="85.8" y2="41.5"/>
	<line class="st1" x1="88.1" y1="41.7" x2="86.8" y2="40.4"/>
	<line class="st1" x1="89.1" y1="39.2" x2="87.8" y2="37.8"/>
	<line class="st1" x1="89.5" y1="38" x2="87.7" y2="36"/>
	<line class="st1" x1="88.5" y1="40.4" x2="87.2" y2="39.1"/>
	<line class="st1" x1="92.5" y1="30.3" x2="90.7" y2="28.7"/>
	<line class="st1" x1="93" y1="29.2" x2="91.6" y2="27.8"/>
	<line class="st1" x1="93.4" y1="27.7" x2="91.7" y2="26.1"/>
	<line class="st1" x1="93.8" y1="26.6" x2="92.5" y2="25.3"/>
	<line class="st1" x1="94.3" y1="25.2" x2="92.6" y2="23.7"/>
	<line class="st1" x1="94.7" y1="24" x2="93.5" y2="22.8"/>
	<line class="st1" x1="93.7" y1="58.9" x2="92.1" y2="57.6"/>
	<line class="st1" x1="93.9" y1="57.4" x2="91.9" y2="55.8"/>
	<line class="st1" x1="94.2" y1="55.6" x2="92.7" y2="54.6"/>
	<line class="st1" x1="93.6" y1="60.3" x2="91.8" y2="58.9"/>
	<line class="st1" x1="94.9" y1="51.1" x2="92.7" y2="49.5"/>
	<line class="st1" x1="95.3" y1="49.6" x2="93.2" y2="47.9"/>
	<line class="st1" x1="95.4" y1="47.7" x2="93.9" y2="46.6"/>
	<line class="st1" x1="95.9" y1="46.1" x2="93.9" y2="44.8"/>
	<line class="st1" x1="97.7" y1="40.3" x2="96.5" y2="39.4"/>
	<line class="st1" x1="97.7" y1="38.8" x2="96.5" y2="38"/>
	<line class="st1" x1="87.2" y1="101.6" x2="84.5" y2="101.2"/>
	<line class="st1" x1="86.6" y1="103.1" x2="84.7" y2="102.8"/>
	<line class="st1" x1="85.8" y1="104.7" x2="83.1" y2="104.2"/>
	<line class="st1" x1="85" y1="106.4" x2="83" y2="105.9"/>
	<line class="st1" x1="84.2" y1="108" x2="81.7" y2="107.3"/>
	<line class="st1" x1="83.3" y1="109.7" x2="80.1" y2="108.6"/>
	<line class="st1" x1="82.6" y1="111.3" x2="80.4" y2="110.5"/>
	<line class="st1" x1="81.9" y1="112.7" x2="79.6" y2="111.7"/>
	<line class="st1" x1="81" y1="114.4" x2="78.1" y2="113.2"/>
	<line class="st1" x1="80.2" y1="115.7" x2="77.9" y2="114.7"/>
	<line class="st1" x1="79.2" y1="117.4" x2="76.5" y2="116.2"/>
	<line class="st1" x1="78.4" y1="118.8" x2="76.4" y2="118"/>
	<line class="st1" x1="77.1" y1="120.3" x2="74.4" y2="119.4"/>
	<line class="st1" x1="75.7" y1="121.6" x2="73.7" y2="121"/>
	<line class="st1" x1="78.5" y1="138.7" x2="76.3" y2="137.2"/>
	<line class="st1" x1="78.2" y1="140.2" x2="76.6" y2="139.1"/>
	<line class="st1" x1="78.6" y1="142.4" x2="76.4" y2="140.9"/>
	<line class="st1" x1="78.7" y1="145.5" x2="76.1" y2="143.3"/>
	<line class="st1" x1="77.8" y1="147.3" x2="76.3" y2="145.8"/>
	<line class="st1" x1="76.6" y1="148.4" x2="74.6" y2="145.7"/>
	<line class="st1" x1="74.6" y1="148.4" x2="73" y2="146.1"/>
	<line class="st1" x1="72.5" y1="148.5" x2="71" y2="146.3"/>
	<line class="st1" x1="69.9" y1="148.5" x2="68.9" y2="146.2"/>
	<line class="st1" x1="67.3" y1="148.5" x2="66.3" y2="146.2"/>
	<line class="st1" x1="64.7" y1="148.4" x2="64" y2="146"/>
	<line class="st1" x1="62.3" y1="148.7" x2="61.9" y2="146.8"/>
	<line class="st1" x1="78.3" y1="136.1" x2="76.4" y2="135.7"/>
</g>
</svg>
