<?xml version="1.0" encoding="utf-8"?>
<!-- Generator: Adobe Illustrator 21.1.0, SVG Export Plug-In . SVG Version: 6.00 Build 0)  -->
<svg version="1.1" id="Calque_1" xmlns="http://www.w3.org/2000/svg" xmlns:xlink="http://www.w3.org/1999/xlink" x="0px" y="0px"
	 viewBox="0 0 242.2 103" style="enable-background:new 0 0 242.2 103;" xml:space="preserve">
<style type="text/css">
	.st0{fill:none;stroke:#FFFFFF;stroke-width:0.9747;stroke-linecap:round;stroke-linejoin:round;stroke-miterlimit:10;}
	.st1{fill:none;stroke:#FFFFFF;stroke-width:0.4874;stroke-linecap:round;stroke-linejoin:round;stroke-miterlimit:10;}
	.st2{fill:none;stroke:#FFFFFF;stroke-width:0.9957;stroke-linecap:round;stroke-linejoin:round;stroke-miterlimit:10;}
	.st3{fill:none;stroke:#FFFFFF;stroke-width:0.4979;stroke-linecap:round;stroke-linejoin:round;stroke-miterlimit:10;}
</style>
<g>
	<path class="st0" d="M14.6,54.6c9.2-0.1,23.4-2.2,30.4-5.4c7.9-3.7,12.4-5.3,18-11.6c5.4-6,14.3-10.9,21-11.6
		c13.8-1.6,23.6-7.2,30.1-12c2-8.4,12.3-9.8,16.2-2.5c4.3,8.1-3.9,13.2-10.8,11.3c-10.8,1.5-19.8,6.7-23.5,9
		c-4.5,2.8-5.1,4.6,0.9,5.8c10.4,2,41.1-0.7,45.9-2.1c9.5-2.6,10.6,13,2.9,11.9c-13.9-2.1-29.6,1.9-31.9,2.5
		c-3.3,0.9-1.4,2.6,1.4,2.8c2.8,0.1,32-3.9,39.2-5.6c7.9-1.9,10.4,11.5,2.2,10.9c-13.2-1-33.2,1.6-36.9,3c-4.6,1.9-3.1,3,0.8,2.6
		c5.3-0.5,25-3.3,31.3-5.2c6.5-2,8.9,12.9-1.3,11.8c-12.7-1.4-31.7,2.9-33,2.6c-2.1-0.4-3.1,1.8-0.4,3.5c2.7,1.7,25.6-5.8,30.7-6.3
		c7.3-0.7,8.6,11.5,1.3,10.4c-10.3-1.5-29.1,5.6-40,8.5c-7.2,1.9-20.1,4.6-28.6,3.8C68.6,91.7,56.9,82,51.4,80.7
		c-5.5-1.3-26.6,0.2-30.3,1.9C10.4,76.2,12.1,60.9,14.6,54.6z"/>
	<g>
		<line class="st1" x1="100.6" y1="29.4" x2="103.5" y2="24.4"/>
		<line class="st1" x1="103.6" y1="27.4" x2="105.4" y2="23.7"/>
		<line class="st1" x1="105.4" y1="27" x2="107.6" y2="23.3"/>
		<line class="st1" x1="107.8" y1="26" x2="109.6" y2="23.1"/>
		<line class="st1" x1="110.1" y1="24.9" x2="111.4" y2="22.4"/>
		<line class="st1" x1="113.1" y1="24.4" x2="114.1" y2="22.2"/>
		<line class="st1" x1="114.8" y1="23.8" x2="115.9" y2="21.6"/>
		<line class="st1" x1="116.5" y1="23.4" x2="117.9" y2="20.9"/>
		<line class="st1" x1="111.5" y1="24.9" x2="112.7" y2="22.4"/>
	</g>
	<line class="st1" x1="115.5" y1="49.2" x2="116.1" y2="47.2"/>
	<line class="st1" x1="117" y1="49.1" x2="117.9" y2="46.5"/>
	<line class="st1" x1="118.4" y1="48.9" x2="119.2" y2="47"/>
	<line class="st1" x1="120.1" y1="48.3" x2="120.7" y2="46.4"/>
	<line class="st1" x1="121.8" y1="48" x2="122.7" y2="45.5"/>
	<line class="st1" x1="123.2" y1="47.6" x2="124" y2="45.7"/>
	<line class="st1" x1="124.6" y1="47.4" x2="125.4" y2="44.9"/>
	<line class="st1" x1="127.6" y1="47" x2="128.5" y2="45"/>
	<line class="st1" x1="126.1" y1="47.2" x2="127" y2="45.2"/>
	<line class="st1" x1="129.3" y1="46.8" x2="130.4" y2="44.2"/>
	<line class="st1" x1="131" y1="46.6" x2="131.7" y2="44.7"/>
	<line class="st1" x1="132.6" y1="46.6" x2="133.5" y2="44.1"/>
	<line class="st1" x1="133.9" y1="46.9" x2="134.6" y2="44.9"/>
	<line class="st1" x1="135.5" y1="46.8" x2="136.6" y2="44"/>
	<line class="st1" x1="137.1" y1="46.4" x2="138.3" y2="43.7"/>
	<line class="st1" x1="138.3" y1="47" x2="139" y2="45.1"/>
	<line class="st1" x1="140" y1="47" x2="140.7" y2="45"/>
	<line class="st1" x1="141.6" y1="46.8" x2="142.4" y2="44.3"/>
	<line class="st1" x1="143" y1="46.6" x2="143.6" y2="44.7"/>
	<line class="st1" x1="144.5" y1="46.7" x2="144.8" y2="45.7"/>
	<line class="st1" x1="120.8" y1="60.6" x2="121.5" y2="58.6"/>
	<line class="st1" x1="122.2" y1="60.1" x2="123.1" y2="57.6"/>
	<line class="st1" x1="124" y1="59.6" x2="124.7" y2="57.7"/>
	<line class="st1" x1="125.4" y1="59.2" x2="126" y2="57.3"/>
	<line class="st1" x1="127" y1="59.1" x2="127.9" y2="56.6"/>
	<line class="st1" x1="128.5" y1="59" x2="129.2" y2="57"/>
	<line class="st1" x1="129.9" y1="58.7" x2="130.7" y2="56.2"/>
	<line class="st1" x1="132.7" y1="58.5" x2="133.7" y2="56.5"/>
	<line class="st1" x1="131.3" y1="58.5" x2="132.2" y2="56.5"/>
	<line class="st1" x1="134.3" y1="58.2" x2="135.5" y2="55.6"/>
	<line class="st1" x1="136.3" y1="58.1" x2="137" y2="56.2"/>
	<line class="st1" x1="137.7" y1="57.9" x2="138.6" y2="55.4"/>
	<line class="st1" x1="139.3" y1="57.9" x2="140" y2="55.9"/>
	<line class="st1" x1="140.7" y1="57.8" x2="141.8" y2="55.1"/>
	<line class="st1" x1="142.3" y1="57.5" x2="143.5" y2="54.7"/>
	<line class="st1" x1="144" y1="57.6" x2="144.7" y2="55.6"/>
	<line class="st1" x1="145.6" y1="57.5" x2="146.3" y2="55.4"/>
	<line class="st1" x1="146.9" y1="57.6" x2="147.7" y2="55.1"/>
	<line class="st1" x1="148.6" y1="57.4" x2="149.3" y2="55.5"/>
	<line class="st1" x1="150" y1="57.4" x2="150.3" y2="56.4"/>
	<line class="st1" x1="123.3" y1="71.8" x2="124" y2="69.2"/>
	<line class="st1" x1="124.8" y1="71.6" x2="125.6" y2="69.5"/>
	<line class="st1" x1="126.3" y1="71.4" x2="127.4" y2="68.7"/>
	<line class="st1" x1="128.4" y1="71" x2="128.9" y2="69.1"/>
	<line class="st1" x1="131.3" y1="70.6" x2="132" y2="68.6"/>
	<line class="st1" x1="132.7" y1="70.4" x2="133.7" y2="67.6"/>
	<line class="st1" x1="129.9" y1="70.7" x2="130.5" y2="68.8"/>
	<line class="st1" x1="134.1" y1="70.6" x2="134.7" y2="68"/>
	<line class="st1" x1="135.4" y1="70.5" x2="136" y2="68.4"/>
	<line class="st1" x1="137.1" y1="70.1" x2="137.7" y2="67.6"/>
	<line class="st1" x1="138.4" y1="69.9" x2="139" y2="68"/>
	<line class="st1" x1="140" y1="69.6" x2="140.6" y2="67.2"/>
	<line class="st1" x1="141.3" y1="69.4" x2="141.9" y2="67.6"/>
	<line class="st1" x1="127.2" y1="83.3" x2="127.8" y2="81.2"/>
	<line class="st1" x1="128.8" y1="82.9" x2="129.5" y2="80.2"/>
	<line class="st1" x1="130.7" y1="82.4" x2="131.1" y2="80.4"/>
	<line class="st1" x1="125.7" y1="83.9" x2="126.3" y2="81.4"/>
	<line class="st1" x1="132" y1="82.1" x2="132.7" y2="79.2"/>
	<line class="st1" x1="133.8" y1="81.9" x2="134.5" y2="79"/>
	<line class="st1" x1="135.7" y1="81.2" x2="136.1" y2="79.1"/>
	<line class="st1" x1="137.5" y1="80.9" x2="137.9" y2="78.3"/>
	<line class="st1" x1="138.9" y1="80.3" x2="139.1" y2="79.5"/>
	<line class="st1" x1="140.2" y1="80.5" x2="140.5" y2="79"/>
	<line class="st1" x1="76.4" y1="91.7" x2="76.7" y2="88.7"/>
	<line class="st1" x1="74.8" y1="91.2" x2="74.9" y2="89"/>
	<line class="st1" x1="73" y1="90.4" x2="73.3" y2="87.3"/>
	<line class="st1" x1="71.1" y1="89.6" x2="71.4" y2="87.4"/>
	<line class="st1" x1="69.2" y1="88.9" x2="69.7" y2="86.1"/>
	<line class="st1" x1="67.3" y1="88" x2="68.2" y2="84.4"/>
	<line class="st1" x1="65.4" y1="87.4" x2="66.1" y2="84.9"/>
	<line class="st1" x1="63.8" y1="86.7" x2="64.7" y2="84.1"/>
	<line class="st1" x1="61.9" y1="85.8" x2="63" y2="82.5"/>
	<line class="st1" x1="60.4" y1="85.1" x2="61.3" y2="82.4"/>
	<line class="st1" x1="58.4" y1="84.1" x2="59.5" y2="81.1"/>
	<line class="st1" x1="56.8" y1="83.3" x2="57.5" y2="81.1"/>
	<line class="st1" x1="55" y1="82" x2="55.9" y2="79"/>
	<line class="st1" x1="53.3" y1="81.3" x2="54" y2="78.3"/>
	<line class="st1" x1="25.8" y1="81.6" x2="27.2" y2="79.1"/>
	<line class="st1" x1="23.8" y1="81.5" x2="24.9" y2="79.6"/>
	<line class="st1" x1="21.3" y1="82.5" x2="22.8" y2="80"/>
	<line class="st1" x1="19.4" y1="80.8" x2="21.6" y2="77.8"/>
	<line class="st1" x1="17.7" y1="79.9" x2="19.2" y2="78.2"/>
	<line class="st1" x1="16.5" y1="78.1" x2="19.3" y2="75.8"/>
	<line class="st1" x1="15.9" y1="76.5" x2="18.3" y2="74.6"/>
	<line class="st1" x1="14.4" y1="75.2" x2="16.7" y2="73.3"/>
	<line class="st1" x1="13.7" y1="72.1" x2="16.2" y2="70.8"/>
	<line class="st1" x1="13.2" y1="69.1" x2="15.7" y2="67.9"/>
	<line class="st1" x1="13" y1="66" x2="15.6" y2="65.2"/>
	<line class="st1" x1="12.9" y1="63.4" x2="15" y2="62.9"/>
	<line class="st1" x1="28.3" y1="81.3" x2="28.7" y2="79.2"/>
	<path class="st2" d="M158.2,47.4c-1.7-6.3-1.8-10.9-1.7-11.9c0.1-1.2,0.7-2.9,2-4.5c3.1-3.9,4-7.2,3-11.1c-0.5-2.1,2.6-3.6,4.2-3.4
		c4.9,0.7,18,7.8,22.2,15.1c5.9,10.3-1.5,20.7-9.2,24.8c-6.1,3.2-13.7,3.3-17.6-0.5"/>
	<path class="st2" d="M153.6,20c1.1,3.5,1,8.8-0.3,10.2c-0.6,0.6-1.4,1.2-2.6,1.6c-1.5,0.4-8.9,1.4-9.8,1.4c-3,0.1-4,0-4.2-1.6
		c-0.4-3.2-1.8-7.5-3.9-9.5c-0.8-0.8,0.1-1.1,1.9-1.8c8-3,9.8-2.8,15.5-2.6C152.4,17.8,153.3,19,153.6,20z"/>
	<path class="st2" d="M104.5,27.4c2.5,10.2,8.5,10.4,11.2,10.3c2.8,0,11.5-1.3,12.4-1.5c1.4-0.3,1.9-1.2,2.1-1.8
		c0.3-0.6,0.1-8.7-1.9-13"/>
	<path class="st2" d="M154.4,46.8c-0.3-3.2-0.3-7,0.2-11.3c0.2-1.6-0.3-2.3-0.9-2.5c-0.5-0.2-1.4-0.5-2.4-0.8"/>
	<path class="st2" d="M122.5,85.4c27.9,5.9,61.7,11.5,70.1-10.2c3.6-9.3,1.4-24.2,0.1-27c-0.4-0.7-1.2-1.6-1.8,0.5
		c-1.4,5-12,15.8-24.5,13.6c-3.2-0.6-5.7-1.8-7.7-4"/>
	<path class="st2" d="M123.3,72.4c-0.1,0.6-0.4,3.1-0.5,3.7"/>
	<path class="st2" d="M124.3,60.1c-0.1,0.7-0.2,2.4-0.3,3"/>
	<path class="st2" d="M124.9,47.9c-0.1,0.7-0.3,3.2-0.3,3.8"/>
	<path class="st2" d="M194.5,35.9c1,1.8,3.5,5.4,4.2,9c1.3,6.3,0.4,20.4-2.8,30c-0.6,1.6-0.6,4,1.4,4.3c2,0.3,19.8,0.8,21.7,0.7
		c1.9,0,2.8-0.1,3.7-1.8c6-11,8.4-25.4,5.8-34c-1.4-4.6-3.5-8.5-4.3-9.8c-0.8-1.3-2.2-2.3-3.4-2.3c-1.2,0-23.7,0-24.6,0
		C195.2,32.1,192.9,33.1,194.5,35.9z"/>
	<path class="st2" d="M197.1,40.7c-0.4,2.5-2.4,3.8-4.5,3.8c-1.1,0-2.2-0.4-3-1.1"/>
	<path class="st2" d="M190,36c0.8-0.5,1.7-0.9,2.7-0.9c0.4,0,0.8,0.1,1.2,0.2"/>
	<line class="st2" x1="197.6" y1="67.6" x2="194.4" y2="69.1"/>
	<line class="st2" x1="198.4" y1="61.8" x2="194.9" y2="62.7"/>
	<line class="st2" x1="198.9" y1="52" x2="193.9" y2="51.6"/>
	<line class="st2" x1="199" y1="46.5" x2="189" y2="45.4"/>
	<line class="st2" x1="202.5" y1="37.5" x2="217.9" y2="37.8"/>
	<line class="st3" x1="199.3" y1="60.9" x2="201.9" y2="61.1"/>
	<line class="st3" x1="199.6" y1="58.9" x2="202.4" y2="59.3"/>
	<line class="st3" x1="199.8" y1="57.1" x2="202.1" y2="57.6"/>
	<line class="st3" x1="199.8" y1="55.4" x2="203" y2="55.8"/>
	<line class="st3" x1="199.8" y1="53.6" x2="202" y2="53.8"/>
	<line class="st3" x1="199.8" y1="51.7" x2="202.9" y2="51.6"/>
	<line class="st3" x1="199.7" y1="49.9" x2="202.1" y2="49.9"/>
	<line class="st3" x1="199.6" y1="48.4" x2="202.4" y2="48.4"/>
	<line class="st3" x1="199.2" y1="47.1" x2="202.3" y2="46.8"/>
	<line class="st3" x1="199" y1="45.8" x2="202.3" y2="45.3"/>
	<line class="st3" x1="198.5" y1="44.2" x2="200.6" y2="43.8"/>
	<line class="st3" x1="198" y1="42.7" x2="201" y2="42.4"/>
	<line class="st3" x1="199.7" y1="41.1" x2="198" y2="41.2"/>
	<line class="st3" x1="196.9" y1="39.7" x2="199.5" y2="39.6"/>
	<line class="st3" x1="196.2" y1="38.2" x2="199.1" y2="38.1"/>
	<line class="st3" x1="195.5" y1="36.9" x2="197.9" y2="36.9"/>
	<line class="st3" x1="194.5" y1="35.2" x2="197.3" y2="35"/>
	<line class="st3" x1="194.2" y1="33.7" x2="196.4" y2="33.7"/>
	<line class="st3" x1="217.6" y1="32.2" x2="216.7" y2="34"/>
	<line class="st3" x1="219.7" y1="32" x2="218.8" y2="33.6"/>
	<line class="st3" x1="221.7" y1="32.5" x2="220.7" y2="34"/>
	<line class="st3" x1="223.3" y1="33.7" x2="221.6" y2="34.9"/>
	<line class="st3" x1="224.6" y1="35.3" x2="222.5" y2="36.6"/>
	<line class="st3" x1="225.2" y1="37.5" x2="222.9" y2="38.5"/>
	<line class="st3" x1="226.2" y1="39.1" x2="224.6" y2="39.8"/>
	<line class="st3" x1="215.9" y1="32.1" x2="215" y2="34.3"/>
	<line class="st3" x1="227.1" y1="40.7" x2="225" y2="41.6"/>
	<line class="st3" x1="227.3" y1="42.2" x2="225.4" y2="43"/>
	<line class="st3" x1="228" y1="44" x2="225.6" y2="44.8"/>
	<line class="st3" x1="228.4" y1="45.2" x2="226.9" y2="45.7"/>
	<line class="st3" x1="228.8" y1="46.8" x2="226.5" y2="47.5"/>
	<line class="st3" x1="228.9" y1="48.4" x2="227.3" y2="48.8"/>
	<line class="st3" x1="229.2" y1="49.7" x2="226.8" y2="50"/>
	<line class="st3" x1="229.3" y1="51.3" x2="227.3" y2="51.5"/>
	<line class="st3" x1="229.2" y1="53" x2="226.7" y2="53.2"/>
	<line class="st3" x1="229.2" y1="56" x2="227.3" y2="56.1"/>
	<line class="st3" x1="228.9" y1="57.4" x2="226.3" y2="57.4"/>
	<line class="st3" x1="229.1" y1="58.9" x2="227.3" y2="58.8"/>
	<line class="st3" x1="228.6" y1="60.6" x2="226.5" y2="60.4"/>
	<line class="st3" x1="228.1" y1="62.1" x2="225.6" y2="61.6"/>
	<line class="st3" x1="227.6" y1="63.5" x2="225.7" y2="63.2"/>
	<line class="st3" x1="186.7" y1="55.4" x2="188.1" y2="57"/>
	<line class="st3" x1="185.6" y1="56.9" x2="187.3" y2="59"/>
	<line class="st3" x1="184.1" y1="57.6" x2="185.5" y2="59.1"/>
	<line class="st3" x1="182.8" y1="58.8" x2="184.4" y2="60.8"/>
	<line class="st3" x1="181.7" y1="59" x2="182.6" y2="60.5"/>
	<line class="st3" x1="180.7" y1="60.2" x2="181.6" y2="62.4"/>
	<line class="st3" x1="179.4" y1="60.6" x2="180" y2="62.2"/>
	<line class="st3" x1="178" y1="61.2" x2="178.7" y2="63.4"/>
	<line class="st3" x1="176.2" y1="62.1" x2="176.8" y2="63.6"/>
	<line class="st3" x1="174.8" y1="62.1" x2="175.2" y2="64.4"/>
	<line class="st3" x1="173.7" y1="62.5" x2="173.8" y2="64.3"/>
	<line class="st3" x1="172" y1="62.7" x2="172.2" y2="65.2"/>
	<line class="st3" x1="170.7" y1="62.8" x2="170.4" y2="64.6"/>
	<line class="st3" x1="169.4" y1="62.8" x2="169" y2="65.1"/>
	<line class="st3" x1="167.8" y1="62.7" x2="167.3" y2="65.1"/>
	<line class="st3" x1="166.4" y1="62.2" x2="165.9" y2="63.8"/>
	<line class="st3" x1="164.9" y1="62" x2="164.3" y2="64.8"/>
	<line class="st3" x1="162.6" y1="63.7" x2="163.4" y2="61.5"/>
	<line class="st3" x1="161.9" y1="60.6" x2="161.2" y2="62.4"/>
	<line class="st3" x1="160.5" y1="59.9" x2="159.3" y2="62.5"/>
	<line class="st3" x1="159.1" y1="58.9" x2="158" y2="61"/>
	<line class="st3" x1="157.5" y1="58.1" x2="156.3" y2="60.8"/>
	<path class="st2" d="M136.4,31.1c-1.7,1.8-3.9,2.3-5.8,0.8"/>
	<path class="st2" d="M129.6,24.4c1.2-1.2,2.4-1.8,3.8-1.4"/>
	<path class="st2" d="M154.3,22.5c1.4-2.5,6.6-2.7,7.6-0.2"/>
	<path class="st2" d="M160.4,27.6c-2.3,1.2-4.5,0-5.8-1.4"/>
	<line class="st2" x1="154.1" y1="28.5" x2="157.7" y2="31.9"/>
	<line class="st2" x1="153.6" y1="20" x2="163" y2="17.3"/>
	<line class="st3" x1="112.8" y1="37.7" x2="112.4" y2="34.9"/>
	<line class="st3" x1="114.6" y1="37.4" x2="114" y2="33.3"/>
	<line class="st3" x1="115.7" y1="37.8" x2="115.4" y2="35.7"/>
	<line class="st3" x1="117.9" y1="37.6" x2="117.1" y2="34"/>
	<line class="st3" x1="119.7" y1="37.4" x2="119.2" y2="35.1"/>
	<line class="st3" x1="121.4" y1="37.2" x2="120.7" y2="35"/>
	<line class="st3" x1="122.9" y1="37" x2="121.5" y2="33"/>
	<line class="st3" x1="124.1" y1="36.9" x2="123.6" y2="35"/>
	<line class="st3" x1="140.9" y1="33.2" x2="140.1" y2="29.5"/>
	<line class="st3" x1="142.5" y1="33.1" x2="142.5" y2="31.3"/>
	<line class="st3" x1="143.8" y1="32.5" x2="143.6" y2="30.1"/>
	<line class="st3" x1="145.2" y1="32.7" x2="145" y2="30"/>
	<line class="st3" x1="146.8" y1="32.5" x2="146.2" y2="28.4"/>
	<line class="st3" x1="148.4" y1="32.3" x2="148" y2="30.2"/>
</g>
</svg>
