<?xml version="1.0" encoding="utf-8"?>
<!-- Generator: Adobe Illustrator 21.1.0, SVG Export Plug-In . SVG Version: 6.00 Build 0)  -->
<svg version="1.1" id="Calque_1" xmlns="http://www.w3.org/2000/svg" xmlns:xlink="http://www.w3.org/1999/xlink" x="0px" y="0px"
	 viewBox="0 0 313 103" style="enable-background:new 0 0 313 103;" xml:space="preserve">
<style type="text/css">
	.st0{fill:none;stroke:#FFFFFF;stroke-width:0.9202;stroke-linecap:round;stroke-linejoin:round;stroke-miterlimit:10;}
	.st1{fill:none;stroke:#FFFFFF;stroke-width:0.4601;stroke-linecap:round;stroke-linejoin:round;stroke-miterlimit:10;}
	.st2{fill:none;stroke:#FFFFFF;stroke-width:0.94;stroke-linecap:round;stroke-linejoin:round;stroke-miterlimit:10;}
	.st3{fill:none;stroke:#FFFFFF;stroke-width:0.47;stroke-linecap:round;stroke-linejoin:round;stroke-miterlimit:10;}
	.st4{fill:none;stroke:#FFFFFF;stroke-width:0.9742;stroke-linecap:round;stroke-linejoin:round;stroke-miterlimit:10;}
	.st5{fill:none;stroke:#FFFFFF;stroke-width:0.9437;stroke-linecap:round;stroke-linejoin:round;stroke-miterlimit:10;}
	.st6{fill:none;stroke:#FFFFFF;stroke-width:0.4718;stroke-linecap:round;stroke-linejoin:round;stroke-miterlimit:10;}
	.st7{fill:none;stroke:#FFFFFF;stroke-width:0.4871;stroke-linecap:round;stroke-linejoin:round;stroke-miterlimit:10;}
</style>
<g>
	<g>
		<path class="st0" d="M11.7,61.6c8.7-0.1,23.6-3.8,28.4-9.1c4.9-5.3,16.5-15.3,23.8-18.6c4.1-1.8,15-19.3,15.2-21.2
			c-2.3-5.7,5.2-11.7,11.3-8.1c6.4,3.8,3.4,15.2-3.9,14.8C80.5,24,75.4,32.8,75.3,36.2c-0.1,3.4-0.3,9.2,5.3,10.2
			c9.8,1.9,47.4-1.5,52-2.8c8.9-2.5,10,12.3,2.8,11.2c-13.1-2-28,1.8-30.1,2.4c-3.1,0.9-1.3,2.5,1.3,2.6c2.7,0.1,30.2-3.6,37-5.3
			c7.4-1.8,9.8,10.9,2,10.3c-12.5-1-31.3,1.5-34.8,2.9c-4.4,1.8-2.9,2.8,0.7,2.5c5-0.5,23.6-3.1,29.5-4.9c6.2-1.8,8.4,12.2-1.2,11.1
			c-12-1.3-29.9,2.7-31.2,2.5c-2-0.4-2.9,1.7-0.4,3.3c2.5,1.6,24.1-5.5,29-6c6.9-0.7,8.1,10.9,1.2,9.9c-9.7-1.4-27.4,5.3-37.8,8.1
			c-6.8,1.8-19,4.3-27,3.6c-11.1-1-22.1-10.2-27.3-11.4c-5.2-1.2-25.1,0.2-28.6,1.8C7.7,81.9,9.3,67.5,11.7,61.6z"/>
		<line class="st1" x1="76.2" y1="32.7" x2="75.7" y2="27.3"/>
		<line class="st1" x1="77.5" y1="29.6" x2="76.9" y2="25.7"/>
		<line class="st1" x1="78.7" y1="28.2" x2="78.4" y2="24.2"/>
		<line class="st1" x1="79.9" y1="26.1" x2="79.8" y2="22.9"/>
		<line class="st1" x1="81.2" y1="24.7" x2="80.8" y2="21.4"/>
		<line class="st1" x1="83.1" y1="22" x2="82.7" y2="19.8"/>
		<line class="st1" x1="84.1" y1="20.6" x2="83.8" y2="18.3"/>
		<line class="st1" x1="85.3" y1="20.3" x2="85" y2="16.8"/>
		<line class="st1" x1="82.2" y1="23.3" x2="81.8" y2="20.7"/>
		<line class="st1" x1="106.9" y1="56.5" x2="107.5" y2="54.6"/>
		<line class="st1" x1="108.3" y1="56.3" x2="109.2" y2="53.9"/>
		<line class="st1" x1="109.7" y1="56.2" x2="110.4" y2="54.3"/>
		<line class="st1" x1="111.3" y1="55.6" x2="111.9" y2="53.8"/>
		<line class="st1" x1="112.9" y1="55.4" x2="113.7" y2="53"/>
		<line class="st1" x1="114.2" y1="55" x2="114.9" y2="53.1"/>
		<line class="st1" x1="115.6" y1="54.8" x2="116.3" y2="52.4"/>
		<line class="st1" x1="118.4" y1="54.4" x2="119.2" y2="52.5"/>
		<line class="st1" x1="117" y1="54.6" x2="117.8" y2="52.7"/>
		<line class="st1" x1="120" y1="54.2" x2="121.1" y2="51.8"/>
		<line class="st1" x1="121.6" y1="54.1" x2="122.2" y2="52.2"/>
		<line class="st1" x1="123.1" y1="54" x2="124" y2="51.6"/>
		<line class="st1" x1="124.3" y1="54.3" x2="125" y2="52.4"/>
		<line class="st1" x1="125.8" y1="54.2" x2="126.8" y2="51.5"/>
		<line class="st1" x1="127.4" y1="53.9" x2="128.4" y2="51.2"/>
		<line class="st1" x1="128.5" y1="54.4" x2="129.2" y2="52.6"/>
		<line class="st1" x1="130" y1="54.4" x2="130.7" y2="52.5"/>
		<line class="st1" x1="131.6" y1="54.2" x2="132.3" y2="51.8"/>
		<line class="st1" x1="132.9" y1="54" x2="133.5" y2="52.2"/>
		<line class="st1" x1="134.3" y1="54.1" x2="134.6" y2="53.2"/>
		<line class="st1" x1="112" y1="67.2" x2="112.6" y2="65.4"/>
		<line class="st1" x1="113.3" y1="66.8" x2="114.1" y2="64.4"/>
		<line class="st1" x1="114.9" y1="66.3" x2="115.6" y2="64.5"/>
		<line class="st1" x1="116.3" y1="65.9" x2="116.9" y2="64.1"/>
		<line class="st1" x1="117.8" y1="65.8" x2="118.7" y2="63.4"/>
		<line class="st1" x1="119.2" y1="65.7" x2="119.9" y2="63.9"/>
		<line class="st1" x1="120.5" y1="65.5" x2="121.3" y2="63.1"/>
		<line class="st1" x1="123.2" y1="65.2" x2="124.1" y2="63.3"/>
		<line class="st1" x1="121.9" y1="65.2" x2="122.7" y2="63.3"/>
		<line class="st1" x1="124.7" y1="65" x2="125.8" y2="62.5"/>
		<line class="st1" x1="126.6" y1="64.9" x2="127.2" y2="63"/>
		<line class="st1" x1="127.9" y1="64.7" x2="128.7" y2="62.3"/>
		<line class="st1" x1="129.4" y1="64.6" x2="130.1" y2="62.8"/>
		<line class="st1" x1="130.8" y1="64.6" x2="131.8" y2="62"/>
		<line class="st1" x1="132.3" y1="64.3" x2="133.4" y2="61.7"/>
		<line class="st1" x1="133.8" y1="64.4" x2="134.5" y2="62.5"/>
		<line class="st1" x1="135.4" y1="64.3" x2="136" y2="62.4"/>
		<line class="st1" x1="136.6" y1="64.4" x2="137.4" y2="62"/>
		<line class="st1" x1="138.2" y1="64.2" x2="138.8" y2="62.4"/>
		<line class="st1" x1="139.5" y1="64.2" x2="139.8" y2="63.3"/>
		<line class="st1" x1="114.3" y1="77.8" x2="115" y2="75.4"/>
		<line class="st1" x1="115.7" y1="77.6" x2="116.5" y2="75.6"/>
		<line class="st1" x1="117.2" y1="77.4" x2="118.2" y2="74.9"/>
		<line class="st1" x1="119.1" y1="77.1" x2="119.6" y2="75.2"/>
		<line class="st1" x1="121.9" y1="76.7" x2="122.5" y2="74.8"/>
		<line class="st1" x1="123.2" y1="76.5" x2="124.1" y2="73.8"/>
		<line class="st1" x1="120.5" y1="76.8" x2="121.1" y2="74.9"/>
		<line class="st1" x1="124.5" y1="76.6" x2="125.1" y2="74.2"/>
		<line class="st1" x1="125.8" y1="76.5" x2="126.3" y2="74.6"/>
		<line class="st1" x1="127.3" y1="76.2" x2="128" y2="73.8"/>
		<line class="st1" x1="128.6" y1="76" x2="129.1" y2="74.2"/>
		<line class="st1" x1="130.1" y1="75.7" x2="130.6" y2="73.4"/>
		<line class="st1" x1="131.3" y1="75.5" x2="131.9" y2="73.8"/>
		<line class="st1" x1="118" y1="88.7" x2="118.6" y2="86.6"/>
		<line class="st1" x1="119.5" y1="88.3" x2="120.2" y2="85.7"/>
		<line class="st1" x1="121.3" y1="87.8" x2="121.7" y2="85.9"/>
		<line class="st1" x1="116.6" y1="89.3" x2="117.1" y2="86.9"/>
		<line class="st1" x1="122.5" y1="87.6" x2="123.1" y2="84.8"/>
		<line class="st1" x1="124.2" y1="87.3" x2="124.9" y2="84.6"/>
		<line class="st1" x1="126.1" y1="86.6" x2="126.4" y2="84.7"/>
		<line class="st1" x1="127.7" y1="86.4" x2="128.1" y2="83.9"/>
		<line class="st1" x1="129" y1="85.8" x2="129.2" y2="85.1"/>
		<line class="st1" x1="130.3" y1="86" x2="130.5" y2="84.6"/>
		<line class="st1" x1="70.1" y1="96.6" x2="70.3" y2="93.8"/>
		<line class="st1" x1="68.5" y1="96.1" x2="68.7" y2="94.1"/>
		<line class="st1" x1="66.8" y1="95.4" x2="67.1" y2="92.5"/>
		<line class="st1" x1="65" y1="94.6" x2="65.3" y2="92.5"/>
		<line class="st1" x1="63.2" y1="94" x2="63.8" y2="91.3"/>
		<line class="st1" x1="61.4" y1="93.1" x2="62.3" y2="89.7"/>
		<line class="st1" x1="59.7" y1="92.5" x2="60.3" y2="90.1"/>
		<line class="st1" x1="58.2" y1="91.8" x2="59" y2="89.4"/>
		<line class="st1" x1="56.3" y1="91" x2="57.4" y2="87.9"/>
		<line class="st1" x1="54.9" y1="90.4" x2="55.8" y2="87.8"/>
		<line class="st1" x1="53" y1="89.4" x2="54.1" y2="86.5"/>
		<line class="st1" x1="51.6" y1="88.7" x2="52.2" y2="86.5"/>
		<line class="st1" x1="49.8" y1="87.5" x2="50.7" y2="84.6"/>
		<line class="st1" x1="48.2" y1="86.7" x2="48.9" y2="84"/>
		<line class="st1" x1="22.2" y1="87.1" x2="23.6" y2="84.7"/>
		<line class="st1" x1="20.3" y1="87" x2="21.4" y2="85.2"/>
		<line class="st1" x1="18" y1="87.9" x2="19.4" y2="85.6"/>
		<line class="st1" x1="16.3" y1="86.3" x2="18.3" y2="83.5"/>
		<line class="st1" x1="14.6" y1="85.5" x2="16.1" y2="83.8"/>
		<line class="st1" x1="13.5" y1="83.8" x2="16.2" y2="81.6"/>
		<line class="st1" x1="12.9" y1="82.2" x2="15.2" y2="80.4"/>
		<line class="st1" x1="11.5" y1="81" x2="13.7" y2="79.2"/>
		<line class="st1" x1="10.8" y1="78" x2="13.2" y2="76.8"/>
		<line class="st1" x1="10.4" y1="75.2" x2="12.7" y2="74.1"/>
		<line class="st1" x1="10.2" y1="72.4" x2="12.6" y2="71.5"/>
		<line class="st1" x1="10.1" y1="69.9" x2="12" y2="69.4"/>
		<line class="st1" x1="24.6" y1="86.8" x2="25" y2="84.8"/>
		<path class="st2" d="M83.7,46.4c-1.1-6,7-9.3,10.2-3c6,2.4,33.7,1.3,38.7,0.3"/>
	</g>
	<g>
		<path class="st2" d="M251.4,31.7c2.2,1,9.6,4.7,13.5,11.6c5.6,9.7-1.4,19.6-8.7,23.4c-7.4,3.9-17.1,3-18.7-4.6
			c-1.6-7.5-1.8-16.4-1.7-17.5c0.1-1.1,0.5-3.1,2-3.5c4.8-1.3,7.8-4.4,9.7-8.1C248.5,31.2,250,31,251.4,31.7z"/>
		<path class="st2" d="M241.6,31.4c-1.6,3-5.3,6.5-7.1,6.6c-0.8,0-1.7-0.1-2.8-0.7c-1.3-0.7-6.8-5.1-7.4-5.7c-2.1-2-2.6-2.7-1.7-3.9
			c1.9-2.4,3.9-6.1,3.9-8.9c0-1,0.9-0.7,2.5,0.1c7.3,3.4,8.4,4.8,12,8.7C242.3,29.1,242.1,30.5,241.6,31.4z"/>
		<path class="st2" d="M221.9,13.6c-1.5-0.9-13.7-8.7-15-9.6c-1.4-0.9-2.6-1-3-0.4c-5.4,8.5-1.1,12.1,0.7,14
			c1.9,1.9,8.5,6.9,9.2,7.4c1.2,0.7,2,0.5,2.6,0.3c0.6-0.2,5.6-4.4,6.9-8.8C223.5,15.6,222.6,14,221.9,13.6z"/>
		<path class="st2" d="M201.9,91.4c-0.1,1.3,0.5,2.5,1.6,2.7c26.4,5.6,57.8,10.7,65.8-9.8c3.4-8.8,1.3-22.8,0-25.4
			c-0.3-0.7-1.1-1.5-1.7,0.4c-1.3,4.7-11.3,14.9-23.1,12.8c-8.7-1.5-12.8-8.9-11.2-25.3c0.1-1.5-0.3-2.2-0.8-2.4
			c-3.8-1.4-20.7-6.3-21.8-6.4c-1.2-0.1-3.7-0.4-3.7,2.4"/>
		<path class="st2" d="M271,47.3c1,1.7,3.3,5.1,4,8.5c1.2,6,0.4,19.2-2.7,28.3c-0.5,1.5-0.5,3.8,1.4,4.1c1.9,0.3,18.7,0.7,20.5,0.7
			c1.8,0,2.6-0.1,3.5-1.7c5.7-10.4,7.9-24,5.5-32.1c-1.3-4.4-3.3-8-4.1-9.2c-0.7-1.3-2.1-2.2-3.3-2.2c-1.2,0-22.4,0-23.2,0
			C271.8,43.6,269.5,44.7,271,47.3z"/>
		<path class="st2" d="M273.6,51.8c-0.3,2.4-2.2,3.6-4.2,3.5c-1.1,0-2.1-0.4-2.8-1"/>
		<path class="st2" d="M266.8,47.3c0.7-0.5,1.6-0.8,2.6-0.8c0.4,0,0.8,0.1,1.2,0.2"/>
		<line class="st2" x1="274" y1="77.2" x2="271" y2="78.6"/>
		<line class="st2" x1="274.7" y1="71.7" x2="271.4" y2="72.6"/>
		<line class="st2" x1="275.2" y1="62.5" x2="270.5" y2="62.1"/>
		<line class="st2" x1="275.3" y1="57.3" x2="265.8" y2="56.3"/>
		<line class="st2" x1="278.6" y1="48.8" x2="293.1" y2="49.1"/>
		<line class="st3" x1="275.6" y1="70.8" x2="278" y2="71.1"/>
		<line class="st3" x1="275.8" y1="69" x2="278.5" y2="69.4"/>
		<line class="st3" x1="276.1" y1="67.3" x2="278.2" y2="67.8"/>
		<line class="st3" x1="276.1" y1="65.7" x2="279.1" y2="66.1"/>
		<line class="st3" x1="276.1" y1="64" x2="278.1" y2="64.1"/>
		<line class="st3" x1="276.1" y1="62.1" x2="279" y2="62.1"/>
		<line class="st3" x1="276" y1="60.5" x2="278.2" y2="60.5"/>
		<line class="st3" x1="275.9" y1="59.1" x2="278.5" y2="59"/>
		<line class="st3" x1="275.5" y1="57.8" x2="278.5" y2="57.6"/>
		<line class="st3" x1="275.3" y1="56.6" x2="278.4" y2="56.1"/>
		<line class="st3" x1="274.8" y1="55.1" x2="276.8" y2="54.7"/>
		<line class="st3" x1="274.4" y1="53.7" x2="277.2" y2="53.4"/>
		<line class="st3" x1="276" y1="52.2" x2="274.3" y2="52.3"/>
		<line class="st3" x1="273.3" y1="50.9" x2="275.8" y2="50.8"/>
		<line class="st3" x1="272.6" y1="49.5" x2="275.4" y2="49.4"/>
		<line class="st3" x1="272" y1="48.2" x2="274.2" y2="48.2"/>
		<line class="st3" x1="271" y1="46.6" x2="273.7" y2="46.4"/>
		<line class="st3" x1="270.8" y1="45.2" x2="272.9" y2="45.2"/>
		<line class="st3" x1="292.8" y1="43.7" x2="292" y2="45.5"/>
		<line class="st3" x1="294.9" y1="43.6" x2="294" y2="45.1"/>
		<line class="st3" x1="296.7" y1="44.1" x2="295.8" y2="45.5"/>
		<line class="st3" x1="298.2" y1="45.2" x2="296.7" y2="46.3"/>
		<line class="st3" x1="299.5" y1="46.7" x2="297.5" y2="48"/>
		<line class="st3" x1="300.1" y1="48.7" x2="297.9" y2="49.8"/>
		<line class="st3" x1="301" y1="50.3" x2="299.5" y2="51"/>
		<line class="st3" x1="291.3" y1="43.7" x2="290.4" y2="45.7"/>
		<line class="st3" x1="301.9" y1="51.8" x2="299.9" y2="52.7"/>
		<line class="st3" x1="302" y1="53.2" x2="300.2" y2="54"/>
		<line class="st3" x1="302.7" y1="54.9" x2="300.4" y2="55.6"/>
		<line class="st3" x1="303.1" y1="56.1" x2="301.6" y2="56.5"/>
		<line class="st3" x1="303.5" y1="57.6" x2="301.2" y2="58.2"/>
		<line class="st3" x1="303.6" y1="59.1" x2="302" y2="59.4"/>
		<line class="st3" x1="303.8" y1="60.3" x2="301.5" y2="60.6"/>
		<line class="st3" x1="304" y1="61.8" x2="302" y2="62"/>
		<line class="st3" x1="303.8" y1="63.4" x2="301.4" y2="63.6"/>
		<line class="st3" x1="303.8" y1="66.3" x2="302" y2="66.3"/>
		<line class="st3" x1="303.6" y1="67.5" x2="301.1" y2="67.6"/>
		<line class="st3" x1="303.8" y1="68.9" x2="302" y2="68.9"/>
		<line class="st3" x1="303.3" y1="70.6" x2="301.3" y2="70.4"/>
		<line class="st3" x1="302.8" y1="72" x2="300.4" y2="71.5"/>
		<line class="st3" x1="302.3" y1="73.3" x2="300.5" y2="73"/>
		<line class="st3" x1="263.7" y1="65.7" x2="265" y2="67.2"/>
		<line class="st3" x1="262.6" y1="67.1" x2="264.3" y2="69.1"/>
		<line class="st3" x1="261.3" y1="67.8" x2="262.5" y2="69.2"/>
		<line class="st3" x1="260" y1="68.9" x2="261.5" y2="70.8"/>
		<line class="st3" x1="259" y1="69.1" x2="259.8" y2="70.5"/>
		<line class="st3" x1="258" y1="70.2" x2="258.9" y2="72.2"/>
		<line class="st3" x1="256.8" y1="70.6" x2="257.3" y2="72.1"/>
		<line class="st3" x1="255.5" y1="71.1" x2="256.2" y2="73.2"/>
		<line class="st3" x1="253.8" y1="72" x2="254.4" y2="73.5"/>
		<line class="st3" x1="252.4" y1="72" x2="252.9" y2="74.1"/>
		<line class="st3" x1="251.4" y1="72.3" x2="251.5" y2="74.1"/>
		<line class="st3" x1="249.8" y1="72.6" x2="250" y2="74.9"/>
		<line class="st3" x1="248.5" y1="72.7" x2="248.4" y2="74.4"/>
		<line class="st3" x1="247.3" y1="72.7" x2="247" y2="74.8"/>
		<line class="st3" x1="245.9" y1="72.5" x2="245.4" y2="74.8"/>
		<line class="st3" x1="244.5" y1="72.1" x2="244.1" y2="73.6"/>
		<line class="st3" x1="243.2" y1="71.9" x2="242.5" y2="74.5"/>
		<line class="st3" x1="241" y1="73.5" x2="241.7" y2="71.4"/>
		<line class="st3" x1="240.3" y1="70.6" x2="239.6" y2="72.3"/>
		<line class="st3" x1="238.9" y1="69.9" x2="237.8" y2="72.4"/>
		<line class="st3" x1="237.7" y1="68.9" x2="236.6" y2="70.9"/>
		<line class="st3" x1="236.4" y1="67.9" x2="235" y2="70.7"/>
		<line class="st3" x1="235.5" y1="66.9" x2="234.6" y2="68.8"/>
		<line class="st3" x1="234.8" y1="65.3" x2="233.4" y2="67.9"/>
		<line class="st3" x1="234.1" y1="64" x2="233.4" y2="64.9"/>
		<path class="st2" d="M222.8,27.1c-2.3,0-4.1-1.1-4.4-3.4"/>
		<path class="st2" d="M222.8,18.1c1.7,0,2.8,0.4,3.5,1.6"/>
		<path class="st2" d="M240.9,32.5c2.1,0,4.2,1.2,4.6,3.6"/>
		<path class="st2" d="M240.2,40.2c-1.7-0.3-3-1.8-3.2-3.5"/>
		<line class="st2" x1="234.5" y1="37.9" x2="236.4" y2="41.6"/>
		<line class="st2" x1="242" y1="30.1" x2="247.6" y2="33"/>
		<line class="st3" x1="202.7" y1="15.6" x2="204.3" y2="13.5"/>
		<line class="st3" x1="204" y1="16.6" x2="206.5" y2="13.5"/>
		<line class="st3" x1="204.6" y1="17.6" x2="205.7" y2="16"/>
		<line class="st3" x1="206.1" y1="18.9" x2="208" y2="16"/>
		<line class="st3" x1="207.4" y1="20" x2="208.7" y2="18.1"/>
		<line class="st3" x1="208.7" y1="21" x2="209.8" y2="19.1"/>
		<line class="st3" x1="209.8" y1="21.9" x2="211.6" y2="18.3"/>
		<line class="st3" x1="210.7" y1="22.6" x2="211.6" y2="21"/>
		<line class="st3" x1="224.2" y1="31.5" x2="226.3" y2="28.6"/>
		<line class="st3" x1="225.5" y1="32.5" x2="226.6" y2="31.3"/>
		<line class="st3" x1="226.6" y1="33" x2="228.2" y2="31.3"/>
		<line class="st3" x1="227.4" y1="34.1" x2="229.2" y2="32.2"/>
		<line class="st3" x1="228.7" y1="35.1" x2="231" y2="31.9"/>
		<line class="st3" x1="229.8" y1="36" x2="231" y2="34.4"/>
		<path class="st4" d="M207.9,41.2c8,3.1,13.4,5.9,11.2,11c-2.1,5-11.1,1.5-15.1-0.2c-1.3-0.6-3.4-1.6-2.5-2.2
			c1.6-1,3.4-6.4,2.8-8.2C203.8,39.9,206.2,40.5,207.9,41.2z"/>
		<path class="st4" d="M201.5,40.6c0.3,1.7-1.1,5.9-2.4,7c-1.8,1.6-3.4,1.4-4.7,0.9c-2.4-0.9-10.4-3.7-12.1-4.4
			c-1.9-0.8-2.7-1.4-2.1-2.3c0.8-1.1,2.7-6.7,2.6-8.4c0-1.1,1.1-1.2,2.9-0.7c2,0.5,10.2,3.7,12.3,4.4
			C199.1,37.5,201.1,38.9,201.5,40.6z"/>
		<path class="st4" d="M207.2,53.5c8.7,2.3,16.9,5.2,15.3,10.6c-1.6,5.4-14.2,2.9-18.5,1.5c-1.4-0.4-3.7-1.3-2.8-2
			c1.5-1.3,2.8-7,2-8.8C202.4,53.3,205.4,53.1,207.2,53.5z"/>
		<path class="st4" d="M179.3,50.4c0-0.3,0-0.6,0-0.8c-0.2-1.2,1-1.3,2.9-1.1c2.1,0.3,11,2.7,13.2,3.2c1.1,0.3,3.4,1.5,3.9,3.2
			c0.5,1.7-0.5,6.3-1.7,7.5c-1.7,1.8-3.4,1.8-4.7,1.5c-2.5-0.7-11.2-2.7-13-3.3c-2-0.6-2.9-1.2-2.4-2.2
			C178,57.4,179.2,52.7,179.3,50.4"/>
		<path class="st4" d="M201.7,41.2c0.8-0.2,1.6-0.1,2.4,0.2"/>
		<path class="st4" d="M202,49c-1,0-2.1-1-2.5-1.5"/>
		<path class="st4" d="M199.3,54.4c0.9-0.4,2.8-0.4,3.9,0.5"/>
		<path class="st4" d="M202,62.3c-0.9,0.4-2.6,0.3-3.6-0.5"/>
		<path class="st5" d="M196.5,65.9c1.4,0,10.4,1,11.8,1.4c1.4,0.4,7,1.5,6.8,5.8c-0.2,3.4-3.9,5.3-6.4,5.7c-2.4,0.4-11.1,0.1-12,0
			c-0.9-0.1-2.2-0.4-2.9-1.6c-1.2-1.9-0.3-8.8,0.7-10.2C194.9,66.4,195.3,65.9,196.5,65.9z"/>
		<path class="st5" d="M201.1,80.7c1.3-0.5,7.1-1.6,8.6-1.8c1.4-0.2,7.1-1.2,8.5,2.8c1.1,3.2-1.6,6.4-3.8,7.7
			c-2.1,1.3-7.4,2.8-8.2,3.1c-0.9,0.2-2.2,0.4-3.3-0.4c-1.9-1.3-3.5-8.1-3.2-9.7C199.9,81.7,200,81.2,201.1,80.7z"/>
		<path class="st5" d="M192.1,66.1c-1.7,2-2.2,7.7-1.3,9.4c0.6,1.2,0.2,2-0.7,2.1c-0.9,0.1-9.7-0.8-12.2-1.6
			c-4.7-1.5-5.4-4.4-5.1-7.7c0.2-2.3,3.8-6.1,7.3-5.4c2.4,0.4,8.3,1.6,9.8,1.9C191.4,65.2,192.9,65.2,192.1,66.1z"/>
		<path class="st5" d="M197.6,81.1c-1.2,2.4-0.1,8,1.1,9.4c0.9,1,0.7,1.9-0.1,2.2c-0.9,0.3-8.1,1.5-10.7,1.3
			c-4.9-0.3-6.3-2.9-6.9-6.2c-0.4-2.3,2.1-6.8,5.7-7.1c2.4-0.2,7-0.4,8.5-0.4C196.7,80.4,198.2,80,197.6,81.1z"/>
		<path class="st5" d="M173.4,72.8c-0.5,0-1.1,0-1.6-0.2c-2.1-0.7-3.3-3-2.6-5.1c0.7-2.1,3.5-3.7,5.4-2.5"/>
		<path class="st5" d="M177.9,57.7c-0.5,0-1.1,0-1.6-0.2c-2.1-0.7-3.3-3-2.6-5.1c0.7-2.1,3.5-3.7,5.4-2.5"/>
		<path class="st5" d="M180.5,41.4c-3.1-0.3-4.3-3.5-3.4-5.6c0.8-2.1,3.7-3.4,5.6-2.1"/>
		<path class="st5" d="M193.3,75.8c-0.8,0.3-1.8,0.2-2.5-0.3"/>
		<path class="st5" d="M191.4,67.8c0.8-0.3,1.9-0.3,2.6,0.1"/>
		<path class="st5" d="M181.9,91.2c-0.6,0.2-1.3,0.1-1.9-0.1c-1.8-0.6-2.8-2.5-2.2-4.3c0.5-1.6,2.2-2.6,3.8-2.3"/>
		<path class="st5" d="M201.2,89.9c-0.5,0.6-1.1,0.8-2.1,0.8"/>
		<path class="st5" d="M197.4,84.3c0.8-0.5,1.1-0.7,2.1-0.4"/>
		<g>
			<line class="st6" x1="213.1" y1="79" x2="213.2" y2="81.2"/>
			<line class="st6" x1="211.4" y1="78.4" x2="211.3" y2="80.9"/>
			<line class="st6" x1="209.8" y1="79" x2="209.7" y2="81.5"/>
			<line class="st6" x1="208" y1="79.7" x2="208.1" y2="81.2"/>
			<line class="st6" x1="206.6" y1="79.8" x2="206.6" y2="81.5"/>
			<line class="st6" x1="205" y1="79.9" x2="205" y2="81.6"/>
			<line class="st6" x1="203" y1="80.5" x2="203" y2="82.6"/>
			<line class="st6" x1="201.3" y1="80.8" x2="201.5" y2="83.4"/>
		</g>
		<g>
			<line class="st6" x1="194.6" y1="80.9" x2="194.5" y2="83.4"/>
			<line class="st6" x1="193.1" y1="80.6" x2="193" y2="83.1"/>
			<line class="st6" x1="191.4" y1="80.6" x2="191.3" y2="83.1"/>
			<line class="st6" x1="189.7" y1="80.6" x2="189.4" y2="82.5"/>
			<line class="st6" x1="188" y1="80.8" x2="187.6" y2="83.6"/>
			<line class="st6" x1="186.4" y1="81.4" x2="186.1" y2="83.5"/>
			<line class="st6" x1="184.9" y1="81.3" x2="184.5" y2="83.6"/>
		</g>
		<g>
			<line class="st6" x1="211.5" y1="68.7" x2="211.3" y2="70.3"/>
			<line class="st6" x1="210.1" y1="68" x2="209.7" y2="70.8"/>
			<line class="st6" x1="208.6" y1="67.9" x2="208.3" y2="70"/>
			<line class="st6" x1="207.1" y1="67.3" x2="206.7" y2="69.7"/>
			<line class="st6" x1="204.7" y1="66.9" x2="204.3" y2="69.2"/>
			<line class="st6" x1="203.3" y1="66.8" x2="203.1" y2="68.4"/>
			<line class="st6" x1="205.8" y1="66.8" x2="205.6" y2="68.4"/>
			<line class="st6" x1="201.9" y1="66.7" x2="201.5" y2="69.6"/>
			<line class="st6" x1="200.5" y1="66.5" x2="200.2" y2="68.6"/>
			<line class="st6" x1="199.2" y1="66" x2="198.7" y2="68.6"/>
			<line class="st6" x1="197.5" y1="66.6" x2="197.1" y2="68.8"/>
		</g>
		<g>
			<line class="st6" x1="189.7" y1="64.9" x2="189.2" y2="66.9"/>
			<line class="st6" x1="188.2" y1="64.7" x2="187.5" y2="67.3"/>
			<line class="st6" x1="186.8" y1="64.4" x2="186.4" y2="66.2"/>
			<line class="st6" x1="185.4" y1="64" x2="184.7" y2="66.6"/>
			<line class="st6" x1="184.1" y1="63.6" x2="183.4" y2="66.2"/>
			<line class="st6" x1="182.1" y1="63.3" x2="181.6" y2="65.3"/>
			<line class="st6" x1="180.6" y1="63.2" x2="179.9" y2="65.8"/>
			<line class="st6" x1="179.1" y1="63" x2="178.6" y2="65"/>
			<line class="st6" x1="177.3" y1="63" x2="176.7" y2="65.1"/>
		</g>
		<g>
			<line class="st7" x1="179.3" y1="60.1" x2="179.9" y2="58"/>
			<line class="st7" x1="180.9" y1="60.6" x2="181.7" y2="57.7"/>
			<line class="st7" x1="182.2" y1="61.2" x2="182.8" y2="59.2"/>
			<line class="st7" x1="183.7" y1="61.3" x2="184.2" y2="59.7"/>
			<line class="st7" x1="186.4" y1="62.3" x2="186.9" y2="60.6"/>
			<line class="st7" x1="185" y1="62.2" x2="185.5" y2="60.5"/>
			<line class="st7" x1="187.7" y1="62.5" x2="188.4" y2="60.2"/>
			<line class="st7" x1="189.1" y1="62.9" x2="189.6" y2="61.2"/>
			<line class="st7" x1="190.4" y1="62.9" x2="190.9" y2="60.9"/>
			<line class="st7" x1="191.7" y1="63.6" x2="192.3" y2="61.6"/>
			<line class="st7" x1="193.3" y1="63.8" x2="194" y2="61.3"/>
			<line class="st7" x1="195" y1="63.8" x2="195.5" y2="62"/>
		</g>
		<g>
			<line class="st7" x1="204" y1="63.8" x2="204.4" y2="62.3"/>
			<line class="st7" x1="205.3" y1="64.5" x2="206" y2="62"/>
			<line class="st7" x1="206.6" y1="64.5" x2="207.2" y2="62.7"/>
			<line class="st7" x1="208" y1="64.9" x2="208.4" y2="63.5"/>
			<line class="st7" x1="209.5" y1="65.2" x2="210.1" y2="63.1"/>
			<line class="st7" x1="210.8" y1="65.6" x2="211.3" y2="64"/>
			<line class="st7" x1="212.3" y1="65.7" x2="212.8" y2="63.6"/>
			<line class="st7" x1="213.8" y1="65.8" x2="214.3" y2="64.1"/>
			<line class="st7" x1="215.2" y1="66" x2="215.7" y2="64.4"/>
		</g>
		<g>
			<line class="st7" x1="181.6" y1="43.9" x2="182.2" y2="42.3"/>
			<line class="st7" x1="183" y1="44.4" x2="183.9" y2="42.1"/>
			<line class="st7" x1="184.3" y1="44.9" x2="184.9" y2="43.2"/>
			<line class="st7" x1="185.7" y1="45.3" x2="186.5" y2="42.9"/>
			<line class="st7" x1="188.5" y1="46.3" x2="189.1" y2="44.5"/>
			<line class="st7" x1="187.1" y1="45.9" x2="187.8" y2="44"/>
			<line class="st7" x1="189.9" y1="46.8" x2="190.8" y2="44.4"/>
			<line class="st7" x1="191.2" y1="47.3" x2="192" y2="45.6"/>
			<line class="st7" x1="192.7" y1="47.8" x2="193.6" y2="45.7"/>
			<line class="st7" x1="194.3" y1="48.3" x2="195" y2="46.7"/>
			<line class="st7" x1="196" y1="48.9" x2="196.8" y2="47"/>
		</g>
		<g>
			<line class="st7" x1="203.6" y1="51.5" x2="205" y2="49.1"/>
			<line class="st7" x1="205" y1="52.1" x2="205.9" y2="50.4"/>
			<line class="st7" x1="206.5" y1="52.6" x2="207.7" y2="50.5"/>
			<line class="st7" x1="208" y1="53.1" x2="208.7" y2="51.5"/>
			<line class="st7" x1="209.5" y1="53.6" x2="210.3" y2="51.3"/>
			<line class="st7" x1="210.8" y1="54" x2="211.4" y2="52.4"/>
			<line class="st7" x1="212.1" y1="54.6" x2="213.1" y2="52.4"/>
		</g>
	</g>
</g>
</svg>
