<?xml version="1.0" encoding="utf-8"?>
<!-- Generator: Adobe Illustrator 21.1.0, SVG Export Plug-In . SVG Version: 6.00 Build 0)  -->
<svg version="1.1" id="Calque_1" xmlns="http://www.w3.org/2000/svg" xmlns:xlink="http://www.w3.org/1999/xlink" x="0px" y="0px"
	 viewBox="0 0 242.2 103" style="enable-background:new 0 0 242.2 103;" xml:space="preserve">
<style type="text/css">
	.st0{fill:none;stroke:#FFFFFF;stroke-width:0.8915;stroke-linecap:round;stroke-linejoin:round;stroke-miterlimit:10;}
	.st1{fill:none;stroke:#FFFFFF;stroke-width:0.4457;stroke-linecap:round;stroke-linejoin:round;stroke-miterlimit:10;}
	.st2{fill:none;stroke:#FFFFFF;stroke-width:0.9107;stroke-linecap:round;stroke-linejoin:round;stroke-miterlimit:10;}
	.st3{fill:none;stroke:#FFFFFF;stroke-width:0.4554;stroke-linecap:round;stroke-linejoin:round;stroke-miterlimit:10;}
	.st4{fill:none;stroke:#FFFFFF;stroke-width:0.63;stroke-linecap:round;stroke-linejoin:round;}
	.st5{fill:#FFFFFF;}
</style>
<g>
	<g>
		<path class="st0" d="M12.5,60.7c8.4-0.1,22.8-3.7,27.5-8.8s16-14.9,23-18c4-1.8,14.5-18.7,14.7-20.6c-2.2-5.5,5-11.3,11-7.8
			c6.2,3.7,3.3,14.7-3.8,14.3c-5.7,4.5-10.7,13-10.8,16.3C74,39.4,73.8,45,79.3,46c9.5,1.8,45.9-1.5,50.4-2.7
			c8.6-2.4,9.7,11.9,2.7,10.8c-12.7-1.9-27.1,1.7-29.2,2.3c-3,0.8-1.3,2.4,1.3,2.5c2.6,0.1,29.2-3.5,35.8-5.1c7.2-1.8,9.5,10.6,2,10
			c-12.1-1-30.3,1.4-33.7,2.8c-4.2,1.7-2.8,2.7,0.7,2.4c4.9-0.5,22.8-3,28.6-4.8c6-1.8,8.1,11.8-1.1,10.8c-11.6-1.3-29,2.6-30.2,2.4
			c-1.9-0.4-2.8,1.7-0.4,3.2c2.4,1.5,23.4-5.3,28.1-5.8c6.7-0.7,7.9,10.5,1.2,9.5c-9.4-1.4-26.6,5.1-36.6,7.8
			c-6.6,1.8-18.4,4.2-26.2,3.4c-10.7-1-21.5-9.8-26.5-11c-5-1.2-24.3,0.2-27.8,1.8C8.6,80.4,10.2,66.5,12.5,60.7z"/>
		<line class="st1" x1="75" y1="32.8" x2="74.5" y2="27.5"/>
		<line class="st1" x1="76.2" y1="29.7" x2="75.6" y2="26"/>
		<line class="st1" x1="77.4" y1="28.4" x2="77.1" y2="24.5"/>
		<line class="st1" x1="78.6" y1="26.4" x2="78.4" y2="23.3"/>
		<line class="st1" x1="79.8" y1="25" x2="79.4" y2="21.8"/>
		<line class="st1" x1="81.7" y1="22.4" x2="81.3" y2="20.3"/>
		<line class="st1" x1="82.7" y1="21" x2="82.3" y2="18.8"/>
		<line class="st1" x1="83.8" y1="20.8" x2="83.5" y2="17.3"/>
		<line class="st1" x1="80.8" y1="23.6" x2="80.4" y2="21.1"/>
		<line class="st1" x1="104.8" y1="55.8" x2="105.3" y2="54"/>
		<line class="st1" x1="106.1" y1="55.6" x2="106.9" y2="53.3"/>
		<line class="st1" x1="107.5" y1="55.5" x2="108.1" y2="53.7"/>
		<line class="st1" x1="109" y1="55" x2="109.6" y2="53.2"/>
		<line class="st1" x1="110.5" y1="54.7" x2="111.3" y2="52.4"/>
		<line class="st1" x1="111.8" y1="54.3" x2="112.5" y2="52.5"/>
		<line class="st1" x1="113.1" y1="54.1" x2="113.9" y2="51.8"/>
		<line class="st1" x1="115.8" y1="53.8" x2="116.7" y2="51.9"/>
		<line class="st1" x1="114.5" y1="53.9" x2="115.3" y2="52.1"/>
		<line class="st1" x1="117.4" y1="53.6" x2="118.4" y2="51.2"/>
		<line class="st1" x1="119" y1="53.4" x2="119.6" y2="51.7"/>
		<line class="st1" x1="120.4" y1="53.4" x2="121.3" y2="51.1"/>
		<line class="st1" x1="121.6" y1="53.6" x2="122.2" y2="51.9"/>
		<line class="st1" x1="123" y1="53.5" x2="124" y2="51"/>
		<line class="st1" x1="124.5" y1="53.3" x2="125.6" y2="50.7"/>
		<line class="st1" x1="125.7" y1="53.8" x2="126.3" y2="52"/>
		<line class="st1" x1="127.1" y1="53.8" x2="127.8" y2="51.9"/>
		<line class="st1" x1="128.6" y1="53.5" x2="129.4" y2="51.3"/>
		<line class="st1" x1="129.9" y1="53.4" x2="130.5" y2="51.7"/>
		<line class="st1" x1="131.3" y1="53.5" x2="131.5" y2="52.6"/>
		<line class="st1" x1="109.6" y1="66.2" x2="110.2" y2="64.4"/>
		<line class="st1" x1="110.9" y1="65.8" x2="111.7" y2="63.5"/>
		<line class="st1" x1="112.5" y1="65.3" x2="113.2" y2="63.5"/>
		<line class="st1" x1="113.8" y1="65" x2="114.4" y2="63.2"/>
		<line class="st1" x1="115.3" y1="64.9" x2="116.1" y2="62.5"/>
		<line class="st1" x1="116.7" y1="64.7" x2="117.3" y2="62.9"/>
		<line class="st1" x1="117.9" y1="64.5" x2="118.7" y2="62.2"/>
		<line class="st1" x1="120.5" y1="64.3" x2="121.4" y2="62.4"/>
		<line class="st1" x1="119.2" y1="64.3" x2="120.1" y2="62.4"/>
		<line class="st1" x1="122" y1="64" x2="123" y2="61.6"/>
		<line class="st1" x1="123.8" y1="63.9" x2="124.4" y2="62.2"/>
		<line class="st1" x1="125.1" y1="63.7" x2="125.9" y2="61.4"/>
		<line class="st1" x1="126.5" y1="63.7" x2="127.2" y2="61.9"/>
		<line class="st1" x1="127.8" y1="63.7" x2="128.8" y2="61.1"/>
		<line class="st1" x1="129.3" y1="63.3" x2="130.4" y2="60.8"/>
		<line class="st1" x1="130.8" y1="63.4" x2="131.5" y2="61.6"/>
		<line class="st1" x1="132.3" y1="63.3" x2="133" y2="61.5"/>
		<line class="st1" x1="133.5" y1="63.4" x2="134.3" y2="61.2"/>
		<line class="st1" x1="135.1" y1="63.3" x2="135.6" y2="61.5"/>
		<line class="st1" x1="136.3" y1="63.3" x2="136.6" y2="62.4"/>
		<line class="st1" x1="111.9" y1="76.4" x2="112.6" y2="74.1"/>
		<line class="st1" x1="113.3" y1="76.3" x2="114" y2="74.4"/>
		<line class="st1" x1="114.7" y1="76" x2="115.6" y2="73.6"/>
		<line class="st1" x1="116.5" y1="75.7" x2="117.1" y2="73.9"/>
		<line class="st1" x1="119.2" y1="75.4" x2="119.8" y2="73.5"/>
		<line class="st1" x1="120.5" y1="75.2" x2="121.4" y2="72.6"/>
		<line class="st1" x1="117.9" y1="75.5" x2="118.4" y2="73.7"/>
		<line class="st1" x1="121.8" y1="75.3" x2="122.4" y2="73"/>
		<line class="st1" x1="123" y1="75.2" x2="123.6" y2="73.3"/>
		<line class="st1" x1="124.5" y1="74.9" x2="125.1" y2="72.6"/>
		<line class="st1" x1="125.7" y1="74.7" x2="126.2" y2="72.9"/>
		<line class="st1" x1="127.2" y1="74.5" x2="127.7" y2="72.2"/>
		<line class="st1" x1="128.4" y1="74.2" x2="128.9" y2="72.6"/>
		<line class="st1" x1="115.5" y1="87" x2="116.1" y2="85"/>
		<line class="st1" x1="116.9" y1="86.6" x2="117.6" y2="84.1"/>
		<line class="st1" x1="118.7" y1="86.1" x2="119" y2="84.3"/>
		<line class="st1" x1="114.1" y1="87.5" x2="114.6" y2="85.2"/>
		<line class="st1" x1="119.8" y1="85.9" x2="120.5" y2="83.2"/>
		<line class="st1" x1="121.5" y1="85.7" x2="122.1" y2="83"/>
		<line class="st1" x1="123.3" y1="85" x2="123.6" y2="83.1"/>
		<line class="st1" x1="124.9" y1="84.8" x2="125.3" y2="82.4"/>
		<line class="st1" x1="126.2" y1="84.2" x2="126.3" y2="83.5"/>
		<line class="st1" x1="127.3" y1="84.4" x2="127.6" y2="83"/>
		<line class="st1" x1="69" y1="94.6" x2="69.3" y2="91.9"/>
		<line class="st1" x1="67.5" y1="94.2" x2="67.7" y2="92.2"/>
		<line class="st1" x1="65.9" y1="93.5" x2="66.2" y2="90.7"/>
		<line class="st1" x1="64.1" y1="92.7" x2="64.4" y2="90.7"/>
		<line class="st1" x1="62.4" y1="92.1" x2="62.9" y2="89.5"/>
		<line class="st1" x1="60.7" y1="91.3" x2="61.5" y2="88"/>
		<line class="st1" x1="59" y1="90.7" x2="59.6" y2="88.4"/>
		<line class="st1" x1="57.5" y1="90.1" x2="58.3" y2="87.7"/>
		<line class="st1" x1="55.7" y1="89.3" x2="56.7" y2="86.3"/>
		<line class="st1" x1="54.3" y1="88.6" x2="55.2" y2="86.2"/>
		<line class="st1" x1="52.5" y1="87.7" x2="53.6" y2="84.9"/>
		<line class="st1" x1="51.1" y1="87" x2="51.7" y2="84.9"/>
		<line class="st1" x1="49.4" y1="85.8" x2="50.2" y2="83"/>
		<line class="st1" x1="47.9" y1="85.1" x2="48.5" y2="82.4"/>
		<line class="st1" x1="22.7" y1="85.4" x2="24" y2="83.1"/>
		<line class="st1" x1="20.9" y1="85.3" x2="21.9" y2="83.6"/>
		<line class="st1" x1="18.6" y1="86.3" x2="20" y2="84"/>
		<line class="st1" x1="16.9" y1="84.7" x2="18.9" y2="81.9"/>
		<line class="st1" x1="15.3" y1="83.9" x2="16.7" y2="82.3"/>
		<line class="st1" x1="14.2" y1="82.2" x2="16.8" y2="80.1"/>
		<line class="st1" x1="13.7" y1="80.7" x2="15.8" y2="79"/>
		<line class="st1" x1="12.3" y1="79.5" x2="14.4" y2="77.8"/>
		<line class="st1" x1="11.6" y1="76.7" x2="13.9" y2="75.5"/>
		<line class="st1" x1="11.2" y1="73.9" x2="13.5" y2="72.8"/>
		<line class="st1" x1="11" y1="71.2" x2="13.4" y2="70.4"/>
		<line class="st1" x1="10.9" y1="68.8" x2="12.8" y2="68.3"/>
		<line class="st1" x1="25" y1="85.1" x2="25.3" y2="83.2"/>
	</g>
	<g>
		<path class="st2" d="M89.6,46c0-0.6,0-1.1,0.1-1.5c0.6-2.1,2-2.8,3.2-3c2.3-0.5,10.1-2.2,11.7-2.5c1.9-0.3,2.8-0.2,2.8,0.8
			c0,0.8,0.8,3.9,1.3,5.9"/>
		<path class="st2" d="M111.7,45.3c-0.1-1.9-0.2-4.9,0.2-5.8c0.4-0.8,1.3-1.9,2.5-1.9c0.7,0,8.9-0.6,10-0.7c3.3-0.2,5.8,4.3,6.4,6.3
			"/>
		<path class="st2" d="M107.8,40.9c0.8-0.8,2.6-0.7,3.3-0.5"/>
		<path class="st2" d="M175.8,31.9c2.1,0.9,9.3,4.6,13.1,11.3c5.4,9.4-1.4,18.9-8.4,22.6c-7.2,3.8-16.6,2.9-18.1-4.4
			c-1.6-7.3-1.7-15.9-1.6-16.9c0.1-1.1,0.5-3,1.9-3.4c4.7-1.3,7.5-4.2,9.4-7.8C173,31.5,174.4,31.3,175.8,31.9z"/>
		<path class="st2" d="M166.3,31.7c-1.6,2.9-5.1,6.3-6.9,6.3c-0.8,0-1.7-0.1-2.7-0.7c-1.2-0.7-6.6-4.9-7.2-5.5
			c-2-1.9-2.6-2.6-1.6-3.7c1.8-2.3,3.7-5.9,3.7-8.6c0-1,0.8-0.7,2.4,0.1c7.1,3.3,8.1,4.6,11.6,8.4C167,29.5,166.7,30.8,166.3,31.7z"
			/>
		<path class="st2" d="M147.2,14.4c-1.4-0.9-13.2-8.4-14.6-9.3c-1.3-0.8-2.6-1-2.9-0.4c-5.2,8.2-1.1,11.7,0.7,13.6
			c1.8,1.8,8.2,6.7,8.9,7.1c1.1,0.7,2,0.5,2.5,0.3c0.6-0.2,5.5-4.3,6.7-8.5C148.8,16.3,147.9,14.9,147.2,14.4z"/>
		<path class="st2" d="M129.3,39.5c0.4-0.3,0.8-0.6,1.3-0.7c0.2-0.1,1.3-0.4,2.6,0.1"/>
		<path class="st2" d="M128.8,84.6c-0.2,1.6-0.7,4.1-0.8,4.4c-0.5,1.5,0.1,3.3,1.4,3.6c25.6,5.4,56,10.4,63.8-9.5
			c3.3-8.5,1.3-22.1,0-24.7c-0.3-0.7-1.1-1.4-1.6,0.4c-1.3,4.6-11,14.4-22.4,12.4c-8.4-1.5-12.4-8.6-10.8-24.5
			c0.1-1.4-0.3-2.1-0.8-2.3c-3.6-1.3-20-6.1-21.2-6.2c-1.1-0.1-3.3-0.2-3.7,1.8c0,0.3-0.1,1.2-0.3,2.6"/>
		<path class="st2" d="M129.7,74.8c0,0.5,0,0.3-0.1,0.8"/>
		<path class="st2" d="M130.6,63.8c-0.1,0.6-0.1,0.9-0.1,1.5"/>
		<path class="st2" d="M131.4,54.3c-0.1,0.6,0,0.4-0.1,1.1"/>
		<path class="st2" d="M194.8,47.1c0.9,1.6,3.2,5,3.9,8.3c1.2,5.8,0.4,18.6-2.6,27.4c-0.5,1.5-0.5,3.7,1.3,4
			c1.8,0.3,18.1,0.7,19.8,0.7c1.7,0,2.5-0.1,3.4-1.6c5.5-10.1,7.7-23.3,5.3-31.1c-1.3-4.2-3.2-7.7-3.9-9c-0.7-1.2-2-2.1-3.1-2.1
			s-21.7,0-22.5,0C195.5,43.5,193.3,44.5,194.8,47.1z"/>
		<path class="st2" d="M197.2,51.4c-0.3,2.3-2.2,3.4-4.1,3.4c-1,0-2-0.4-2.7-1"/>
		<path class="st2" d="M190.7,47.1c0.7-0.5,1.6-0.8,2.5-0.8c0.4,0,0.8,0.1,1.1,0.2"/>
		<line class="st2" x1="197.6" y1="76.1" x2="194.8" y2="77.4"/>
		<line class="st2" x1="198.4" y1="70.8" x2="195.2" y2="71.6"/>
		<line class="st2" x1="198.8" y1="61.8" x2="194.3" y2="61.4"/>
		<line class="st2" x1="198.9" y1="56.8" x2="189.8" y2="55.8"/>
		<line class="st2" x1="202.1" y1="48.5" x2="216.2" y2="48.8"/>
		<line class="st3" x1="199.2" y1="69.9" x2="201.6" y2="70.1"/>
		<line class="st3" x1="199.5" y1="68.1" x2="202.1" y2="68.5"/>
		<line class="st3" x1="199.7" y1="66.5" x2="201.7" y2="66.9"/>
		<line class="st3" x1="199.7" y1="64.9" x2="202.6" y2="65.3"/>
		<line class="st3" x1="199.7" y1="63.2" x2="201.7" y2="63.4"/>
		<line class="st3" x1="199.7" y1="61.5" x2="202.5" y2="61.5"/>
		<line class="st3" x1="199.6" y1="59.8" x2="201.8" y2="59.9"/>
		<line class="st3" x1="199.5" y1="58.5" x2="202.1" y2="58.5"/>
		<line class="st3" x1="199.1" y1="57.3" x2="202" y2="57.1"/>
		<line class="st3" x1="198.9" y1="56.1" x2="201.9" y2="55.6"/>
		<line class="st3" x1="198.5" y1="54.7" x2="200.4" y2="54.2"/>
		<line class="st3" x1="198" y1="53.3" x2="200.7" y2="53"/>
		<line class="st3" x1="199.6" y1="51.8" x2="198" y2="51.9"/>
		<line class="st3" x1="197" y1="50.6" x2="199.4" y2="50.5"/>
		<line class="st3" x1="196.4" y1="49.2" x2="199" y2="49.1"/>
		<line class="st3" x1="195.8" y1="48" x2="197.9" y2="48"/>
		<line class="st3" x1="194.8" y1="46.4" x2="197.4" y2="46.2"/>
		<line class="st3" x1="194.6" y1="45" x2="196.6" y2="45"/>
		<line class="st3" x1="215.9" y1="43.6" x2="215.1" y2="45.3"/>
		<line class="st3" x1="217.9" y1="43.5" x2="217" y2="45"/>
		<line class="st3" x1="219.7" y1="44" x2="218.8" y2="45.3"/>
		<line class="st3" x1="221.2" y1="45" x2="219.6" y2="46.1"/>
		<line class="st3" x1="222.4" y1="46.5" x2="220.4" y2="47.7"/>
		<line class="st3" x1="222.9" y1="48.5" x2="220.8" y2="49.5"/>
		<line class="st3" x1="223.8" y1="50" x2="222.4" y2="50.6"/>
		<line class="st3" x1="214.4" y1="43.6" x2="213.6" y2="45.6"/>
		<line class="st3" x1="224.7" y1="51.4" x2="222.7" y2="52.3"/>
		<line class="st3" x1="224.9" y1="52.8" x2="223.1" y2="53.6"/>
		<line class="st3" x1="225.5" y1="54.4" x2="223.3" y2="55.2"/>
		<line class="st3" x1="225.9" y1="55.6" x2="224.4" y2="56"/>
		<line class="st3" x1="226.2" y1="57" x2="224.1" y2="57.7"/>
		<line class="st3" x1="226.3" y1="58.5" x2="224.8" y2="58.8"/>
		<line class="st3" x1="226.6" y1="59.6" x2="224.3" y2="60"/>
		<line class="st3" x1="226.7" y1="61.1" x2="224.8" y2="61.4"/>
		<line class="st3" x1="226.6" y1="62.7" x2="224.2" y2="62.9"/>
		<line class="st3" x1="226.6" y1="65.5" x2="224.8" y2="65.5"/>
		<line class="st3" x1="226.3" y1="66.7" x2="223.9" y2="66.7"/>
		<line class="st3" x1="226.5" y1="68.1" x2="224.8" y2="68"/>
		<line class="st3" x1="226" y1="69.7" x2="224.1" y2="69.4"/>
		<line class="st3" x1="225.6" y1="71" x2="223.3" y2="70.6"/>
		<line class="st3" x1="225.1" y1="72.3" x2="223.4" y2="72"/>
		<line class="st3" x1="123.4" y1="37" x2="123.4" y2="39.4"/>
		<line class="st3" x1="121.7" y1="37" x2="121.6" y2="38.7"/>
		<line class="st3" x1="120.2" y1="37" x2="120.1" y2="39.2"/>
		<line class="st3" x1="118.7" y1="37.7" x2="118.7" y2="38.6"/>
		<line class="st3" x1="117.4" y1="37.6" x2="117.3" y2="39.6"/>
		<line class="st3" x1="115.8" y1="37.7" x2="115.7" y2="38.7"/>
		<line class="st3" x1="105.4" y1="38.7" x2="105.7" y2="40.4"/>
		<line class="st3" x1="104.1" y1="39" x2="104.5" y2="41.3"/>
		<line class="st3" x1="102.8" y1="39.3" x2="103.1" y2="40.9"/>
		<line class="st3" x1="101.5" y1="39.6" x2="102.1" y2="42"/>
		<line class="st3" x1="98.8" y1="40.2" x2="99.2" y2="42"/>
		<line class="st3" x1="100.1" y1="39.9" x2="100.5" y2="41.7"/>
		<line class="st3" x1="97.4" y1="40.5" x2="97.9" y2="42.9"/>
		<line class="st3" x1="96.2" y1="40.8" x2="96.4" y2="42.6"/>
		<line class="st3" x1="94.7" y1="41.2" x2="95" y2="43.3"/>
		<line class="st3" x1="93.1" y1="41.6" x2="93.4" y2="43.2"/>
		<line class="st3" x1="91.6" y1="41.9" x2="91.8" y2="43.9"/>
		<line class="st3" x1="187.7" y1="64.9" x2="188.9" y2="66.3"/>
		<line class="st3" x1="186.7" y1="66.2" x2="188.3" y2="68.2"/>
		<line class="st3" x1="185.3" y1="66.9" x2="186.6" y2="68.3"/>
		<line class="st3" x1="184.1" y1="68" x2="185.6" y2="69.9"/>
		<line class="st3" x1="183.2" y1="68.2" x2="183.9" y2="69.6"/>
		<line class="st3" x1="182.2" y1="69.3" x2="183" y2="71.3"/>
		<line class="st3" x1="181.1" y1="69.7" x2="181.5" y2="71.1"/>
		<line class="st3" x1="179.7" y1="70.2" x2="180.4" y2="72.2"/>
		<line class="st3" x1="178.1" y1="71" x2="178.7" y2="72.4"/>
		<line class="st3" x1="176.8" y1="71" x2="177.2" y2="73.1"/>
		<line class="st3" x1="175.8" y1="71.3" x2="175.9" y2="73.1"/>
		<line class="st3" x1="174.2" y1="71.6" x2="174.4" y2="73.9"/>
		<line class="st3" x1="173" y1="71.7" x2="172.8" y2="73.3"/>
		<line class="st3" x1="171.8" y1="71.7" x2="171.5" y2="73.7"/>
		<line class="st3" x1="170.4" y1="71.5" x2="170" y2="73.7"/>
		<line class="st3" x1="169.1" y1="71.1" x2="168.7" y2="72.6"/>
		<line class="st3" x1="167.8" y1="70.9" x2="167.2" y2="73.5"/>
		<line class="st3" x1="165.7" y1="72.5" x2="166.4" y2="70.5"/>
		<line class="st3" x1="165" y1="69.7" x2="164.4" y2="71.3"/>
		<line class="st3" x1="163.7" y1="69" x2="162.6" y2="71.4"/>
		<line class="st3" x1="162.5" y1="68.1" x2="161.5" y2="70"/>
		<line class="st3" x1="161.2" y1="67" x2="159.9" y2="69.8"/>
		<line class="st3" x1="160.3" y1="66.1" x2="159.5" y2="67.9"/>
		<line class="st3" x1="159.7" y1="64.6" x2="158.3" y2="67"/>
		<line class="st3" x1="159" y1="63.3" x2="158.4" y2="64.1"/>
		<path class="st2" d="M148.1,27.5c-2.3,0-4-1.1-4.2-3.3"/>
		<path class="st2" d="M148.1,18.8c1.6,0,2.7,0.4,3.4,1.6"/>
		<path class="st2" d="M165.6,32.8c2.1,0,4,1.2,4.5,3.5"/>
		<path class="st2" d="M164.9,40.2c-1.6-0.2-3-1.7-3.1-3.4"/>
		<line class="st2" x1="159.4" y1="38" x2="161.2" y2="41.6"/>
		<line class="st2" x1="166.6" y1="30.5" x2="172.1" y2="33.3"/>
		<path class="st2" d="M127.8,88.2c-1.7,0.3-3.6-0.8-3.6-2.2c0-0.2,0-0.4,0.1-0.6"/>
		<line class="st3" x1="128.6" y1="16.3" x2="130.2" y2="14.3"/>
		<line class="st3" x1="129.9" y1="17.3" x2="132.3" y2="14.3"/>
		<line class="st3" x1="130.4" y1="18.3" x2="131.5" y2="16.8"/>
		<line class="st3" x1="131.9" y1="19.6" x2="133.8" y2="16.8"/>
		<line class="st3" x1="133.2" y1="20.7" x2="134.4" y2="18.8"/>
		<line class="st3" x1="134.4" y1="21.6" x2="135.5" y2="19.7"/>
		<line class="st3" x1="135.5" y1="22.5" x2="137.3" y2="19"/>
		<line class="st3" x1="136.4" y1="23.2" x2="137.3" y2="21.6"/>
		<line class="st3" x1="149.5" y1="31.8" x2="151.4" y2="29"/>
		<line class="st3" x1="150.7" y1="32.8" x2="151.8" y2="31.6"/>
		<line class="st3" x1="151.8" y1="33.3" x2="153.3" y2="31.6"/>
		<line class="st3" x1="152.5" y1="34.3" x2="154.2" y2="32.4"/>
		<line class="st3" x1="153.8" y1="35.2" x2="156" y2="32.2"/>
		<line class="st3" x1="154.9" y1="36.1" x2="156" y2="34.5"/>
	</g>
</g>
<g>
	<g>
		<g>
			<path class="st4" d="M97.9,19.4c2.8-1.4,14-6.1,24.1,0.3"/>
			<g>
				<path class="st5" d="M103.1,20.4c0-0.2-0.1-0.3-0.3-0.4L98,19.4l2.6-4.1c0.1-0.1,0.1-0.3-0.1-0.4c-0.1-0.1-0.3,0-0.4,0.1
					l-2.8,4.5c-0.1,0.1-0.1,0.2,0,0.3c0,0.1,0.1,0.2,0.2,0.2l5.3,0.7c0.1,0,0.1,0,0.2,0C103,20.6,103,20.5,103.1,20.4z"/>
			</g>
		</g>
	</g>
	<g>
		<g>
			<path class="st4" d="M121.4,26.9c-2.8,1.4-14,6.1-24.1-0.3"/>
			<g>
				<path class="st5" d="M116.2,26c0,0.2,0.1,0.3,0.3,0.4l4.8,0.6l-2.6,4.1c-0.1,0.1-0.1,0.3,0.1,0.4c0.1,0.1,0.3,0,0.4-0.1l2.8-4.5
					c0.1-0.1,0.1-0.2,0-0.3s-0.1-0.2-0.2-0.2l-5.3-0.7c-0.1,0-0.1,0-0.2,0C116.3,25.8,116.2,25.9,116.2,26z"/>
			</g>
		</g>
	</g>
</g>
</svg>
